<svg width="44" height="38" viewBox="0 0 44 38" fill="none" xmlns="http://www.w3.org/2000/svg">
<path d="M21.6824 0.584961C20.8725 0.584961 20.0705 0.744487 19.3222 1.05443C18.574 1.36437 17.8941 1.81867 17.3214 2.39137C16.7487 2.96407 16.2944 3.64397 15.9844 4.39224C15.6745 5.14051 15.515 5.9425 15.515 6.75242C15.515 7.56234 15.6745 8.36434 15.9844 9.11261C16.2944 9.86088 16.7487 10.5408 17.3214 11.1135C17.8941 11.6862 18.574 12.1405 19.3222 12.4504C20.0705 12.7604 20.8725 12.9199 21.6824 12.9199C23.3181 12.9199 24.8869 12.2701 26.0435 11.1135C27.2001 9.95685 27.8499 8.38813 27.8499 6.75242C27.8499 5.11671 27.2001 3.54799 26.0435 2.39137C24.8869 1.23474 23.3181 0.584961 21.6824 0.584961ZM35.5731 3.6656C34.3451 3.6656 33.1674 4.15343 32.299 5.02177C31.4307 5.8901 30.9429 7.06782 30.9429 8.29583C30.9429 9.52384 31.4307 10.7016 32.299 11.5699C33.1674 12.4382 34.3451 12.9261 35.5731 12.9261C36.8011 12.9261 37.9788 12.4382 38.8472 11.5699C39.7155 10.7016 40.2033 9.52384 40.2033 8.29583C40.2033 7.06782 39.7155 5.8901 38.8472 5.02177C37.9788 4.15343 36.8011 3.6656 35.5731 3.6656ZM7.79175 3.6656C6.56374 3.6656 5.38602 4.15343 4.51769 5.02177C3.64935 5.8901 3.16152 7.06782 3.16152 8.29583C3.16152 9.52384 3.64935 10.7016 4.51769 11.5699C5.38602 12.4382 6.56374 12.9261 7.79175 12.9261C9.01976 12.9261 10.1975 12.4382 11.0658 11.5699C11.9341 10.7016 12.422 9.52384 12.422 8.29583C12.422 7.06782 11.9341 5.8901 11.0658 5.02177C10.1975 4.15343 9.01976 3.6656 7.79175 3.6656ZM12.422 19.0781C12.4277 18.2632 12.7554 17.4836 13.3337 16.9093C13.912 16.3351 14.6938 16.0129 15.5088 16.0129H27.8561C28.6747 16.0129 29.4599 16.3381 30.0388 16.917C30.6177 17.4959 30.9429 18.281 30.9429 19.0997V28.3601C30.9427 29.3316 30.7906 30.2971 30.4922 31.2216C29.8087 33.3167 28.4007 35.0994 26.5211 36.2497C24.6414 37.4001 22.4132 37.8426 20.2366 37.498C18.0601 37.1533 16.0776 36.044 14.6454 34.3692C13.2131 32.6944 12.4248 30.5639 12.422 28.3601V19.0781ZM9.33516 19.0997C9.33516 17.973 9.63458 16.9204 10.1624 16.0129H3.16152C2.34285 16.0129 1.55771 16.3381 0.978815 16.917C0.399925 17.4959 0.0747075 18.281 0.0747075 19.0997V26.8167C0.0742871 28.0802 0.384086 29.3244 0.9769 30.4402C1.56971 31.5559 2.42741 32.509 3.47466 33.2158C4.52191 33.9226 5.72668 34.3615 6.98318 34.4939C8.23967 34.6263 9.50945 34.4481 10.681 33.9751C9.79256 32.2359 9.33121 30.31 9.33516 28.3571V19.0997ZM34.0297 19.0997V28.3601C34.0297 30.382 33.5451 32.2897 32.6838 33.9751C33.8554 34.4481 35.1252 34.6263 36.3817 34.4939C37.6382 34.3615 38.8429 33.9226 39.8902 33.2158C40.9374 32.509 41.7951 31.5559 42.3879 30.4402C42.9808 29.3244 43.2906 28.0802 43.2901 26.8167V19.0997C43.2901 18.281 42.9649 17.4959 42.386 16.917C41.8071 16.3381 41.022 16.0129 40.2033 16.0129H33.2024C33.7272 16.9204 34.0297 17.973 34.0297 19.0997Z" fill="#345CEB"/>
</svg>
