<svg width="39" height="39" viewBox="0 0 39 39" fill="none" xmlns="http://www.w3.org/2000/svg">
<path fill-rule="evenodd" clip-rule="evenodd" d="M31.9039 0.971872C29.1799 1.70745 28.28 1.97893 28.1438 2.10612C27.8417 2.38814 27.7347 2.67135 27.7743 3.08361C27.8051 3.40416 27.8546 3.49976 28.1158 3.74346C28.4127 4.02032 28.6041 4.07828 29.0619 4.02973C29.1441 4.02107 30.1422 3.76512 31.2799 3.461C32.4177 3.15688 33.3871 2.9081 33.4343 2.9081C33.5374 2.9081 33.2867 3.34867 32.5841 4.40182C28.9506 9.84865 23.1766 14.7885 16.7014 17.99C11.8678 20.3799 7.31096 21.6004 2.49223 21.7957C1.33266 21.8427 1.14124 21.8682 0.9658 21.9992C0.266741 22.5211 0.255837 23.4154 0.942722 23.8831C1.20196 24.0596 1.21637 24.0608 2.6605 24.0194C9.42568 23.8255 16.954 21.1326 23.5352 16.5525C25.7555 15.0073 27.6524 13.4077 29.699 11.3547C31.8334 9.2136 33.1659 7.59247 34.6296 5.35608C35.0623 4.69496 35.3834 4.27156 35.4051 4.33348C35.4254 4.39158 35.6627 5.27938 35.9324 6.3063C36.2021 7.33323 36.4711 8.28145 36.5301 8.41349C36.6511 8.68393 37.1077 9.01419 37.3894 9.03503C37.8714 9.07073 38.0103 9.02651 38.2882 8.7486C38.7854 8.25135 38.7957 8.33201 37.7188 4.30502C37.1552 2.19791 36.6956 0.6204 36.6058 0.485891C36.4234 0.21269 36.0193 -0.00621362 35.709 0.000134668C35.5857 0.00267398 33.8734 0.439959 31.9039 0.971872ZM30.2017 12.9206C30.031 13.0108 29.864 13.1826 29.7723 13.3625C29.6238 13.6536 29.6221 13.7839 29.6221 24.8254V35.9939H28.5018H27.3815V28.5597C27.3815 21.2563 27.3789 21.1203 27.2311 20.8307C27.1344 20.641 26.9757 20.4823 26.7859 20.3855C26.5081 20.2439 26.3493 20.2352 24.0206 20.2352C21.6919 20.2352 21.5331 20.2439 21.2553 20.3855C21.0655 20.4823 20.9069 20.641 20.8101 20.8307C20.6624 21.1203 20.6598 21.2563 20.6598 28.5597V35.9939H19.5395H18.4192V30.6135C18.4192 25.3686 18.4154 25.2258 18.2689 24.9385C18.1721 24.7487 18.0134 24.5901 17.8237 24.4933C17.5458 24.3516 17.387 24.3429 15.0583 24.3429C12.7296 24.3429 12.5709 24.3516 12.293 24.4933C12.1032 24.5901 11.9446 24.7487 11.8478 24.9385C11.7013 25.2258 11.6975 25.3686 11.6975 30.6135V35.9939H10.5772H9.4569V31.9579C9.4569 28.0603 9.45175 27.9118 9.30656 27.6272C9.20977 27.4374 9.05114 27.2787 8.86136 27.182C8.58353 27.0403 8.42474 27.0316 6.09604 27.0316C3.76734 27.0316 3.60856 27.0403 3.33073 27.182C3.14095 27.2787 2.98232 27.4374 2.88552 27.6272C2.74033 27.9118 2.73518 28.0603 2.73518 31.9579V35.9939H2.02268C1.45604 35.9939 1.24991 36.0247 1.01547 36.1443C0.684086 36.3133 0.419922 36.7436 0.419922 37.1142C0.419922 37.4848 0.684086 37.9151 1.01547 38.0841C1.30846 38.2336 1.41698 38.2345 19.5395 38.2345C37.662 38.2345 37.7705 38.2336 38.0635 38.0841C38.3949 37.9151 38.659 37.4848 38.659 37.1142C38.659 36.7436 38.3949 36.3133 38.0635 36.1443C37.8291 36.0247 37.6229 35.9939 37.0563 35.9939H36.3438V24.8254C36.3438 13.7794 36.3421 13.6537 36.1934 13.3622C36.0967 13.1724 35.938 13.0138 35.7482 12.917C35.4699 12.775 35.3153 12.7668 32.9672 12.7699C30.6395 12.773 30.4631 12.7826 30.2017 12.9206Z" fill="#345CEB"/>
</svg>
