<svg width="39" height="39" viewBox="0 0 39 39" fill="none" xmlns="http://www.w3.org/2000/svg">
<path fill-rule="evenodd" clip-rule="evenodd" d="M7.82838 0.0995705C7.36488 0.336028 7.25447 0.591548 7.22613 1.49335L7.20079 2.29699H4.24713C0.982479 2.29699 0.952277 2.30095 0.615197 2.77342C0.450282 3.00464 0.448264 3.03985 0.427332 6.01616L0.40625 9.02514H18.3902H36.3742L36.3531 6.01616C36.3322 3.03985 36.3302 3.00464 36.1653 2.77342C35.8286 2.30147 35.7948 2.29699 32.5641 2.29699H29.6412V1.57939C29.6412 0.759752 29.5346 0.447416 29.1648 0.183598C28.8385 -0.049047 28.2012 -0.049047 27.8749 0.183598C27.5051 0.447416 27.3985 0.759752 27.3985 1.57939V2.29699H25.1558H22.9131V1.57939C22.9131 0.759752 22.8065 0.447416 22.4366 0.183598C22.1104 -0.049047 21.473 -0.049047 21.1468 0.183598C20.7769 0.447416 20.6703 0.759752 20.6703 1.57939V2.29699H18.4276H16.1849V1.57939C16.1849 0.759752 16.0783 0.447416 15.7085 0.183598C15.3822 -0.049047 14.7449 -0.049047 14.4186 0.183598C14.0488 0.447416 13.9422 0.759752 13.9422 1.57939V2.29699H11.6995H9.45674V1.57939C9.45674 0.764761 9.34984 0.447042 8.98944 0.190401C8.69228 -0.0211626 8.14849 -0.0636995 7.82838 0.0995705ZM9.45674 4.09856C9.45674 6.09548 9.4249 6.26114 8.98031 6.57834C8.65407 6.81098 8.01669 6.81098 7.69045 6.57834C7.24587 6.26114 7.21402 6.09548 7.21402 4.09856V2.29699H8.33538H9.45674V4.09856ZM16.1849 4.09856C16.1849 6.09548 16.1531 6.26114 15.7085 6.57834C15.3822 6.81098 14.7449 6.81098 14.4186 6.57834C13.974 6.26114 13.9422 6.09548 13.9422 4.09856V2.29699H15.0635H16.1849V4.09856ZM22.9131 4.09856C22.9131 6.09548 22.8812 6.26114 22.4366 6.57834C22.1104 6.81098 21.473 6.81098 21.1468 6.57834C20.7022 6.26114 20.6703 6.09548 20.6703 4.09856V2.29699H21.7917H22.9131V4.09856ZM29.6412 4.09856C29.6412 6.09548 29.6094 6.26114 29.1648 6.57834C28.8385 6.81098 28.2012 6.81098 27.8749 6.57834C27.4303 6.26114 27.3985 6.09548 27.3985 4.09856V2.29699H28.5199H29.6412V4.09856ZM0.411109 22.0359C0.411109 32.6804 0.412829 32.8073 0.561596 33.0989C0.658481 33.2889 0.817266 33.4477 1.00722 33.5446C1.29751 33.6927 1.4317 33.6951 9.41637 33.6951C13.8792 33.6951 17.5305 33.6829 17.5305 33.6681C17.5305 33.6533 17.3986 33.3557 17.2373 33.0066C16.6434 31.7209 16.2894 30.2023 16.2131 28.6116C16.1592 27.4896 16.2328 26.7466 16.5307 25.407L16.7196 24.5573L16.5318 24.3604C16.1617 23.9724 16.0964 23.5461 16.3354 23.0776C16.508 22.7392 16.9369 22.4815 17.3273 22.4815C17.5649 22.4815 17.598 22.4468 17.9379 21.8412C18.1355 21.4891 18.4444 21.0012 18.6241 20.757C18.8039 20.5129 18.9509 20.2964 18.9509 20.2759C18.9509 20.2555 18.5291 20.2387 18.0135 20.2387C16.8964 20.2387 16.5827 20.1273 16.3354 19.6426C16.1448 19.269 16.1448 18.9658 16.3354 18.5921C16.6019 18.0698 16.8575 17.996 18.401 17.996C19.5941 17.996 19.7583 18.0116 20.0502 18.1529C20.2284 18.2392 20.4179 18.3931 20.4713 18.4949L20.5681 18.6799L20.937 18.3896C21.8609 17.6625 22.8461 17.0957 23.9823 16.6376C25.0615 16.2025 25.9863 15.9836 27.5106 15.8023C27.634 15.7877 27.3551 15.7706 26.8909 15.7645C25.8755 15.7511 25.5445 15.6242 25.3063 15.1572C25.1156 14.7835 25.1156 14.4803 25.3063 14.1067C25.5738 13.5823 25.8255 13.5106 27.3985 13.5106C28.6056 13.5106 28.7817 13.5267 29.0451 13.6611C29.3768 13.8303 29.6412 14.261 29.6412 14.6319C29.6412 14.9914 29.3766 15.4325 29.061 15.5992C28.8058 15.7339 28.7977 15.7472 28.9684 15.7523C29.5106 15.7687 30.9645 15.9907 31.5999 16.1543C33.1172 16.5447 34.6419 17.2763 35.8591 18.1981C36.0924 18.3747 36.3026 18.5193 36.3263 18.5193C36.35 18.5193 36.3694 16.8877 36.3694 14.8936V11.2679H18.3902H0.411109V22.0359ZM11.1033 13.6611C11.435 13.8303 11.6995 14.261 11.6995 14.6319C11.6995 15.0029 11.435 15.4336 11.1033 15.6028C10.8399 15.7372 10.6638 15.7533 9.45674 15.7533C7.88377 15.7533 7.63207 15.6816 7.36451 15.1572C7.17395 14.7836 7.17388 14.4803 7.36436 14.107C7.63162 13.5831 7.8606 13.5177 9.44104 13.5139C10.6677 13.511 10.8386 13.5261 11.1033 13.6611ZM20.0742 13.6611C20.4059 13.8303 20.6703 14.261 20.6703 14.6319C20.6703 15.0029 20.4059 15.4336 20.0742 15.6028C19.8108 15.7372 19.6347 15.7533 18.4276 15.7533C16.8547 15.7533 16.6029 15.6816 16.3354 15.1572C16.1448 14.7836 16.1448 14.4803 16.3352 14.107C16.6025 13.5831 16.8315 13.5177 18.4119 13.5139C19.6386 13.511 19.8095 13.5261 20.0742 13.6611ZM11.1033 18.1465C11.435 18.3158 11.6995 18.7464 11.6995 19.1174C11.6995 19.4883 11.435 19.919 11.1033 20.0883C10.8399 20.2227 10.6638 20.2387 9.45674 20.2387C7.88377 20.2387 7.63207 20.167 7.36451 19.6426C7.17395 19.2691 7.17388 18.9658 7.36436 18.5924C7.63162 18.0685 7.8606 18.0031 9.44104 17.9993C10.6677 17.9964 10.8386 18.0115 11.1033 18.1465ZM27.1742 18.1853C25.0294 18.4848 23.0662 19.4752 21.4865 21.0549C18.0763 24.4651 17.5441 29.7086 20.2 33.7298C20.8566 34.7239 22.0337 35.9011 23.0278 36.5577C24.946 37.8246 27.2863 38.4147 29.5155 38.1936C31.9257 37.9545 33.9982 36.9756 35.7027 35.2711C37.4072 33.5666 38.3861 31.4941 38.6252 29.0839C39.096 24.3372 36.0143 19.832 31.3674 18.4735C30.0719 18.0948 28.5646 17.9912 27.1742 18.1853ZM11.1033 22.6319C11.435 22.8012 11.6995 23.2319 11.6995 23.6028C11.6995 23.9738 11.435 24.4044 11.1033 24.5737C10.8399 24.7081 10.6638 24.7242 9.45674 24.7242C7.88377 24.7242 7.63207 24.6525 7.36451 24.1281C7.17395 23.7545 7.17388 23.4512 7.36436 23.0779C7.63162 22.554 7.8606 22.4886 9.44104 22.4847C10.6677 22.4818 10.8386 22.4969 11.1033 22.6319ZM29.1199 22.7067C29.3098 22.8036 29.4686 22.9624 29.5655 23.1523C29.7039 23.4238 29.716 23.5909 29.716 25.2445V27.0417H31.5131C33.1668 27.0417 33.3339 27.0537 33.6053 27.1921C33.937 27.3614 34.2014 27.7921 34.2014 28.163C34.2014 28.534 33.937 28.9646 33.6053 29.1339C33.3272 29.2757 33.1683 29.2844 30.8373 29.2844C28.5064 29.2844 28.3475 29.2757 28.0694 29.1339C27.8794 29.037 27.7206 28.8782 27.6237 28.6883C27.4819 28.4102 27.4733 28.2512 27.4733 25.9203C27.4733 23.5903 27.4819 23.4303 27.6236 23.1526C27.8999 22.6111 28.5517 22.4169 29.1199 22.7067ZM11.1033 27.1174C11.435 27.2866 11.6995 27.7173 11.6995 28.0883C11.6995 28.4592 11.435 28.8899 11.1033 29.0591C10.8399 29.1935 10.6638 29.2096 9.45674 29.2096C7.88377 29.2096 7.63207 29.1379 7.36451 28.6135C7.17395 28.2399 7.17388 27.9366 7.36436 27.5633C7.63162 27.0394 7.8606 26.974 9.44104 26.9702C10.6677 26.9673 10.8386 26.9824 11.1033 27.1174Z" fill="#345CEB"/>
</svg>
