<svg width="39" height="39" viewBox="0 0 39 39" fill="none" xmlns="http://www.w3.org/2000/svg">
<path fill-rule="evenodd" clip-rule="evenodd" d="M18.063 0.0382584C14.5658 0.373446 11.6175 1.38648 8.94949 3.16979C6.07245 5.09274 3.84921 7.626 2.33078 10.7114C1.38305 12.6373 0.808463 14.5265 0.490237 16.7636C0.365233 17.6424 0.365233 20.5921 0.490237 21.4709C0.803308 23.6717 1.38499 25.5996 2.29379 27.4484C3.32199 29.54 4.32912 30.9453 5.99183 32.608C7.63639 34.2525 9.06351 35.2795 11.0768 36.2671C12.4816 36.9562 13.3886 37.2916 14.8127 37.6489C18.5497 38.5862 22.2976 38.4064 25.9487 37.1148C27.0554 36.7234 28.9873 35.7551 29.9806 35.0942C32.2135 33.6084 34.2634 31.507 35.7262 29.2042C36.2643 28.357 37.1293 26.5695 37.4821 25.5753C38.8508 21.7185 38.9685 17.6378 37.8244 13.7002C37.6447 13.0815 37.0046 11.3594 36.9245 11.2794C36.9056 11.2605 36.277 11.8507 35.5275 12.591C34.778 13.3312 34.0549 14.0005 33.9205 14.0783C33.7687 14.1663 33.6915 14.2598 33.7167 14.3255C33.8724 14.7311 34.1499 15.8601 34.2794 16.6142C35.4051 23.1739 32.0077 29.725 25.9672 32.6422C21.8414 34.6347 17.0504 34.6228 12.9448 32.61C9.83348 31.0846 7.4528 28.6976 5.96015 25.6069C3.97556 21.4975 3.97556 16.737 5.96015 12.6277C8.56693 7.23006 14.0951 3.89157 20.043 4.12297C21.26 4.17027 22.766 4.41482 23.776 4.72916C24.1031 4.83093 24.3741 4.90729 24.3783 4.89877C24.506 4.63965 25.1824 3.88297 26.128 2.94159C26.7881 2.28452 27.3281 1.72607 27.3281 1.7006C27.3281 1.67512 27.0507 1.54421 26.7116 1.40964C24.2403 0.429111 21.8438 -0.0282411 19.3332 0.00134743C18.7784 0.00784793 18.2068 0.0245102 18.063 0.0382584ZM31.7764 0.666043C31.4526 0.762729 26.3766 5.84934 26.2888 6.1651C26.246 6.31902 26.2829 7.09691 26.3951 8.40665L26.5668 10.4125L22.5836 14.41C20.3929 16.6086 18.5467 18.515 18.4811 18.6465C18.0259 19.5593 19.0406 20.574 19.9534 20.1188C20.0849 20.0532 21.9913 18.2072 24.1899 16.0165L28.1873 12.0335L30.163 12.2019C31.3544 12.3035 32.2422 12.347 32.3994 12.3116C32.6102 12.2641 33.157 11.7562 35.2632 9.65154C38.0864 6.83047 38.1041 6.80753 37.94 6.19775C37.8502 5.86428 37.46 5.48135 37.1404 5.41291C37.0244 5.38803 36.179 5.30404 35.2618 5.22626C34.3446 5.14848 33.5767 5.06741 33.5554 5.04612C33.5341 5.02482 33.4531 4.27338 33.3754 3.37631C33.2977 2.47916 33.2149 1.63522 33.1915 1.5008C33.1332 1.16778 32.7549 0.756602 32.4215 0.664026C32.1065 0.57653 32.0759 0.57668 31.7764 0.666043ZM18.063 6.41802C14.2215 6.88897 10.8465 8.97945 8.77906 12.1684C6.02314 16.4195 6.02284 21.8075 8.77831 26.0661C9.72596 27.5308 11.0607 28.8651 12.5338 29.8206C17.7292 33.1904 24.573 32.3562 28.7835 27.84C31.9724 24.4194 33.0558 19.6624 31.6507 15.2506C31.5296 14.8704 31.3901 14.558 31.3407 14.5564C31.2912 14.5546 30.7464 14.5072 30.13 14.4509L29.0092 14.3487L28.1157 15.2359L27.2222 16.1231L27.3816 16.6302C27.6679 17.5402 27.7349 18.0122 27.7349 19.1173C27.7349 20.2537 27.6678 20.7055 27.3518 21.695C26.5709 24.141 24.5179 26.1934 22.0604 26.9848C21.0764 27.3017 20.6219 27.3695 19.4826 27.3695C18.3453 27.3695 17.8926 27.3022 16.9048 26.9859C14.458 26.2025 12.4056 24.1496 11.6151 21.695C11.2982 20.711 11.2303 20.2565 11.2303 19.1173C11.2303 17.9779 11.2982 17.5234 11.6151 16.5395C12.2592 14.54 13.7576 12.7625 15.6197 11.7892C17.5839 10.7624 19.9031 10.5527 21.9697 11.2152L22.4768 11.3777L23.364 10.4842L24.2512 9.59064L24.1489 8.46987C24.0927 7.85344 24.0452 7.30867 24.0435 7.2592C24.0394 7.13831 22.8491 6.76404 21.8363 6.56522C20.897 6.38081 18.9774 6.30587 18.063 6.41802ZM18.6234 13.1136C17.609 13.2757 16.4209 13.8066 15.6595 14.4382C14.9731 15.0074 14.4521 15.67 14.0654 16.4647C13.5781 17.4664 13.4748 17.9302 13.4748 19.1173C13.4748 20.3031 13.5778 20.7663 14.0643 21.7698C14.6563 22.9907 15.6021 23.9348 16.8432 24.5437C19.8265 26.0071 23.4608 24.7557 24.8988 21.7698C25.3737 20.7836 25.4944 20.2377 25.496 19.0674C25.4969 18.5263 25.4715 18.0577 25.4399 18.026C25.4082 17.9943 24.4835 18.8608 23.3851 19.9515C21.1925 22.1286 21.035 22.2438 20.0122 22.4192C18.9574 22.6 17.9106 22.2576 17.1236 21.4742C16.3402 20.6943 15.9987 19.649 16.1807 18.5877C16.3561 17.5649 16.4713 17.4074 18.6484 15.2148C19.7391 14.1163 20.6095 13.1957 20.5828 13.169C20.5229 13.1091 18.9328 13.0642 18.6234 13.1136Z" fill="#345CEB"/>
</svg>
