<svg width="30" height="30" viewBox="0 0 30 30" fill="none" xmlns="http://www.w3.org/2000/svg">
<rect y="0.0241699" width="29.9316" height="29.9316" rx="6.83371" fill="#EBEBEB"/>
<g clip-path="url(#clip0_1408_11005)">
<path d="M13.4688 6.84229C12.3378 6.84185 11.2263 7.13721 10.2448 7.69904C9.26316 8.26088 8.44556 9.06967 7.87312 10.0451C7.30068 11.0206 6.9933 12.1288 6.98148 13.2597C6.96966 14.3907 7.25382 15.505 7.80576 16.4922L7.01257 18.5695C6.94655 18.7422 6.9298 18.9298 6.9642 19.1114C6.99859 19.2931 7.08278 19.4616 7.20736 19.5982C7.33194 19.7348 7.49202 19.834 7.66974 19.885C7.84745 19.9359 8.03582 19.9364 8.21383 19.8865L10.6952 19.1911C11.5741 19.6064 12.5352 19.8188 13.5073 19.8125C14.4794 19.8063 15.4376 19.5816 16.3112 19.1551C17.1847 18.7285 17.9512 18.1111 18.5539 17.3484C19.1566 16.5856 19.5802 15.6972 19.7932 14.7487C20.0063 13.8002 20.0033 12.816 19.7847 11.8688C19.566 10.9216 19.1372 10.0356 18.53 9.2765C17.9228 8.51737 17.1526 7.90446 16.2766 7.48311C15.4005 7.06177 14.4409 6.84276 13.4688 6.84229ZM13.4608 10.7344C13.1037 10.8042 12.7125 11.0357 12.4053 11.5785C12.3729 11.6355 12.3296 11.6855 12.2779 11.7258C12.2262 11.7661 12.1671 11.7958 12.1039 11.8132C12.0407 11.8306 11.9747 11.8354 11.9097 11.8273C11.8446 11.8192 11.7818 11.7984 11.7248 11.766C11.6678 11.7337 11.6177 11.6904 11.5775 11.6387C11.5372 11.587 11.5075 11.5278 11.4901 11.4647C11.4727 11.4015 11.4679 11.3355 11.476 11.2704C11.4841 11.2054 11.5049 11.1426 11.5372 11.0856C11.9772 10.3114 12.6028 9.88533 13.2693 9.75563C13.8894 9.63841 14.5308 9.76762 15.0572 10.1158C15.5401 10.4351 15.9302 10.9569 15.9422 11.5825C15.9551 12.236 15.5581 12.8256 14.8257 13.2586C14.3289 13.552 14.1353 13.7515 14.0525 13.8842C13.9826 13.9959 13.9677 14.0977 13.9677 14.3252C13.9677 14.4575 13.9151 14.5844 13.8216 14.6779C13.728 14.7715 13.6011 14.8241 13.4688 14.8241C13.3365 14.8241 13.2096 14.7715 13.1161 14.6779C13.0225 14.5844 12.97 14.4575 12.97 14.3252C12.97 14.0538 12.9839 13.7166 13.2064 13.3574C13.4159 13.0212 13.7741 12.7219 14.3189 12.3996C14.8527 12.0833 14.9494 11.783 14.9464 11.6034C14.9425 11.3969 14.8048 11.1445 14.5075 10.9479C14.1996 10.7443 13.8249 10.6677 13.4618 10.7344H13.4608ZM13.7173 17.3184C13.5188 17.3184 13.3285 17.2395 13.1881 17.0992C13.0478 16.9589 12.969 16.7685 12.969 16.5701C12.969 16.3716 13.0478 16.1813 13.1881 16.0409C13.3285 15.9006 13.5188 15.8218 13.7173 15.8218C13.9157 15.8218 14.106 15.9006 14.2464 16.0409C14.3867 16.1813 14.4655 16.3716 14.4655 16.5701C14.4655 16.7685 14.3867 16.9589 14.2464 17.0992C14.106 17.2395 13.9157 17.3184 13.7173 17.3184ZM11.5083 20.551C12.1165 21.2592 12.8708 21.8274 13.7193 22.2166C14.5678 22.6059 15.4905 22.8069 16.4241 22.8058C17.4148 22.8058 18.3557 22.5833 19.1977 22.1842L21.6781 22.8797C21.8561 22.9296 22.0444 22.929 22.2222 22.8781C22.3999 22.8272 22.56 22.7279 22.6845 22.5913C22.8091 22.4548 22.8933 22.2862 22.9277 22.1046C22.9621 21.923 22.9453 21.7353 22.8793 21.5627L22.0861 19.4854C22.6271 18.5184 22.9106 17.4287 22.9093 16.3206C22.9093 14.3851 22.0612 12.647 20.7153 11.4587C20.8628 12.0334 20.9415 12.6235 20.9497 13.2167C21.5563 14.0997 21.9115 15.1693 21.9115 16.3206C21.9115 17.3682 21.6182 18.347 21.1084 19.1801L20.9807 19.3896L21.9485 21.9188L19.095 21.1207L18.9204 21.2085C18.1721 21.5916 17.324 21.8081 16.4241 21.8081C15.2926 21.8098 14.1885 21.4602 13.2643 20.8074C12.6709 20.7919 12.0814 20.7058 11.5083 20.551Z" fill="#345CEB"/>
</g>
<defs>
<clipPath id="clip0_1408_11005">
<rect width="16.6287" height="16.6287" fill="white" transform="translate(6.65186 6.67578)"/>
</clipPath>
</defs>
</svg>
