<svg width="36" height="36" viewBox="0 0 36 36" fill="none" xmlns="http://www.w3.org/2000/svg">
<rect width="36" height="36" rx="8.21918" fill="#EBEBEB"/>
<g clip-path="url(#clip0_1376_8130)">
<path d="M14.9999 9.29999C15.159 9.29999 15.3116 9.3632 15.4242 9.47572C15.5367 9.58825 15.5999 9.74086 15.5999 9.89999V11.1H17.9999V9.89999C17.9999 9.74086 18.0631 9.58825 18.1756 9.47572C18.2882 9.3632 18.4408 9.29999 18.5999 9.29999C18.759 9.29999 18.9116 9.3632 19.0242 9.47572C19.1367 9.58825 19.1999 9.74086 19.1999 9.89999V11.1H21.8291C22.0519 11.1001 22.2703 11.1622 22.4597 11.2795C22.6492 11.3967 22.8023 11.5643 22.9019 11.7636L23.7719 13.5H25.1999C25.8364 13.5 26.4469 13.7528 26.897 14.2029C27.347 14.653 27.5999 15.2635 27.5999 15.9V21.9C27.5999 22.5365 27.347 23.147 26.897 23.597C26.4469 24.0471 25.8364 24.3 25.1999 24.3H23.7707L22.9019 26.0364C22.8023 26.2357 22.6492 26.4033 22.4597 26.5205C22.2703 26.6377 22.0519 26.6999 21.8291 26.7H15.2483C14.9301 26.6999 14.6249 26.5734 14.3999 26.3484L11.5031 23.4516C11.053 23.0016 10.8 22.3913 10.7999 21.7548V18.3H9.5999V21.3C9.5999 21.4591 9.53669 21.6117 9.42417 21.7243C9.31164 21.8368 9.15903 21.9 8.9999 21.9C8.84077 21.9 8.68816 21.8368 8.57564 21.7243C8.46312 21.6117 8.3999 21.4591 8.3999 21.3V14.1C8.3999 13.9409 8.46312 13.7882 8.57564 13.6757C8.68816 13.5632 8.84077 13.5 8.9999 13.5C9.15903 13.5 9.31164 13.5632 9.42417 13.6757C9.53669 13.7882 9.5999 13.9409 9.5999 14.1V17.1H10.7999V13.5C10.7999 12.8635 11.0528 12.253 11.5028 11.8029C11.9529 11.3528 12.5634 11.1 13.1999 11.1H14.3999V9.89999C14.3999 9.74086 14.4631 9.58825 14.5756 9.47572C14.6882 9.3632 14.8408 9.29999 14.9999 9.29999ZM14.9999 14.7C14.8408 14.7 14.6882 14.7632 14.5756 14.8757C14.4631 14.9882 14.3999 15.1409 14.3999 15.3V18.3C14.3999 18.9365 14.6528 19.547 15.1028 19.997C15.5529 20.4471 16.1634 20.7 16.7999 20.7H23.3999C23.559 20.7 23.7116 20.6368 23.8242 20.5243C23.9367 20.4117 23.9999 20.2591 23.9999 20.1C23.9999 19.9409 23.9367 19.7882 23.8242 19.6757C23.7116 19.5632 23.559 19.5 23.3999 19.5H19.1999V15.3C19.1999 15.1409 19.1367 14.9882 19.0242 14.8757C18.9116 14.7632 18.759 14.7 18.5999 14.7C18.4408 14.7 18.2882 14.7632 18.1756 14.8757C18.0631 14.9882 17.9999 15.1409 17.9999 15.3V19.5H16.7999C16.4816 19.5 16.1764 19.3736 15.9514 19.1485C15.7263 18.9235 15.5999 18.6182 15.5999 18.3V15.3C15.5999 15.1409 15.5367 14.9882 15.4242 14.8757C15.3116 14.7632 15.159 14.7 14.9999 14.7Z" fill="#345CEB"/>
</g>
<defs>
<clipPath id="clip0_1376_8130">
<rect width="20" height="18" fill="white" transform="translate(8 9)"/>
</clipPath>
</defs>
</svg>
