<svg width="22" height="25" viewBox="0 0 22 25" fill="none" xmlns="http://www.w3.org/2000/svg">
<path d="M1.9952 0V22.484H0.746094V24.9822H5.74253V22.484H4.49342V16.2384H20.7318C21.0631 16.2384 21.3808 16.1068 21.6151 15.8726C21.8493 15.6383 21.9809 15.3206 21.9809 14.9893V2.49822C21.9809 2.16693 21.8493 1.84922 21.6151 1.61496C21.3808 1.38071 21.0631 1.24911 20.7318 1.24911H4.49342V0H1.9952ZM6.99164 3.74733V6.24554H9.48985V3.74733H11.9881V6.24554H14.4863V3.74733H16.9845V6.24554H19.4827V8.74376H16.9845V11.242H19.4827V13.7402H16.9845V11.242H14.4863V13.7402H11.9881V11.242H9.48985V13.7402H6.99164V11.242H4.49342V8.74376H6.99164V6.24554H4.49342V3.74733H6.99164Z" fill="white"/>
<path d="M6.98828 8.74138H9.4865V11.2396H6.98828V8.74138ZM11.9847 8.74138H14.4829V11.2396H11.9847V8.74138ZM9.4865 6.24316H11.9847V8.74138H9.4865V6.24316ZM14.4829 6.24316H16.9811V8.74138H14.4829V6.24316Z" fill="white"/>
</svg>
