<svg width="36" height="36" viewBox="0 0 36 36" fill="none" xmlns="http://www.w3.org/2000/svg">
<rect width="36" height="36" rx="8.21918" fill="#EBEBEB"/>
<g clip-path="url(#clip0_1376_8087)">
<path d="M16.1998 8.19995C14.8395 8.19943 13.5027 8.55466 12.3221 9.23041C11.1415 9.90616 10.1581 10.8789 9.46962 12.0521C8.78112 13.2253 8.41142 14.5582 8.39721 15.9185C8.38299 17.2787 8.72477 18.619 9.3886 19.8064L8.4346 22.3048C8.3552 22.5124 8.33505 22.7381 8.37642 22.9566C8.41779 23.175 8.51904 23.3777 8.66888 23.542C8.81872 23.7063 9.01125 23.8257 9.225 23.8869C9.43875 23.9481 9.66531 23.9488 9.8794 23.8888L12.8638 23.0524C13.9209 23.5518 15.0768 23.8073 16.246 23.7998C17.4152 23.7923 18.5677 23.522 19.6184 23.009C20.669 22.496 21.5909 21.7534 22.3158 20.836C23.0408 19.9187 23.5502 18.8501 23.8064 17.7093C24.0626 16.5685 24.0591 15.3847 23.7961 14.2455C23.5332 13.1063 23.0174 12.0407 22.2871 11.1277C21.5567 10.2146 20.6305 9.47747 19.5768 8.9707C18.5231 8.46393 17.369 8.20052 16.1998 8.19995ZM16.1902 12.8812C15.7606 12.9652 15.2902 13.2436 14.9206 13.8964C14.8817 13.9649 14.8296 14.0251 14.7674 14.0736C14.7052 14.122 14.6341 14.1577 14.5581 14.1786C14.4821 14.1996 14.4028 14.2054 14.3245 14.1956C14.2463 14.1859 14.1708 14.1609 14.1022 14.122C14.0337 14.083 13.9734 14.031 13.925 13.9688C13.8766 13.9066 13.8409 13.8355 13.8199 13.7595C13.799 13.6835 13.7932 13.6041 13.8029 13.5259C13.8126 13.4476 13.8377 13.3721 13.8766 13.3036C14.4058 12.3724 15.1582 11.86 15.9598 11.704C16.7057 11.563 17.4771 11.7184 18.1102 12.1372C18.691 12.5212 19.1602 13.1488 19.1746 13.9012C19.1902 14.6872 18.7126 15.3964 17.8318 15.9172C17.2342 16.27 17.0014 16.51 16.9018 16.6696C16.8178 16.804 16.7998 16.9264 16.7998 17.2C16.7998 17.3591 16.7366 17.5117 16.6241 17.6242C16.5115 17.7367 16.3589 17.8 16.1998 17.8C16.0407 17.8 15.8881 17.7367 15.7755 17.6242C15.663 17.5117 15.5998 17.3591 15.5998 17.2C15.5998 16.8736 15.6166 16.468 15.8842 16.036C16.1362 15.6316 16.567 15.2716 17.2222 14.884C17.8642 14.5036 17.9806 14.1424 17.977 13.9264C17.9722 13.678 17.8066 13.3744 17.449 13.138C17.0788 12.893 16.628 12.801 16.1914 12.8812H16.1902ZM16.4986 20.8C16.2599 20.8 16.031 20.7051 15.8622 20.5363C15.6934 20.3676 15.5986 20.1386 15.5986 19.9C15.5986 19.6613 15.6934 19.4323 15.8622 19.2636C16.031 19.0948 16.2599 19 16.4986 19C16.7373 19 16.9662 19.0948 17.135 19.2636C17.3038 19.4323 17.3986 19.6613 17.3986 19.9C17.3986 20.1386 17.3038 20.3676 17.135 20.5363C16.9662 20.7051 16.7373 20.8 16.4986 20.8ZM13.8418 24.688C14.5733 25.5398 15.4805 26.2232 16.5011 26.6913C17.5216 27.1595 18.6314 27.4012 19.7542 27.4C20.9458 27.4 22.0774 27.1324 23.0902 26.6524L26.0734 27.4888C26.2875 27.5488 26.5141 27.5481 26.7278 27.4869C26.9415 27.4257 27.1341 27.3063 27.2839 27.142C27.4338 26.9777 27.535 26.775 27.5764 26.5566C27.6177 26.3381 27.5976 26.1124 27.5182 25.9048L26.5642 23.4064C27.2149 22.2433 27.5558 20.9326 27.5542 19.6C27.5542 17.272 26.5342 15.1816 24.9154 13.7524C25.0929 14.4435 25.1876 15.1533 25.1974 15.8668C25.927 16.9288 26.3542 18.2152 26.3542 19.6C26.3542 20.86 26.0014 22.0372 25.3882 23.0392L25.2346 23.2912L26.3986 26.3332L22.9666 25.3732L22.7566 25.4788C21.8566 25.9396 20.8366 26.2 19.7542 26.2C18.3933 26.202 17.0654 25.7815 15.9538 24.9964C15.2401 24.9777 14.5311 24.8742 13.8418 24.688Z" fill="#345CEB"/>
</g>
<defs>
<clipPath id="clip0_1376_8087">
<rect width="20" height="20" fill="white" transform="translate(8 8)"/>
</clipPath>
</defs>
</svg>
