<svg width="36" height="36" viewBox="0 0 36 36" fill="none" xmlns="http://www.w3.org/2000/svg">
<rect width="36" height="36" rx="8.21918" fill="#EBEBEB"/>
<g clip-path="url(#clip0_1376_8102)">
<path d="M11.6748 24.9H16.8498V22.6C16.8498 22.1963 16.9561 21.7996 17.158 21.45C17.3598 21.1004 17.6502 20.81 17.9998 20.6082C18.3495 20.4063 18.7461 20.3 19.1498 20.3C19.5535 20.3 19.9502 20.4063 20.2998 20.6082V18C20.2998 17.39 20.5421 16.805 20.9735 16.3736C21.4048 15.9423 21.9898 15.7 22.5998 15.7C23.2098 15.7 23.7948 15.9423 24.2261 16.3736C24.6575 16.805 24.8998 17.39 24.8998 18V13.4H8.7998V22.025C8.7998 22.7875 9.10271 23.5188 9.64187 24.0579C10.181 24.5971 10.9123 24.9 11.6748 24.9ZM22.0248 8.79999C22.7873 8.79999 23.5186 9.10289 24.0577 9.64206C24.5969 10.1812 24.8998 10.9125 24.8998 11.675V12.25H8.7998V11.675C8.7998 10.9125 9.10271 10.1812 9.64187 9.64206C10.181 9.10289 10.9123 8.79999 11.6748 8.79999H22.0248ZM22.5998 16.85C22.2948 16.85 22.0023 16.9711 21.7866 17.1868C21.571 17.4025 21.4498 17.695 21.4498 18V26.05C21.4498 26.355 21.571 26.6475 21.7866 26.8632C22.0023 27.0788 22.2948 27.2 22.5998 27.2C22.9048 27.2 23.1973 27.0788 23.413 26.8632C23.6286 26.6475 23.7498 26.355 23.7498 26.05V18C23.7498 17.695 23.6286 17.4025 23.413 17.1868C23.1973 16.9711 22.9048 16.85 22.5998 16.85ZM19.1498 21.45C18.8448 21.45 18.5523 21.5711 18.3366 21.7868C18.121 22.0025 17.9998 22.295 17.9998 22.6V26.05C17.9998 26.355 18.121 26.6475 18.3366 26.8632C18.5523 27.0788 18.8448 27.2 19.1498 27.2C19.4548 27.2 19.7473 27.0788 19.963 26.8632C20.1786 26.6475 20.2998 26.355 20.2998 26.05V22.6C20.2998 22.295 20.1786 22.0025 19.963 21.7868C19.7473 21.5711 19.4548 21.45 19.1498 21.45ZM24.8998 20.3C24.8998 19.995 25.021 19.7025 25.2366 19.4868C25.4523 19.2711 25.7448 19.15 26.0498 19.15C26.3548 19.15 26.6473 19.2711 26.863 19.4868C27.0786 19.7025 27.1998 19.995 27.1998 20.3V26.05C27.1998 26.355 27.0786 26.6475 26.863 26.8632C26.6473 27.0788 26.3548 27.2 26.0498 27.2C25.7448 27.2 25.4523 27.0788 25.2366 26.8632C25.021 26.6475 24.8998 26.355 24.8998 26.05V20.3Z" fill="#345CEB"/>
</g>
<defs>
<clipPath id="clip0_1376_8102">
<rect width="20" height="19" fill="white" transform="translate(8 8.34998)"/>
</clipPath>
</defs>
</svg>
