<svg width="36" height="36" viewBox="0 0 36 36" fill="none" xmlns="http://www.w3.org/2000/svg">
<rect width="36" height="36" rx="8.21918" fill="#EBEBEB"/>
<g clip-path="url(#clip0_1376_8126)">
<path d="M16.3957 10.8958C16.578 10.8958 16.7529 10.9682 16.8818 11.0972C17.0107 11.2261 17.0832 11.401 17.0832 11.5833V18.9166H24.4165C24.5826 18.9166 24.7432 18.9768 24.8684 19.086C24.9936 19.1952 25.075 19.346 25.0976 19.5106L25.104 19.6041C25.104 24.16 21.4098 27.3958 16.854 27.3958C14.666 27.3958 12.5675 26.5266 11.0204 24.9794C9.4732 23.4322 8.604 21.3338 8.604 19.1458C8.604 14.59 11.8398 10.8958 16.3957 10.8958ZM19.1457 8.60413C21.3337 8.60413 23.4321 9.47332 24.9793 11.0205C26.5265 12.5677 27.3957 14.6661 27.3957 16.8541C27.3957 17.0365 27.3232 17.2113 27.1943 17.3403C27.0654 17.4692 26.8905 17.5416 26.7082 17.5416H19.1457C18.9633 17.5416 18.7885 17.4692 18.6595 17.3403C18.5306 17.2113 18.4582 17.0365 18.4582 16.8541V9.29163C18.4582 9.10929 18.5306 8.93442 18.6595 8.80549C18.7885 8.67656 18.9633 8.60413 19.1457 8.60413Z" fill="#345CEB"/>
</g>
<defs>
<clipPath id="clip0_1376_8126">
<rect width="20" height="20" fill="white" transform="translate(8 8)"/>
</clipPath>
</defs>
</svg>
