<svg width="104" height="27" viewBox="0 0 104 27" fill="none" xmlns="http://www.w3.org/2000/svg">
<path d="M37.3812 6.19162C35.9641 6.19162 34.1936 6.84968 33.995 8.26509L33.1047 14.5999C32.9499 15.7057 32.2144 16.8972 31.0228 16.8972C29.8313 16.8972 29.6815 15.6484 29.8212 14.6555L30.7199 8.26341C30.9185 6.84631 30.3732 6.18994 28.9561 6.18994C27.539 6.18994 25.7685 6.848 25.5699 8.26341L24.6712 14.6555C24.0855 18.826 25.0481 20.8658 28.3115 20.8658C30.0265 20.8658 31.4924 19.9334 32.5325 18.6812L32.5173 18.7923C32.3187 20.2094 32.8438 20.8658 34.2609 20.8658C35.678 20.8658 37.4687 20.2094 37.669 18.7923L39.1484 8.26341C39.3453 6.84968 38.7983 6.19162 37.3812 6.19162Z" fill="white"/>
<path d="M63.2019 6.19189C61.7848 6.19189 60.0143 6.84995 59.8157 8.26536L58.3363 18.7942C58.1378 20.2113 58.6629 20.8677 60.0799 20.8677C61.497 20.8677 63.2877 20.2113 63.488 18.7942L64.9674 8.26536C65.1643 6.84995 64.6173 6.19189 63.2019 6.19189Z" fill="white"/>
<path d="M56.8927 6.47275H54.7873L55.1962 3.56451C55.3948 2.14742 54.2756 1.86468 52.7963 2.32245C52.5825 2.38809 52.0271 2.60183 51.8235 2.69103C50.6151 3.22118 49.9823 4.01556 49.8123 5.22901L49.6373 6.47443H49.3461C48.3144 6.47443 47.6732 7.62056 47.5285 8.65224C47.3837 9.68392 47.7876 10.2275 48.8193 10.2275H49.1105L48.4087 15.2193C47.9156 18.7318 48.513 20.8709 52.0019 20.8709C54.4708 20.8709 56.9314 19.267 57.1485 17.7354C57.2613 16.931 56.7968 16.2561 56.2262 16.2561C55.5732 16.2561 55.1003 16.7946 54.3631 16.7946C53.6832 16.7946 53.4072 16.3116 53.5839 15.0594L54.2638 10.2259H56.3676C57.3993 10.2259 58.0338 8.97538 58.1785 7.9437C58.3199 6.91033 57.9244 6.47275 56.8927 6.47275Z" fill="white"/>
<path d="M75.9938 5.99316C74.5649 5.99316 73.2421 6.77745 72.1952 8.0498C72.2609 6.78418 71.7543 6.19176 70.4129 6.19176C68.9958 6.19176 67.2253 6.84813 67.025 8.26522L64.7025 24.7923C64.5039 26.2094 65.0307 26.8658 66.4461 26.8658C67.8632 26.8658 69.6539 26.2094 69.8542 24.7923L70.6654 19.018C71.3655 20.1506 72.4847 20.7481 73.922 20.7481C77.2998 20.7481 79.6442 17.8701 80.277 13.3698C80.8779 9.08485 79.1444 5.99316 75.9938 5.99316ZM75.1354 13.7097C74.8577 15.6805 73.9489 17.2794 72.5402 17.2794C71.6752 17.2794 71.0239 16.6819 71.2426 15.1268L71.6684 12.1008C71.8536 10.778 72.6463 10.1401 73.4642 10.1401C74.6608 10.1418 75.4131 11.7389 75.1354 13.7097Z" fill="white"/>
<path d="M62.911 5.11986C64.7606 4.86909 66.1508 3.65901 66.314 2.15945C66.479 0.659891 65.316 -0.201808 63.4664 0.04896C61.6168 0.299728 60.2266 1.50981 60.0634 3.00937C59.8984 4.50893 61.0631 5.37063 62.911 5.11986Z" fill="white"/>
<path d="M99.7034 6.19189C98.532 6.19189 97.4734 6.72204 97.3388 7.68304C97.2075 8.60869 97.8117 9.06815 98.1348 9.8255C99.1716 12.2541 97.8571 16.4953 95.7349 19.5112C96.6403 13.9118 96.3121 9.9147 95.1509 7.85302C94.5584 6.80283 93.8028 6.19189 92.6045 6.19189C90.7902 6.19189 89.2267 7.07884 89.2267 8.27545C89.2267 9.03281 89.5902 9.51751 90.0261 10.635C90.6993 12.3685 91.4381 16.0509 91.4381 19.2789C91.4381 21.6015 90.9804 23.5454 90.1321 23.5454C88.9607 23.5454 89.2368 21.4197 87.2424 21.4197C86.1131 21.4197 84.8828 22.2562 84.8828 23.744C84.8828 25.873 86.9209 26.9299 89.3428 26.9299C94.826 26.9299 101.662 20.9317 102.881 12.2574C103.542 7.5282 101.378 6.19189 99.7034 6.19189Z" fill="white"/>
<path d="M88.0935 18.2505C88.0935 16.9698 86.4408 17.6345 86.567 16.7257L88.627 2.07346C88.8273 0.658056 88.2803 0 86.8632 0C85.4461 0 83.6756 0.658056 83.477 2.07346L81.3918 17.0388C81.141 18.8227 80.9222 20.8693 83.6638 20.8693C86.1261 20.8693 88.0935 19.4556 88.0935 18.2505Z" fill="white"/>
<path d="M45.4245 0C44.0074 0 42.2369 0.658056 42.0366 2.07346L39.9513 17.0388C39.7006 18.8227 39.4818 20.8693 42.2234 20.8693C44.6856 20.8693 46.6548 19.4556 46.6548 18.2505C46.6548 16.9698 45.002 17.6345 45.1283 16.7257L47.1883 2.07346C47.3869 0.658056 46.8399 0 45.4245 0Z" fill="white"/>
<path d="M18.9928 0C16.0593 0 13.7805 2.26533 12.7993 5.3974C11.7844 4.3876 10.4212 3.88101 8.9553 3.88101C1.66283 3.88101 0.503244 11.4663 0.0134885 18.7958C-0.0807599 20.2112 0.301283 20.8693 1.71837 20.8693C3.13547 20.8693 5.06756 20.2011 5.26447 18.7958C5.59602 16.4514 5.64315 16.1249 5.98143 13.2806C6.3315 10.3438 7.11241 8.1306 8.28378 8.1306C9.08658 8.1306 9.34744 8.75837 9.34744 9.93142C9.34744 11.4983 8.86274 13.7552 8.48911 16.9731C8.32418 18.3919 8.79878 19.1156 10.2142 19.1156C11.6313 19.1156 13.6593 18.3936 13.8394 16.9731C14.0986 14.9249 14.3325 13.1847 14.5698 11.4966C15.2531 6.63273 16.1215 5.48828 17.2929 5.48828C18.025 5.48828 18.3313 6.1009 18.2909 7.28069C18.2236 9.25485 17.0354 16.2713 16.7779 18.7958C16.6315 20.2247 17.1044 20.8693 18.5215 20.8693C19.9386 20.8693 21.9145 20.2095 22.1282 18.7958C22.5809 15.8017 23.0034 12.3247 23.4056 9.04616C24.0435 3.86923 23.6126 0 18.9928 0Z" fill="white"/>
</svg>
