<svg width="36" height="36" viewBox="0 0 36 36" fill="none" xmlns="http://www.w3.org/2000/svg">
<rect width="36" height="36" rx="8.21918" fill="#EBEBEB"/>
<g clip-path="url(#clip0_1376_8066)">
<path d="M10.8125 10.8125C10.05 10.8125 9.31874 11.1154 8.77957 11.6546C8.2404 12.1937 7.9375 12.925 7.9375 13.6875V22.3125C7.9375 22.9062 8.11719 23.4582 8.42625 23.9167L10.5394 16.6775C10.67 16.2296 10.9424 15.8362 11.3156 15.5563C11.6889 15.2763 12.1428 15.125 12.6094 15.125H25.1918V15.1193C25.1918 14.3568 24.8889 13.6255 24.3497 13.0863C23.8106 12.5472 23.0793 12.2443 22.3168 12.2443H15.3766L13.7809 10.9692C13.6535 10.8676 13.4954 10.8124 13.3324 10.8125H10.8125ZM27.9777 17.4825C28.0089 17.3754 28.0148 17.2625 27.9948 17.1527C27.9749 17.0429 27.9296 16.9393 27.8627 16.85C27.7957 16.7607 27.7089 16.6883 27.6091 16.6384C27.5093 16.5885 27.3993 16.5625 27.2877 16.5625H12.6094C12.4539 16.5625 12.3025 16.6129 12.1781 16.7062C12.0537 16.7996 11.9629 16.9307 11.9194 17.08L9.82062 24.2675C9.78938 24.3746 9.78351 24.4875 9.80347 24.5973C9.82343 24.7071 9.86868 24.8107 9.93562 24.9C10.0026 24.9893 10.0894 25.0617 10.1892 25.1116C10.289 25.1615 10.399 25.1875 10.5106 25.1875H24.1094C24.5759 25.1875 25.0299 25.0362 25.4031 24.7562C25.7764 24.4763 26.0487 24.0829 26.1794 23.635L27.9777 17.4825Z" fill="#345CEB"/>
</g>
<defs>
<clipPath id="clip0_1376_8066">
<rect width="21" height="15" fill="white" transform="translate(7.5 10.5)"/>
</clipPath>
</defs>
</svg>
