<svg width="36" height="36" viewBox="0 0 36 36" fill="none" xmlns="http://www.w3.org/2000/svg">
<rect width="36" height="36" rx="8.21918" fill="#EBEBEB"/>
<path d="M17.8236 8.15002C17.9799 8.15002 18.1298 8.21211 18.2403 8.32262C18.3508 8.43313 18.4129 8.58302 18.4129 8.73931V8.93574H24.5038C24.824 8.93615 25.1413 8.9961 25.4396 9.11252C25.9168 9.30042 26.3264 9.62761 26.6151 10.0515C26.9037 10.4754 27.0581 10.9764 27.0581 11.4893L27.0573 19.7393C27.0573 19.7914 27.0366 19.8414 26.9998 19.8782C26.963 19.915 26.913 19.9357 26.8609 19.9357C26.8085 19.9348 26.7584 19.914 26.7208 19.8775C26.6832 19.8411 26.6608 19.7917 26.6582 19.7393C26.6259 19.2235 26.4668 18.7235 26.1952 18.2838C25.9235 17.8441 25.5476 17.4782 25.1007 17.2185C24.6539 16.9588 24.1498 16.8133 23.6333 16.7949C23.1168 16.7765 22.6037 16.8858 22.1395 17.1131C21.6753 17.3404 21.2743 17.6786 20.972 18.0979C20.6698 18.5172 20.4756 19.0045 20.4067 19.5167C20.3378 20.029 20.3963 20.5503 20.577 21.0346C20.7577 21.5188 21.055 21.951 21.4426 22.2929H20.8078C20.3171 22.2927 19.8381 22.4433 19.4359 22.7244C19.0337 23.0055 18.7276 23.4034 18.5591 23.8643H14.9479L12.3723 26.806C12.2694 26.9237 12.1239 26.9956 11.968 27.006C11.812 27.0164 11.6583 26.9644 11.5407 26.8614C11.423 26.7585 11.3511 26.613 11.3407 26.4571C11.3303 26.3011 11.3823 26.1474 11.4853 26.0297L13.3812 23.8643H10.7546C10.0774 23.8639 9.42801 23.5947 8.94909 23.116C8.47016 22.6372 8.20082 21.9879 8.2002 21.3107V11.4893C8.2002 10.8121 8.46923 10.1625 8.94812 9.68366C9.42701 9.20477 10.0765 8.93574 10.7538 8.93574H17.2336V8.73931C17.2336 8.58302 17.2956 8.43313 17.4061 8.32262C17.5167 8.21211 17.6665 8.15002 17.8228 8.15002H17.8236ZM11.9292 12.4715C11.7729 12.4715 11.623 12.5335 11.5125 12.6441C11.402 12.7546 11.3399 12.9045 11.3399 13.0607C11.3399 13.217 11.402 13.3669 11.5125 13.4774C11.623 13.5879 11.7729 13.65 11.9292 13.65H16.2514C16.4077 13.65 16.5576 13.5879 16.6681 13.4774C16.7786 13.3669 16.8407 13.217 16.8407 13.0607C16.8407 12.9045 16.7786 12.7546 16.6681 12.6441C16.5576 12.5335 16.4077 12.4715 16.2514 12.4715H11.93H11.9292ZM11.3399 16.2036C11.3399 16.5289 11.6039 16.7929 11.9292 16.7929H20.1808C20.3371 16.7929 20.4869 16.7308 20.5975 16.6203C20.708 16.5098 20.7701 16.3599 20.7701 16.2036C20.7701 16.0473 20.708 15.8974 20.5975 15.7869C20.4869 15.6764 20.3371 15.6143 20.1808 15.6143H11.9292C11.7729 15.6143 11.623 15.6764 11.5125 15.7869C11.402 15.8974 11.3399 16.0473 11.3399 16.2036ZM11.3399 19.3465C11.3399 19.6717 11.6039 19.9357 11.9292 19.9357H18.6093C18.7656 19.9357 18.9155 19.8737 19.026 19.7631C19.1365 19.6526 19.1986 19.5027 19.1986 19.3465C19.1986 19.1902 19.1365 19.0403 19.026 18.9298C18.9155 18.8193 18.7656 18.7572 18.6093 18.7572H11.9284C11.7721 18.7572 11.6222 18.8193 11.5117 18.9298C11.4012 19.0403 11.3391 19.1902 11.3391 19.3465H11.3399ZM25.8788 19.9357C25.8788 20.5609 25.6304 21.1604 25.1884 21.6025C24.7463 22.0445 24.1468 22.2929 23.5216 22.2929C22.8965 22.2929 22.2969 22.0445 21.8549 21.6025C21.4128 21.1604 21.1645 20.5609 21.1645 19.9357C21.1645 19.3106 21.4128 18.711 21.8549 18.269C22.2969 17.8269 22.8965 17.5786 23.5216 17.5786C24.1468 17.5786 24.7463 17.8269 25.1884 18.269C25.6304 18.711 25.8788 19.3106 25.8788 19.9357ZM27.8431 24.8465C27.8431 26.3142 26.6087 27.7929 23.5216 27.7929C20.4346 27.7929 19.2002 26.3197 19.2002 24.8465V24.6854C19.2002 23.7975 19.9199 23.0786 20.8078 23.0786H26.2363C27.1241 23.0786 27.8431 23.7975 27.8431 24.6854V24.8465Z" fill="#345CEB"/>
</svg>
