<svg width="36" height="36" viewBox="0 0 36 36" fill="none" xmlns="http://www.w3.org/2000/svg">
<rect width="36" height="36" rx="8.21918" fill="#EBEBEB"/>
<path d="M13.6354 13.5057C12.8893 13.5057 12.2856 12.9021 12.2856 12.156C12.2856 11.798 12.4278 11.4547 12.681 11.2016C12.9341 10.9485 13.2774 10.8063 13.6354 10.8063C14.3815 10.8063 14.9851 11.4099 14.9851 12.156C14.9851 12.514 14.8429 12.8573 14.5898 13.1104C14.3367 13.3635 13.9934 13.5057 13.6354 13.5057ZM13.6354 8.38361C11.5395 8.38361 9.86279 10.0602 9.86279 12.156C9.86279 14.9811 13.6354 19.1643 13.6354 19.1643C13.6354 19.1643 17.408 14.9811 17.408 12.156C17.408 10.0602 15.7313 8.38361 13.6354 8.38361ZM22.8573 13.5057C22.4993 13.5057 22.156 13.3635 21.9029 13.1104C21.6498 12.8573 21.5076 12.514 21.5076 12.156C21.5076 11.9788 21.5425 11.8033 21.6103 11.6395C21.6781 11.4758 21.7776 11.327 21.9029 11.2016C22.0282 11.0763 22.177 10.9769 22.3408 10.9091C22.5045 10.8412 22.6801 10.8063 22.8573 10.8063C23.0346 10.8063 23.2101 10.8412 23.3738 10.9091C23.5376 10.9769 23.6864 11.0763 23.8117 11.2016C23.9371 11.327 24.0365 11.4758 24.1043 11.6395C24.1722 11.8033 24.2071 11.9788 24.2071 12.156C24.2071 12.514 24.0649 12.8573 23.8117 13.1104C23.5586 13.3635 23.2153 13.5057 22.8573 13.5057ZM22.8573 8.38361C20.7614 8.38361 19.0847 10.0602 19.0847 12.156C19.0847 14.9811 22.8573 19.1643 22.8573 19.1643C22.8573 19.1643 26.6299 14.9811 26.6299 12.156C26.6299 10.0602 24.9532 8.38361 22.8573 8.38361ZM22.8573 20.12C21.7926 20.12 20.8453 20.7906 20.4932 21.7966H15.9996C15.7774 21.1692 15.3156 20.6554 14.7153 20.3678C14.115 20.0803 13.4252 20.0424 12.797 20.2625C12.4848 20.3719 12.1972 20.5417 11.9507 20.7623C11.7042 20.9829 11.5035 21.25 11.3603 21.5481C11.217 21.8463 11.1339 22.1698 11.1158 22.5001C11.0976 22.8305 11.1447 23.1611 11.2545 23.4732C11.4796 24.1023 11.9445 24.6167 12.5477 24.9041C13.1509 25.1915 13.8433 25.2286 14.4738 25.0073C15.1864 24.7558 15.7313 24.1858 15.9996 23.4732H20.5015C20.9626 24.781 22.4046 25.4684 23.6957 25.0073C24.0088 24.899 24.2975 24.73 24.5451 24.5098C24.7928 24.2896 24.9944 24.0226 25.1385 23.7243C25.2827 23.4259 25.3664 23.102 25.385 22.7712C25.4035 22.4404 25.3565 22.1092 25.2466 21.7966C24.8861 20.7906 23.9304 20.12 22.8573 20.12ZM22.8573 23.8924C22.5238 23.8924 22.2039 23.7599 21.9681 23.524C21.7323 23.2882 21.5998 22.9684 21.5998 22.6349C21.5998 22.3014 21.7323 21.9815 21.9681 21.7457C22.2039 21.5099 22.5238 21.3774 22.8573 21.3774C23.1908 21.3774 23.5107 21.5099 23.7465 21.7457C23.9824 21.9815 24.1148 22.3014 24.1148 22.6349C24.1148 22.9684 23.9824 23.2882 23.7465 23.524C23.5107 23.7599 23.1908 23.8924 22.8573 23.8924Z" fill="#345CEB"/>
</svg>
