<svg width="36" height="36" viewBox="0 0 36 36" fill="none" xmlns="http://www.w3.org/2000/svg">
<rect width="36" height="36" rx="8.21918" fill="#EBEBEB"/>
<g clip-path="url(#clip0_1376_8094)">
<path d="M12.0231 8.80005C11.3854 8.80017 10.7659 9.01299 10.2628 9.40482C9.7596 9.79665 9.4015 10.3451 9.24516 10.9634C9.52503 10.8666 9.82418 10.8391 10.117 10.8831C10.4099 10.9272 10.6877 11.0415 10.9267 11.2163C11.1657 11.3912 11.3588 11.6213 11.4895 11.8871C11.6202 12.1528 11.6845 12.4463 11.677 12.7423C11.6696 13.0383 11.5905 13.3282 11.4466 13.587C11.3027 13.8458 11.0982 14.0659 10.8507 14.2285C10.6032 14.391 10.3199 14.4912 10.0252 14.5204C9.73055 14.5497 9.43317 14.5071 9.15853 14.3963V22.4355C9.15853 23.1952 9.46033 23.9238 9.99755 24.461C10.5348 24.9982 11.2634 25.3 12.0231 25.3H17.4287C16.8153 24.3425 16.4901 23.2289 16.4919 22.0917C16.4919 21.0064 16.782 19.9889 17.2894 19.1125H14.3148C14.1628 19.1125 14.0171 19.0522 13.9097 18.9447C13.8022 18.8373 13.7419 18.6916 13.7419 18.5396C13.7419 18.3877 13.8022 18.242 13.9097 18.1345C14.0171 18.0271 14.1628 17.9667 14.3148 17.9667H18.151C18.7064 17.3863 19.3738 16.9246 20.1127 16.6094C20.8517 16.2943 21.6469 16.1324 22.4502 16.1334C23.6313 16.1334 24.7327 16.4771 25.6585 17.0702V11.6646C25.6585 10.9049 25.3567 10.1763 24.8195 9.63907C24.2823 9.10185 23.5537 8.80005 22.7939 8.80005H12.0231ZM13.7419 15.3313C13.7419 15.015 13.9985 14.7584 14.3148 14.7584H20.5023C20.5775 14.7584 20.652 14.7732 20.7215 14.802C20.791 14.8308 20.8542 14.873 20.9074 14.9262C20.9606 14.9794 21.0028 15.0425 21.0316 15.1121C21.0604 15.1816 21.0752 15.2561 21.0752 15.3313C21.0752 15.4065 21.0604 15.481 21.0316 15.5505C21.0028 15.6201 20.9606 15.6832 20.9074 15.7364C20.8542 15.7896 20.791 15.8318 20.7215 15.8606C20.652 15.8894 20.5775 15.9042 20.5023 15.9042H14.3148C13.9985 15.9042 13.7419 15.6475 13.7419 15.3313ZM9.84603 11.55C9.69549 11.5498 9.54638 11.5793 9.40725 11.6368C9.26813 11.6943 9.14171 11.7787 9.03527 11.8851C8.92882 11.9916 8.84442 12.118 8.78693 12.2571C8.72943 12.3962 8.69996 12.5453 8.7002 12.6959C8.69996 12.8464 8.72943 12.9955 8.78693 13.1347C8.84442 13.2738 8.92882 13.4002 9.03527 13.5066C9.14171 13.6131 9.26813 13.6975 9.40725 13.755C9.54638 13.8125 9.69549 13.842 9.84603 13.8417C10.1499 13.8417 10.4414 13.721 10.6563 13.5061C10.8711 13.2912 10.9919 12.9998 10.9919 12.6959C10.9919 12.392 10.8711 12.1005 10.6563 11.8857C10.4414 11.6708 10.1499 11.55 9.84603 11.55ZM27.4919 22.0917C27.4919 24.8761 25.2346 27.1334 22.4502 27.1334C19.6658 27.1334 17.4085 24.8761 17.4085 22.0917C17.4085 19.3073 19.6658 17.05 22.4502 17.05C25.2346 17.05 27.4919 19.3073 27.4919 22.0917ZM22.4502 18.8834C21.8424 18.8834 21.2595 19.1248 20.8297 19.5546C20.4 19.9844 20.1585 20.5673 20.1585 21.175V22.7251L19.7245 23.5932C19.707 23.6282 19.6987 23.667 19.7004 23.706C19.7022 23.7451 19.7138 23.783 19.7344 23.8163C19.7549 23.8495 19.7836 23.877 19.8177 23.896C19.8519 23.9151 19.8903 23.925 19.9294 23.925H24.971C25.0101 23.925 25.0485 23.9151 25.0827 23.896C25.1168 23.877 25.1455 23.8495 25.166 23.8163C25.1865 23.783 25.1982 23.7451 25.2 23.706C25.2017 23.667 25.1934 23.6282 25.1759 23.5932L24.7419 22.7251V21.175C24.7419 20.5673 24.5004 19.9844 24.0706 19.5546C23.6409 19.1248 23.058 18.8834 22.4502 18.8834ZM21.5335 24.3834C21.5335 24.6265 21.6301 24.8597 21.802 25.0316C21.9739 25.2035 22.2071 25.3 22.4502 25.3C22.6933 25.3 22.9265 25.2035 23.0984 25.0316C23.2703 24.8597 23.3669 24.6265 23.3669 24.3834H21.5335Z" fill="#345CEB"/>
</g>
<defs>
<clipPath id="clip0_1376_8094">
<rect width="20" height="20" fill="white" transform="translate(8 8)"/>
</clipPath>
</defs>
</svg>
