<svg width="27" height="28" viewBox="0 0 27 28" fill="none" xmlns="http://www.w3.org/2000/svg">
<path d="M22.4846 14.6015V12.1788H20.611V14.9893C20.611 15.2377 20.7097 15.476 20.8855 15.6516L23.4215 18.1876V19.6735H2.81116V18.1876L5.34717 15.6516C5.52287 15.476 5.6216 15.2377 5.62166 14.9893V11.242C5.61905 9.92553 5.96388 8.63172 6.62134 7.4912C7.27879 6.35068 8.22558 5.40386 9.36608 4.74637C10.5066 4.08887 11.8004 3.74399 13.1168 3.74656C14.4333 3.74912 15.7257 4.09904 16.8636 4.76098V2.66716C15.9719 2.2723 15.0234 2.02064 14.0531 1.92144V0H12.1795V1.9205C9.86979 2.15559 7.7293 3.23873 6.17192 4.96051C4.61454 6.68228 3.7509 8.92036 3.74799 11.242V14.6015L1.21199 17.1375C1.03629 17.3131 0.937553 17.5514 0.9375 17.7998V20.6103C0.9375 20.8588 1.0362 21.097 1.21189 21.2727C1.38758 21.4484 1.62587 21.5471 1.87433 21.5471H8.43215V22.484C8.43215 23.7263 8.92566 24.9177 9.80411 25.7962C10.6826 26.6746 11.874 27.1681 13.1163 27.1681C14.3586 27.1681 15.5501 26.6746 16.4285 25.7962C17.307 24.9177 17.8005 23.7263 17.8005 22.484V21.5471H24.3583C24.6067 21.5471 24.845 21.4484 25.0207 21.2727C25.1964 21.097 25.2951 20.8588 25.2951 20.6103V17.7998C25.2951 17.5514 25.1963 17.3131 25.0206 17.1375L22.4846 14.6015ZM15.9268 22.484C15.9268 23.2293 15.6307 23.9442 15.1036 24.4713C14.5766 24.9983 13.8617 25.2944 13.1163 25.2944C12.3709 25.2944 11.6561 24.9983 11.129 24.4713C10.6019 23.9442 10.3058 23.2293 10.3058 22.484V21.5471H15.9268V22.484Z" fill="white"/>
<path d="M22.4856 10.3052C24.5552 10.3052 26.2329 8.62746 26.2329 6.55787C26.2329 4.48828 24.5552 2.81055 22.4856 2.81055C20.416 2.81055 18.7383 4.48828 18.7383 6.55787C18.7383 8.62746 20.416 10.3052 22.4856 10.3052Z" fill="white"/>
</svg>
