<svg width="24" height="28" viewBox="0 0 24 28" fill="none" xmlns="http://www.w3.org/2000/svg">
<path d="M0 4.65291C0 3.09206 1.35625 1.93266 2.945 1.20726C4.9574 0.371152 7.12122 -0.0389169 9.3 0.00290556C11.4788 -0.0389169 13.6426 0.371152 15.655 1.20726C17.2438 1.93266 18.6 3.09206 18.6 4.65291V12.5719C18.0639 12.6136 17.5393 12.7489 17.05 12.9718V7.2879C16.616 7.6072 16.1479 7.88 15.655 8.10165C13.6424 8.9367 11.4786 9.34571 9.3 9.30291C7.12122 9.34473 4.9574 8.93466 2.945 8.09856C2.45266 7.87839 1.98505 7.60665 1.55 7.2879V20.1529C1.55 20.7326 2.1018 21.5092 3.5929 22.1881C5.40212 22.9306 7.34474 23.2931 9.3 23.2529H9.33255C9.35115 23.3366 9.3713 23.4203 9.393 23.5025L8.215 24.6867C8.184 24.7177 8.153 24.7487 8.1251 24.7812C6.34395 24.6827 4.59241 24.2828 2.945 23.5986C1.35625 22.8732 0 21.7138 0 20.1529V4.65291ZM1.55 4.65291C1.55 5.23261 2.1018 6.00916 3.5929 6.68806C5.40212 7.4306 7.34474 7.79306 9.3 7.75291C11.2553 7.79306 13.1979 7.4306 15.0071 6.68806C16.4982 6.00916 17.05 5.23106 17.05 4.65291C17.05 4.07321 16.4982 3.29666 15.0071 2.61776C13.1979 1.87521 11.2553 1.51275 9.3 1.55291C7.34474 1.51275 5.40212 1.87521 3.5929 2.61776C2.1018 3.29666 1.55 4.07321 1.55 4.65291ZM23.5569 13.7266C23.629 13.6547 23.6861 13.5692 23.7252 13.4752C23.7642 13.3811 23.7843 13.2803 23.7844 13.1785C23.7845 13.0766 23.7645 12.9758 23.7256 12.8817C23.6867 12.7876 23.6296 12.702 23.5577 12.63C23.4857 12.5579 23.4003 12.5007 23.3062 12.4617C23.2122 12.4227 23.1114 12.4025 23.0095 12.4025C22.9077 12.4024 22.8068 12.4224 22.7127 12.4613C22.6186 12.5002 22.5331 12.5573 22.461 12.6292L20.6228 14.4675C20.6033 14.494 20.5852 14.5214 20.5685 14.5497C19.9769 14.1966 19.2846 14.0507 18.6009 14.1349C17.9171 14.2191 17.2809 14.5286 16.7927 15.0147L15.8627 15.9447C15.5782 16.2297 15.4184 16.616 15.4184 17.0188C15.4184 17.4216 15.5782 17.8079 15.8627 18.093L18.0978 20.3234C18.3829 20.6084 18.7696 20.7685 19.1727 20.7685C19.5759 20.7685 19.9625 20.6084 20.2477 20.3234L21.1777 19.3934C21.6641 18.9051 21.9738 18.2686 22.058 17.5845C22.1423 16.9004 21.9961 16.2078 21.6426 15.6161C21.6716 15.6004 21.6991 15.5823 21.7248 15.5618L23.5569 13.7266V13.7266ZM14.7669 19.1842C14.6258 19.0431 14.4583 18.9312 14.274 18.8548C14.0897 18.7785 13.8922 18.7392 13.6927 18.7392C13.4932 18.7392 13.2957 18.7785 13.1114 18.8548C12.9271 18.9312 12.7596 19.0431 12.6186 19.1842L11.6886 20.1142C11.2022 20.6025 10.8924 21.239 10.8082 21.9231C10.7239 22.6072 10.8701 23.2998 11.2236 23.8915C11.1948 23.9075 11.1674 23.9256 11.1414 23.9458L9.3093 25.7825C9.16813 25.9287 9.09001 26.1244 9.09178 26.3276C9.09354 26.5308 9.17505 26.7252 9.31874 26.8689C9.46243 27.0126 9.65681 27.0941 9.86001 27.0959C10.0632 27.0976 10.259 27.0195 10.4052 26.8784L12.2419 25.0401C12.2622 25.0139 12.2809 24.9865 12.2977 24.9579C12.8893 25.311 13.5816 25.4569 14.2653 25.3727C14.9491 25.2885 15.5853 24.9789 16.0735 24.4929L17.0035 23.5629C17.1448 23.4218 17.2569 23.2543 17.3334 23.0698C17.4099 22.8854 17.4492 22.6877 17.4492 22.488C17.4492 22.2883 17.4099 22.0906 17.3334 21.9061C17.2569 21.7217 17.1448 21.5541 17.0035 21.4131L14.7669 19.1842V19.1842Z" fill="white"/>
</svg>
