<svg width="30" height="28" viewBox="0 0 30 28" fill="none" xmlns="http://www.w3.org/2000/svg">
<path d="M17.9261 23.2348C22.9309 23.2348 25.434 23.2348 26.9881 21.6794C28.5436 20.1253 28.5436 17.6222 28.5436 12.6174C28.5436 7.61263 28.5436 5.10958 26.9881 3.55545C25.434 2 22.9309 2 17.9261 2H12.6174C7.61263 2 5.10958 2 3.55545 3.55545C2 5.10958 2 7.61263 2 12.6174C2 17.6222 2 20.1253 3.55545 21.6794C4.4221 22.5474 5.58338 22.9309 7.30871 23.0995" stroke="white" stroke-width="2.65436" stroke-linecap="round" stroke-linejoin="round"/>
<path d="M12.6169 9.27946C13.2805 7.96555 13.9441 7.30993 15.2713 7.30993C16.9249 7.30993 17.9256 8.62251 17.9256 9.93509C17.9256 11.2477 17.262 11.3061 15.2713 12.6186V13.9458M15.2713 17.2638V17.9274M17.9256 23.2361C16.2852 23.2361 14.4776 23.8997 12.8279 24.7557C10.1762 26.132 8.85038 26.8208 8.19741 26.3815C7.54444 25.9435 7.66786 24.5831 7.91605 21.8638L7.97179 21.2453" stroke="white" stroke-width="2.65436" stroke-linecap="round"/>
</svg>
