<svg width="36" height="36" viewBox="0 0 36 36" fill="none" xmlns="http://www.w3.org/2000/svg">
<rect width="36" height="36" rx="8.21918" fill="#EBEBEB"/>
<g clip-path="url(#clip0_1376_8049)">
<path d="M23.9814 18.0302L18.4269 23.5847C18.1032 23.9083 17.8734 24.3137 17.7622 24.7577L17.331 26.4804C17.2884 26.6517 17.2909 26.8312 17.3382 27.0012C17.3855 27.1713 17.476 27.3263 17.6009 27.451C17.7258 27.5758 17.8808 27.6662 18.051 27.7133C18.2211 27.7605 18.4005 27.7628 18.5718 27.7201L20.2945 27.29C20.7386 27.179 21.144 26.9492 21.4675 26.6253L27.022 21.0708C27.4201 20.6664 27.6421 20.121 27.6398 19.5536C27.6375 18.9861 27.411 18.4426 27.0097 18.0414C26.6084 17.6402 26.0647 17.4139 25.4973 17.4118C24.9298 17.4097 24.3845 17.632 23.9803 18.0302H23.9814ZM13.8499 8.77501C13.8499 8.62251 13.7893 8.47626 13.6815 8.36843C13.5737 8.26059 13.4274 8.20001 13.2749 8.20001C13.1224 8.20001 12.9761 8.26059 12.8683 8.36843C12.7605 8.47626 12.6999 8.62251 12.6999 8.77501V9.35001H12.1249C11.6674 9.35001 11.2286 9.53175 10.9051 9.85525C10.5816 10.1788 10.3999 10.6175 10.3999 11.075V24.875C10.3999 25.3325 10.5816 25.7713 10.9051 26.0948C11.2286 26.4183 11.6674 26.6 12.1249 26.6H16.1534C16.1614 26.4689 16.1821 26.3355 16.2155 26.201L16.6467 24.4783C16.8077 23.8319 17.1416 23.2415 17.6127 22.7705L23.1672 17.216C23.4635 16.919 23.8141 16.6816 24.1999 16.5168V11.075C24.1999 10.6175 24.0182 10.1788 23.6947 9.85525C23.3712 9.53175 22.9324 9.35001 22.4749 9.35001H21.8999V8.77501C21.8999 8.62251 21.8393 8.47626 21.7315 8.36843C21.6237 8.26059 21.4774 8.20001 21.3249 8.20001C21.1724 8.20001 21.0261 8.26059 20.9183 8.36843C20.8105 8.47626 20.7499 8.62251 20.7499 8.77501V9.35001H17.8749V8.77501C17.8749 8.62251 17.8143 8.47626 17.7065 8.36843C17.5987 8.26059 17.4524 8.20001 17.2999 8.20001C17.1474 8.20001 17.0011 8.26059 16.8933 8.36843C16.7855 8.47626 16.7249 8.62251 16.7249 8.77501V9.35001H13.8499V8.77501ZM14.4249 13.95H20.1749C20.3274 13.95 20.4737 14.0106 20.5815 14.1184C20.6893 14.2263 20.7499 14.3725 20.7499 14.525C20.7499 14.6775 20.6893 14.8238 20.5815 14.9316C20.4737 15.0394 20.3274 15.1 20.1749 15.1H14.4249C14.2724 15.1 14.1261 15.0394 14.0183 14.9316C13.9105 14.8238 13.8499 14.6775 13.8499 14.525C13.8499 14.3725 13.9105 14.2263 14.0183 14.1184C14.1261 14.0106 14.2724 13.95 14.4249 13.95ZM20.7499 17.975C20.7499 18.1275 20.6893 18.2738 20.5815 18.3816C20.4737 18.4894 20.3274 18.55 20.1749 18.55H14.4249C14.2724 18.55 14.1261 18.4894 14.0183 18.3816C13.9105 18.2738 13.8499 18.1275 13.8499 17.975C13.8499 17.8225 13.9105 17.6763 14.0183 17.5684C14.1261 17.4606 14.2724 17.4 14.4249 17.4H20.1749C20.3274 17.4 20.4737 17.4606 20.5815 17.5684C20.6893 17.6763 20.7499 17.8225 20.7499 17.975ZM14.4249 20.85H16.7249C16.8774 20.85 17.0237 20.9106 17.1315 21.0184C17.2393 21.1263 17.2999 21.2725 17.2999 21.425C17.2999 21.5775 17.2393 21.7238 17.1315 21.8316C17.0237 21.9394 16.8774 22 16.7249 22H14.4249C14.2724 22 14.1261 21.9394 14.0183 21.8316C13.9105 21.7238 13.8499 21.5775 13.8499 21.425C13.8499 21.2725 13.9105 21.1263 14.0183 21.0184C14.1261 20.9106 14.2724 20.85 14.4249 20.85Z" fill="#345CEB"/>
</g>
<defs>
<clipPath id="clip0_1376_8049">
<rect width="18" height="20" fill="white" transform="translate(10 8)"/>
</clipPath>
</defs>
</svg>
