<svg width="170" height="170" viewBox="0 0 170 170" fill="none" xmlns="http://www.w3.org/2000/svg">
<circle cx="84.926" cy="82.926" r="79.926" fill="white"/>
<path d="M152.255 69.1808C159.382 119.071 128.161 150.186 93.7086 153.18C108.117 129.531 125.849 128.399 123.237 75.7987C123.238 29.4725 52.4174 16.6958 86.8701 13.7026C121.323 10.7093 150.43 48.173 152.255 69.1808Z" fill="#EFF5FF"/>
<path d="M145.073 118.594C152.416 105.138 155.225 89.6737 153.083 74.4953C150.941 59.3168 143.963 45.2333 133.184 34.3347C122.404 23.4362 108.398 16.3033 93.2445 13.9946C78.0906 11.6859 62.5961 14.3245 49.0605 21.5188L49.7295 22.7775C62.9944 15.7271 78.179 13.1413 93.0299 15.4038C107.881 17.6663 121.606 24.6565 132.17 35.3371C142.734 46.0177 149.572 59.8195 151.671 74.6944C153.77 89.5693 151.017 104.724 143.821 117.911L145.073 118.594Z" fill="#2D2929"/>
<path d="M145.073 118.594C152.416 105.138 155.225 89.6737 153.083 74.4953C150.941 59.3168 143.963 45.2333 133.184 34.3347C122.404 23.4362 108.398 16.3033 93.2445 13.9946C78.0906 11.6859 62.5961 14.3245 49.0605 21.5188L49.7295 22.7775C62.9944 15.7271 78.179 13.1413 93.0299 15.4038C107.881 17.6663 121.606 24.6565 132.17 35.3371C142.734 46.0177 149.572 59.8195 151.671 74.6944C153.77 89.5693 151.017 104.724 143.821 117.911L145.073 118.594Z" fill="#2D2929"/>
<path d="M59.891 146.84C44.5096 139.765 31.982 127.683 24.3544 112.568C16.7269 97.4525 14.4502 80.1976 17.8963 63.6213L19.3617 63.926C15.9845 80.1707 18.2157 97.0805 25.6906 111.893C33.1657 126.706 45.4427 138.547 60.5164 145.481L59.891 146.84Z" fill="#2D2929"/>
<path d="M59.891 146.84C44.5096 139.765 31.982 127.683 24.3544 112.568C16.7269 97.4525 14.4502 80.1976 17.8963 63.6213L19.3617 63.926C15.9845 80.1707 18.2157 97.0805 25.6906 111.893C33.1657 126.706 45.4427 138.547 60.5164 145.481L59.891 146.84Z" fill="#2D2929"/>
<g filter="url(#filter0_d_399_3419)">
<path d="M41.1374 68.011C41.4418 68.011 41.7992 67.7859 41.7992 67.3756C41.7992 66.9653 41.4418 66.7403 41.1374 66.7403C40.8462 66.7403 40.4755 66.9653 40.4755 67.3756C40.4755 67.7859 40.8462 68.011 41.1374 68.011ZM40.6079 69.3213V76.0718H41.6668V69.3213H40.6079ZM45.7298 72.0612C44.79 71.8362 43.8767 71.77 43.8767 70.9759C43.8767 70.4464 44.3929 70.0626 45.3459 70.0626C46.6166 70.0626 46.8681 70.7376 46.974 71.2538H48.0329C47.927 70.089 47.0269 69.136 45.3459 69.136C43.7576 69.136 42.8178 69.9964 42.8178 71.0553C42.8178 72.6436 44.3532 72.7627 45.3856 73.0142C46.3519 73.2525 47.2387 73.3054 47.2387 74.2849C47.2387 74.7349 46.7887 75.3306 45.6371 75.3306C43.9429 75.3306 43.6782 74.5761 43.612 73.8216H42.5531C42.6193 75.2776 43.5723 76.2571 45.6371 76.2571C47.1725 76.2571 48.2976 75.4497 48.2976 74.2187C48.2976 72.551 46.9343 72.3524 45.7298 72.0612ZM55.5736 71.042C55.5736 71.7171 55.0574 71.8627 53.9191 72.0745C52.172 72.4054 51.0336 72.8024 51.0336 74.3378C51.0336 75.4762 51.894 76.2571 53.2573 76.2571C54.3692 76.2571 55.1236 75.86 55.5472 75.2247H55.5736C55.759 75.9659 56.1428 76.138 56.7781 76.138C56.9767 76.138 57.1223 76.1247 57.4002 76.0321V75.2908C56.7252 75.3703 56.6325 75.0791 56.6325 74.5496V71.2671C56.6325 69.639 55.481 69.136 54.1971 69.136C52.2381 69.136 51.4307 70.1155 51.3646 71.4127H52.4234C52.4896 70.4332 52.9132 70.0626 54.1971 70.0626C55.2824 70.0626 55.5736 70.5126 55.5736 71.042ZM53.3632 75.3306C52.4896 75.3306 52.0925 74.9467 52.0925 74.2849C52.0925 73.4775 52.7014 73.1466 54.0118 72.8686C54.7265 72.723 55.3751 72.5377 55.5736 72.3392V73.4643C55.5736 74.7614 54.6206 75.3306 53.3632 75.3306ZM62.4004 69.3213V73.5304C62.4004 74.5761 61.6062 75.3306 60.415 75.3306C59.3561 75.3306 58.9458 74.6423 58.9458 73.7687V69.3213H57.8869V74.0334C57.8869 75.582 58.9193 76.2571 60.1502 76.2571C61.3018 76.2571 62.0165 75.7409 62.3739 75.2644H62.4004V76.0718H63.4593V69.3213H62.4004ZM67.5932 70.2479V69.3213H66.2696V67.0712H65.2107V69.3213H64.218V70.2479H65.2107V74.4173C65.2107 75.7938 65.899 76.1512 66.799 76.1512C67.077 76.1512 67.355 76.1247 67.5932 76.0718V75.1452C66.6931 75.2114 66.2696 75.0791 66.2696 74.3114V70.2479H67.5932ZM71.7449 69.136C70.5934 69.136 69.8786 69.6522 69.5212 70.1287H69.4948V66.6079H68.4359V76.0718H69.4948V71.8627C69.4948 70.817 70.2889 70.0626 71.4802 70.0626C72.5391 70.0626 72.9494 70.7508 72.9494 71.6244V76.0718H74.0083V71.3597C74.0083 69.8111 72.9759 69.136 71.7449 69.136ZM78.0893 76.2571C76.0244 76.2571 74.7802 74.8011 74.7802 72.6966C74.7802 70.592 76.0244 69.136 78.0893 69.136C80.1409 69.136 81.3851 70.592 81.3851 72.6966C81.3851 74.8011 80.1409 76.2571 78.0893 76.2571ZM78.0893 75.3306C79.5982 75.3306 80.3262 74.1393 80.3262 72.6966C80.3262 71.2538 79.5982 70.0626 78.0893 70.0626C76.5671 70.0626 75.8391 71.2538 75.8391 72.6966C75.8391 74.1393 76.5671 75.3306 78.0893 75.3306ZM85.1412 69.136C84.175 69.136 83.6323 69.7714 83.2749 70.6582H83.2485V69.3213H82.1896V76.0718H83.2485V72.4715C83.2485 71.0288 84.2676 69.9964 85.7369 70.2346H85.7633V69.1757C85.578 69.1493 85.3927 69.136 85.1412 69.136ZM87.1237 68.011C87.4281 68.011 87.7855 67.7859 87.7855 67.3756C87.7855 66.9653 87.4281 66.7403 87.1237 66.7403C86.8325 66.7403 86.4618 66.9653 86.4618 67.3756C86.4618 67.7859 86.8325 68.011 87.1237 68.011ZM86.5942 69.3213V76.0718H87.6531V69.3213H86.5942ZM91.7161 72.0612C90.7763 71.8362 89.863 71.77 89.863 70.9759C89.863 70.4464 90.3792 70.0626 91.3322 70.0626C92.6029 70.0626 92.8544 70.7376 92.9603 71.2538H94.0192C93.9133 70.089 93.0132 69.136 91.3322 69.136C89.7439 69.136 88.8041 69.9964 88.8041 71.0553C88.8041 72.6436 90.3395 72.7627 91.3719 73.0142C92.3382 73.2525 93.225 73.3054 93.225 74.2849C93.225 74.7349 92.775 75.3306 91.6234 75.3306C89.9292 75.3306 89.6645 74.5761 89.5983 73.8216H88.5394C88.6056 75.2776 89.5586 76.2571 91.6234 76.2571C93.1588 76.2571 94.2839 75.4497 94.2839 74.2187C94.2839 72.551 92.9206 72.3524 91.7161 72.0612ZM98.0467 75.3306C96.5775 75.3306 95.8495 74.1922 95.8495 72.9745H101.184C101.184 70.5788 100.151 69.136 98.0334 69.136C96.0613 69.136 94.7906 70.4464 94.7906 72.6966C94.7906 74.8143 96.0348 76.2571 98.0864 76.2571C99.7674 76.2571 100.734 75.2511 101.078 73.9937H100.019C99.8997 74.457 99.3968 75.3306 98.0467 75.3306ZM98.0334 70.0626C99.3041 70.0626 100.125 70.9626 100.125 72.048H95.8495C95.8495 70.9626 96.7628 70.0626 98.0334 70.0626ZM106.772 66.6079V70.1949H106.746C106.348 69.6125 105.713 69.136 104.628 69.136C102.933 69.136 101.583 70.4729 101.583 72.6966C101.583 74.9202 102.933 76.2571 104.628 76.2571C105.713 76.2571 106.348 75.7541 106.746 75.2379H106.772V76.0718H107.831V66.6079H106.772ZM104.734 75.3306C103.344 75.3306 102.642 74.0202 102.642 72.6966C102.642 71.3729 103.344 70.0626 104.734 70.0626C105.991 70.0626 106.772 71.1082 106.772 72.6966C106.772 74.2849 105.991 75.3306 104.734 75.3306ZM115.533 71.042C115.533 71.7171 115.017 71.8627 113.879 72.0745C112.132 72.4054 110.993 72.8024 110.993 74.3378C110.993 75.4762 111.854 76.2571 113.217 76.2571C114.329 76.2571 115.083 75.86 115.507 75.2247H115.533C115.719 75.9659 116.103 76.138 116.738 76.138C116.936 76.138 117.082 76.1247 117.36 76.0321V75.2908C116.685 75.3703 116.592 75.0791 116.592 74.5496V71.2671C116.592 69.639 115.441 69.136 114.157 69.136C112.198 69.136 111.39 70.1155 111.324 71.4127H112.383C112.449 70.4332 112.873 70.0626 114.157 70.0626C115.242 70.0626 115.533 70.5126 115.533 71.042ZM113.323 75.3306C112.449 75.3306 112.052 74.9467 112.052 74.2849C112.052 73.4775 112.661 73.1466 113.972 72.8686C114.686 72.723 115.335 72.5377 115.533 72.3392V73.4643C115.533 74.7614 114.58 75.3306 113.323 75.3306ZM121.195 69.136C120.044 69.136 119.329 69.6522 118.972 70.1287H118.945V69.3213H117.886V76.0718H118.945V71.8627C118.945 70.817 119.739 70.0626 120.931 70.0626C121.99 70.0626 122.4 70.7508 122.4 71.6244V76.0718H123.459V71.3597C123.459 69.8111 122.426 69.136 121.195 69.136ZM129.419 66.6079V70.1949H129.393C128.996 69.6125 128.36 69.136 127.275 69.136C125.581 69.136 124.231 70.4729 124.231 72.6966C124.231 74.9202 125.581 76.2571 127.275 76.2571C128.36 76.2571 128.996 75.7541 129.393 75.2379H129.419V76.0718H130.478V66.6079H129.419ZM127.381 75.3306C125.991 75.3306 125.29 74.0202 125.29 72.6966C125.29 71.3729 125.991 70.0626 127.381 70.0626C128.638 70.0626 129.419 71.1082 129.419 72.6966C129.419 74.2849 128.638 75.3306 127.381 75.3306ZM43.4272 85.136C42.461 85.136 41.9183 85.7714 41.5609 86.6582H41.5344V85.3213H40.4755V92.0718H41.5344V88.4715C41.5344 87.0288 42.5536 85.9964 44.0228 86.2346H44.0493V85.1757C43.864 85.1493 43.6787 85.136 43.4272 85.136ZM47.3615 91.3306C45.8923 91.3306 45.1643 90.1922 45.1643 88.9745H50.4985C50.4985 86.5788 49.4661 85.136 47.3483 85.136C45.3761 85.136 44.1055 86.4464 44.1055 88.6966C44.1055 90.8143 45.3497 92.2571 47.4013 92.2571C49.0822 92.2571 50.0485 91.2511 50.3926 89.9937H49.3337C49.2146 90.457 48.7116 91.3306 47.3615 91.3306ZM47.3483 86.0626C48.619 86.0626 49.4396 86.9626 49.4396 88.048H45.1643C45.1643 86.9626 46.0776 86.0626 47.3483 86.0626ZM56.0869 85.3213V86.1552H56.0604C55.6633 85.639 55.028 85.136 53.9161 85.136C52.2484 85.136 50.8983 86.2082 50.8983 88.4318C50.8983 90.6555 52.2484 91.7276 53.9161 91.7276C55.028 91.7276 55.6633 91.2511 56.0604 90.6687H56.0869V91.6879C56.0869 92.9454 55.3589 93.488 54.1014 93.488C52.844 93.488 52.2881 92.9718 52.1557 92.2836H51.0968C51.2027 93.4351 52.3013 94.4146 54.1544 94.4146C56.0074 94.4146 57.1457 93.5013 57.1457 91.7012V85.3213H56.0869ZM54.0485 90.8011C52.6587 90.8011 51.9572 89.7555 51.9572 88.4318C51.9572 87.1082 52.6587 86.0626 54.0485 86.0626C55.3059 86.0626 56.0869 86.8435 56.0869 88.4318C56.0869 90.0202 55.3059 90.8011 54.0485 90.8011ZM62.8073 85.3213V89.5304C62.8073 90.5761 62.0131 91.3306 60.8219 91.3306C59.763 91.3306 59.3527 90.6423 59.3527 89.7687V85.3213H58.2938V90.0334C58.2938 91.582 59.3262 92.2571 60.5572 92.2571C61.7087 92.2571 62.4235 91.7409 62.7808 91.2644H62.8073V92.0718H63.8662V85.3213H62.8073ZM65.1014 82.6079V92.0718H66.1603V82.6079H65.1014ZM71.5248 87.042C71.5248 87.7171 71.0085 87.8627 69.8702 88.0745C68.1231 88.4054 66.9848 88.8024 66.9848 90.3378C66.9848 91.4762 67.8451 92.2571 69.2084 92.2571C70.3203 92.2571 71.0747 91.86 71.4983 91.2247H71.5248C71.7101 91.9659 72.0939 92.138 72.7292 92.138C72.9278 92.138 73.0734 92.1247 73.3513 92.0321V91.2908C72.6763 91.3703 72.5836 91.0791 72.5836 90.5496V87.2671C72.5836 85.639 71.4321 85.136 70.1482 85.136C68.1892 85.136 67.3818 86.1155 67.3157 87.4127H68.3745C68.4407 86.4332 68.8643 86.0626 70.1482 86.0626C71.2336 86.0626 71.5248 86.5126 71.5248 87.042ZM69.3143 91.3306C68.4407 91.3306 68.0436 90.9467 68.0436 90.2849C68.0436 89.4775 68.6525 89.1466 69.9629 88.8686C70.6776 88.723 71.3262 88.5377 71.5248 88.3392V89.4643C71.5248 90.7614 70.5717 91.3306 69.3143 91.3306ZM76.6868 86.2479V85.3213H75.3632V83.0712H74.3043V85.3213H73.3116V86.2479H74.3043V90.4173C74.3043 91.7938 74.9926 92.1512 75.8927 92.1512C76.1706 92.1512 76.4486 92.1247 76.6868 92.0718V91.1452C75.7868 91.2114 75.3632 91.0791 75.3632 90.3114V86.2479H76.6868ZM80.3371 91.3306C78.8679 91.3306 78.1399 90.1922 78.1399 88.9745H83.4741C83.4741 86.5788 82.4417 85.136 80.3239 85.136C78.3517 85.136 77.081 86.4464 77.081 88.6966C77.081 90.8143 78.3252 92.2571 80.3768 92.2571C82.0578 92.2571 83.0241 91.2511 83.3682 89.9937H82.3093C82.1902 90.457 81.6872 91.3306 80.3371 91.3306ZM80.3239 86.0626C81.5946 86.0626 82.4152 86.9626 82.4152 88.048H78.1399C78.1399 86.9626 79.0532 86.0626 80.3239 86.0626ZM89.0624 82.6079V86.1949H89.036C88.6389 85.6125 88.0035 85.136 86.9182 85.136C85.224 85.136 83.8739 86.4729 83.8739 88.6966C83.8739 90.9202 85.224 92.2571 86.9182 92.2571C88.0035 92.2571 88.6389 91.7541 89.036 91.2379H89.0624V92.0718H90.1213V82.6079H89.0624ZM87.0241 91.3306C85.6343 91.3306 84.9328 90.0202 84.9328 88.6966C84.9328 87.3729 85.6343 86.0626 87.0241 86.0626C88.2815 86.0626 89.0624 87.1082 89.0624 88.6966C89.0624 90.2849 88.2815 91.3306 87.0241 91.3306ZM96.8973 85.136C95.8119 85.136 95.1766 85.6125 94.7795 86.1949H94.753V82.6079H93.6942V92.0718H94.753V91.2379H94.7795C95.1766 91.7541 95.8119 92.2571 96.8973 92.2571C98.5915 92.2571 99.9416 90.9202 99.9416 88.6966C99.9416 86.4729 98.5915 85.136 96.8973 85.136ZM96.7914 91.3306C95.534 91.3306 94.753 90.2849 94.753 88.6966C94.753 87.1082 95.534 86.0626 96.7914 86.0626C98.1812 86.0626 98.8827 87.3729 98.8827 88.6966C98.8827 90.0202 98.1812 91.3306 96.7914 91.3306ZM106.334 85.3213H105.143L103.197 90.8276H103.171L101.106 85.3213H99.9147L102.469 91.5159C102.734 92.1777 102.456 92.7468 102.178 93.0513C101.821 93.4351 101.41 93.4748 100.828 93.4219H100.669V94.216C100.841 94.269 101.146 94.3484 101.569 94.3484C102.813 94.3484 103.158 93.3557 103.449 92.6277L106.334 85.3213ZM112.151 86.2479V85.3213H110.827V83.0712H109.768V85.3213H108.776V86.2479H109.768V90.4173C109.768 91.7938 110.457 92.1512 111.357 92.1512C111.635 92.1512 111.913 92.1247 112.151 92.0718V91.1452C111.251 91.2114 110.827 91.0791 110.827 90.3114V86.2479H112.151ZM116.303 85.136C115.151 85.136 114.436 85.6522 114.079 86.1287H114.052V82.6079H112.994V92.0718H114.052V87.8627C114.052 86.817 114.847 86.0626 116.038 86.0626C117.097 86.0626 117.507 86.7508 117.507 87.6244V92.0718H118.566V87.3597C118.566 85.8111 117.534 85.136 116.303 85.136ZM122.594 91.3306C121.125 91.3306 120.397 90.1922 120.397 88.9745H125.731C125.731 86.5788 124.699 85.136 122.581 85.136C120.609 85.136 119.338 86.4464 119.338 88.6966C119.338 90.8143 120.582 92.2571 122.634 92.2571C124.315 92.2571 125.281 91.2511 125.625 89.9937H124.566C124.447 90.457 123.944 91.3306 122.594 91.3306ZM122.581 86.0626C123.851 86.0626 124.672 86.9626 124.672 88.048H120.397C120.397 86.9626 121.31 86.0626 122.581 86.0626ZM41.8256 102.738V99.6668H47.0539V98.6079H40.6344V108.072H41.8256V103.797H46.048V102.738H41.8256ZM48.5248 100.011C48.8292 100.011 49.1866 99.7859 49.1866 99.3756C49.1866 98.9653 48.8292 98.7403 48.5248 98.7403C48.2336 98.7403 47.863 98.9653 47.863 99.3756C47.863 99.7859 48.2336 100.011 48.5248 100.011ZM47.9953 101.321V108.072H49.0542V101.321H47.9953ZM53.6864 101.136C52.5348 101.136 51.8201 101.652 51.4627 102.129H51.4362V101.321H50.3773V108.072H51.4362V103.863C51.4362 102.817 52.2304 102.063 53.4216 102.063C54.4805 102.063 54.8908 102.751 54.8908 103.624V108.072H55.9497V103.36C55.9497 101.811 54.9173 101.136 53.6864 101.136ZM61.2352 103.042C61.2352 103.717 60.719 103.863 59.5807 104.074C57.8335 104.405 56.6952 104.802 56.6952 106.338C56.6952 107.476 57.5555 108.257 58.9189 108.257C60.0307 108.257 60.7852 107.86 61.2087 107.225H61.2352C61.4205 107.966 61.8044 108.138 62.4397 108.138C62.6382 108.138 62.7838 108.125 63.0618 108.032V107.291C62.3867 107.37 62.2941 107.079 62.2941 106.55V103.267C62.2941 101.639 61.1425 101.136 59.8586 101.136C57.8997 101.136 57.0923 102.116 57.0261 103.413H58.085C58.1512 102.433 58.5747 102.063 59.8586 102.063C60.944 102.063 61.2352 102.513 61.2352 103.042ZM59.0248 107.331C58.1512 107.331 57.7541 106.947 57.7541 106.285C57.7541 105.477 58.363 105.147 59.6733 104.869C60.3881 104.723 61.0367 104.538 61.2352 104.339V105.464C61.2352 106.761 60.2822 107.331 59.0248 107.331ZM66.8972 101.136C65.7456 101.136 65.0309 101.652 64.6735 102.129H64.647V101.321H63.5881V108.072H64.647V103.863C64.647 102.817 65.4412 102.063 66.6324 102.063C67.6913 102.063 68.1017 102.751 68.1017 103.624V108.072H69.1605V103.36C69.1605 101.811 68.1281 101.136 66.8972 101.136ZM75.1078 103.757H76.1667C76.0079 102.248 74.8696 101.136 73.2018 101.136C71.2296 101.136 69.9325 102.579 69.9325 104.697C69.9325 106.814 71.2296 108.257 73.2018 108.257C74.8696 108.257 76.0741 107.119 76.1667 105.583H75.1078C75.0549 106.391 74.5651 107.331 73.2018 107.331C71.6002 107.331 70.9914 105.967 70.9914 104.697C70.9914 103.426 71.6002 102.063 73.2018 102.063C74.5519 102.063 75.0549 103.016 75.1078 103.757ZM77.5771 100.011C77.8815 100.011 78.2389 99.7859 78.2389 99.3756C78.2389 98.9653 77.8815 98.7403 77.5771 98.7403C77.2859 98.7403 76.9153 98.9653 76.9153 99.3756C76.9153 99.7859 77.2859 100.011 77.5771 100.011ZM77.0476 101.321V108.072H78.1065V101.321H77.0476ZM83.5593 103.042C83.5593 103.717 83.0431 103.863 81.9048 104.074C80.1576 104.405 79.0193 104.802 79.0193 106.338C79.0193 107.476 79.8797 108.257 81.243 108.257C82.3548 108.257 83.1093 107.86 83.5328 107.225H83.5593C83.7446 107.966 84.1285 108.138 84.7638 108.138C84.9623 108.138 85.1079 108.125 85.3859 108.032V107.291C84.7108 107.37 84.6182 107.079 84.6182 106.55V103.267C84.6182 101.639 83.4666 101.136 82.1827 101.136C80.2238 101.136 79.4164 102.116 79.3502 103.413H80.4091C80.4753 102.433 80.8988 102.063 82.1827 102.063C83.2681 102.063 83.5593 102.513 83.5593 103.042ZM81.3489 107.331C80.4753 107.331 80.0782 106.947 80.0782 106.285C80.0782 105.477 80.6871 105.147 81.9974 104.869C82.7122 104.723 83.3608 104.538 83.5593 104.339V105.464C83.5593 106.761 82.6063 107.331 81.3489 107.331ZM85.9519 98.6079V108.072H87.0108V98.6079H85.9519ZM97.6459 101.732H98.8371C98.6121 99.9315 97.1297 98.4226 94.8133 98.4226C92.2191 98.4226 90.4322 100.487 90.4322 103.333C90.4322 106.192 92.2191 108.257 94.8133 108.257C97.1429 108.257 98.6253 106.748 98.8371 104.657H97.6459C97.5665 105.848 96.7988 107.198 94.8133 107.198C92.5632 107.198 91.6234 105.252 91.6234 103.333C91.6234 101.427 92.5632 99.4815 94.8133 99.4815C96.7855 99.4815 97.4738 100.832 97.6459 101.732ZM102.675 108.257C100.611 108.257 99.3664 106.801 99.3664 104.697C99.3664 102.592 100.611 101.136 102.675 101.136C104.727 101.136 105.971 102.592 105.971 104.697C105.971 106.801 104.727 108.257 102.675 108.257ZM102.675 107.331C104.184 107.331 104.912 106.139 104.912 104.697C104.912 103.254 104.184 102.063 102.675 102.063C101.153 102.063 100.425 103.254 100.425 104.697C100.425 106.139 101.153 107.331 102.675 107.331ZM110.085 101.136C108.933 101.136 108.218 101.652 107.861 102.129H107.835V101.321H106.776V108.072H107.835V103.863C107.835 102.817 108.629 102.063 109.82 102.063C110.879 102.063 111.289 102.751 111.289 103.624V108.072H112.348V103.36C112.348 101.811 111.316 101.136 110.085 101.136ZM118.309 98.6079V102.195H118.282C117.885 101.613 117.25 101.136 116.164 101.136C114.47 101.136 113.12 102.473 113.12 104.697C113.12 106.92 114.47 108.257 116.164 108.257C117.25 108.257 117.885 107.754 118.282 107.238H118.309V108.072H119.368V98.6079H118.309ZM116.27 107.331C114.88 107.331 114.179 106.02 114.179 104.697C114.179 103.373 114.88 102.063 116.27 102.063C117.528 102.063 118.309 103.108 118.309 104.697C118.309 106.285 117.528 107.331 116.27 107.331ZM125.029 101.321V105.53C125.029 106.576 124.235 107.331 123.044 107.331C121.985 107.331 121.574 106.642 121.574 105.769V101.321H120.516V106.033C120.516 107.582 121.548 108.257 122.779 108.257C123.93 108.257 124.645 107.741 125.003 107.264H125.029V108.072H126.088V101.321H125.029ZM132.075 103.757H133.134C132.975 102.248 131.837 101.136 130.169 101.136C128.197 101.136 126.9 102.579 126.9 104.697C126.9 106.814 128.197 108.257 130.169 108.257C131.837 108.257 133.041 107.119 133.134 105.583H132.075C132.022 106.391 131.532 107.331 130.169 107.331C128.567 107.331 127.959 105.967 127.959 104.697C127.959 103.426 128.567 102.063 130.169 102.063C131.519 102.063 132.022 103.016 132.075 103.757ZM136.821 102.248V101.321H135.497V99.0712H134.438V101.321H133.446V102.248H134.438V106.417C134.438 107.794 135.127 108.151 136.027 108.151C136.305 108.151 136.583 108.125 136.821 108.072V107.145C135.921 107.211 135.497 107.079 135.497 106.311V102.248H136.821ZM46.1141 121.703L46.948 124.072H48.179L44.6979 114.608H43.3743L39.8799 124.072H41.1109L41.9448 121.703H46.1141ZM42.3418 120.644L44.0228 115.707H44.0493L45.7303 120.644H42.3418ZM53.0606 117.321V121.53C53.0606 122.576 52.2665 123.331 51.0752 123.331C50.0163 123.331 49.606 122.642 49.606 121.769V117.321H48.5471V122.033C48.5471 123.582 49.5795 124.257 50.8105 124.257C51.962 124.257 52.6768 123.741 53.0342 123.264H53.0606V124.072H54.1195V117.321H53.0606ZM58.2534 118.248V117.321H56.9298V115.071H55.8709V117.321H54.8782V118.248H55.8709V122.417C55.8709 123.794 56.5592 124.151 57.4593 124.151C57.7372 124.151 58.0152 124.125 58.2534 124.072V123.145C57.3534 123.211 56.9298 123.079 56.9298 122.311V118.248H58.2534ZM62.4052 117.136C61.2536 117.136 60.5389 117.652 60.1815 118.129H60.155V114.608H59.0961V124.072H60.155V119.863C60.155 118.817 60.9492 118.063 62.1404 118.063C63.1993 118.063 63.6096 118.751 63.6096 119.624V124.072H64.6685V119.36C64.6685 117.811 63.6361 117.136 62.4052 117.136ZM68.7495 124.257C66.6847 124.257 65.4405 122.801 65.4405 120.697C65.4405 118.592 66.6847 117.136 68.7495 117.136C70.8011 117.136 72.0453 118.592 72.0453 120.697C72.0453 122.801 70.8011 124.257 68.7495 124.257ZM68.7495 123.331C70.2584 123.331 70.9864 122.139 70.9864 120.697C70.9864 119.254 70.2584 118.063 68.7495 118.063C67.2273 118.063 66.4994 119.254 66.4994 120.697C66.4994 122.139 67.2273 123.331 68.7495 123.331ZM75.8015 117.136C74.8352 117.136 74.2926 117.771 73.9352 118.658H73.9087V117.321H72.8498V124.072H73.9087V120.472C73.9087 119.029 74.9279 117.996 76.3971 118.235H76.4236V117.176C76.2383 117.149 76.053 117.136 75.8015 117.136ZM77.7839 116.011C78.0883 116.011 78.4457 115.786 78.4457 115.376C78.4457 114.965 78.0883 114.74 77.7839 114.74C77.4927 114.74 77.1221 114.965 77.1221 115.376C77.1221 115.786 77.4927 116.011 77.7839 116.011ZM77.2544 117.321V124.072H78.3133V117.321H77.2544ZM82.5749 118.248V117.321H81.2512V115.071H80.1924V117.321H79.1996V118.248H80.1924V122.417C80.1924 123.794 80.8806 124.151 81.7807 124.151C82.0587 124.151 82.3366 124.125 82.5749 124.072V123.145C81.6748 123.211 81.2512 123.079 81.2512 122.311V118.248H82.5749ZM89.1355 117.321H87.9443L85.9986 122.828H85.9721L83.9073 117.321H82.716L85.2706 123.516C85.5353 124.178 85.2574 124.747 84.9794 125.051C84.622 125.435 84.2117 125.475 83.6293 125.422H83.4705V126.216C83.6425 126.269 83.947 126.348 84.3705 126.348C85.6147 126.348 85.9589 125.356 86.2501 124.628L89.1355 117.321Z" fill="#1D1D1D"/>
</g>
<path d="M54.7242 56.6539H57.9146V48.3027H57.9521L60.4481 56.6539H62.8127L65.3087 48.3027H65.3462V56.6539H68.5365V43.2357H64.4079L61.6491 51.7933H61.6116L58.8529 43.2357H54.7242V56.6539ZM75.8553 47.0454V52.6003C75.8553 53.9328 75.1984 54.5145 74.0537 54.5145C73.059 54.5145 72.5523 54.0266 72.5523 52.5815V47.0454H69.5497V53.5387C69.5497 55.7344 70.807 56.9542 72.6649 56.9542C74.3727 56.9542 75.311 56.1472 75.8177 55.2652H75.8553V56.6539H78.858V47.0454H75.8553ZM79.7834 43.2357V56.6539H82.7861V43.2357H79.7834ZM89.1899 49.2974V47.0454H87.5197V44.3617H84.517V47.0454H83.1846V49.2974H84.517V53.5011C84.517 55.6593 85.1363 56.8228 87.332 56.8228C88.1765 56.8228 88.6457 56.729 89.1899 56.6164V54.3644C87.9138 54.3644 87.5197 54.3644 87.5197 53.2759V49.2974H89.1899ZM91.2277 45.9006C92.0722 45.9006 92.7291 45.4502 92.7291 44.5681C92.7291 43.7049 92.0722 43.2357 91.2277 43.2357C90.3832 43.2357 89.7264 43.7049 89.7264 44.5681C89.7264 45.4502 90.3832 45.9006 91.2277 45.9006ZM89.7264 47.0454V56.6539H92.7291V47.0454H89.7264ZM99.4528 46.7451C98.0641 46.7451 97.0507 47.4958 96.6754 48.0025H96.6378V47.0454H93.6352V59.9756H96.6378V55.6968H96.6754C97.0507 56.2035 98.0641 56.9542 99.4528 56.9542C102.005 56.9542 103.638 55.0025 103.638 51.8496C103.638 48.6968 102.005 46.7451 99.4528 46.7451ZM98.6646 54.7022C97.4448 54.7022 96.6941 53.7263 96.6941 51.8496C96.6941 49.973 97.4448 48.9971 98.6646 48.9971C99.8845 48.9971 100.635 49.973 100.635 51.8496C100.635 53.7263 99.8845 54.7022 98.6646 54.7022ZM104.197 43.2357V56.6539H107.2V43.2357H104.197ZM117.376 47.0454H114.373L112.553 53.351H112.515L110.338 47.0454H107.335L110.469 55.2652C110.77 56.1097 110.826 56.7102 110.545 57.1419C110.226 57.6298 109.55 57.7236 108.724 57.536H108.687V59.788C109.306 59.9193 109.85 59.9756 110.357 59.9756C112.384 59.9756 113.285 59.3 114.11 56.8416L117.376 47.0454Z" fill="#1F1D1D"/>
<defs>
<filter id="filter0_d_399_3419" x="16.4621" y="47.2628" width="143.777" height="106.576" filterUnits="userSpaceOnUse" color-interpolation-filters="sRGB">
<feFlood flood-opacity="0" result="BackgroundImageFix"/>
<feColorMatrix in="SourceAlpha" type="matrix" values="0 0 0 0 0 0 0 0 0 0 0 0 0 0 0 0 0 0 127 0" result="hardAlpha"/>
<feOffset dy="4.07266"/>
<feGaussianBlur stdDeviation="11.7089"/>
<feComposite in2="hardAlpha" operator="out"/>
<feColorMatrix type="matrix" values="0 0 0 0 0 0 0 0 0 0 0 0 0 0 0 0 0 0 0.35 0"/>
<feBlend mode="normal" in2="BackgroundImageFix" result="effect1_dropShadow_399_3419"/>
<feBlend mode="normal" in="SourceGraphic" in2="effect1_dropShadow_399_3419" result="shape"/>
</filter>
</defs>
</svg>
