<svg width="592" height="456" viewBox="0 0 592 456" fill="none" xmlns="http://www.w3.org/2000/svg">
<path d="M253.857 67.9184C285.282 67.2363 327.705 76.52 353.529 94.4392C379.353 112.358 398.841 137.993 409.2 167.669L408.094 168.055C397.816 138.613 378.481 113.18 352.86 95.4022C327.24 77.6241 285.06 68.4136 253.883 69.0903L31.2121 69.0904L31.2121 67.9182L253.857 67.9184Z" fill="#316AFB"/>
<path d="M349.942 384.91C379.445 374.067 404.757 354.161 422.251 328.048C439.745 301.934 448.523 270.952 447.327 239.542L446.155 239.587C447.342 270.749 438.633 301.487 421.277 327.395C403.921 353.303 378.808 373.052 349.538 383.81L349.942 384.91Z" fill="#316AFB"/>
<path d="M128.375 263.129C120.449 232.713 122.356 200.568 133.823 171.302C145.289 142.036 165.726 117.151 192.205 100.214L192.837 101.202C166.566 118.005 146.29 142.694 134.914 171.729C123.538 200.765 121.646 232.657 129.509 262.834L128.375 263.129Z" fill="#316AFB"/>
<path d="M418.824 252.352C404.049 333.216 326.518 386.791 245.654 372.016C164.79 357.241 111.214 279.71 125.989 198.846C140.765 117.982 218.295 64.4068 299.159 79.1819C380.023 93.9571 433.599 171.488 418.824 252.352ZM127.143 199.057C112.484 279.284 165.637 356.204 245.865 370.863C326.092 385.522 403.012 332.368 417.671 252.141C432.33 171.914 379.176 94.9938 298.949 80.335C218.722 65.6763 141.801 118.83 127.143 199.057Z" fill="#316AFB"/>
<path d="M428.769 259.36C413.994 340.224 336.463 393.799 255.599 379.024C174.735 364.249 121.16 286.718 135.935 205.854C150.71 124.99 228.241 71.4146 309.105 86.1898C389.969 100.965 443.544 178.496 428.769 259.36ZM137.088 206.065C122.429 286.292 175.583 363.212 255.81 377.871C336.037 392.53 412.957 339.376 427.616 259.149C442.275 178.922 389.121 102.002 308.894 87.3429C228.667 72.6841 151.747 125.838 137.088 206.065Z" fill="#316AFB"/>
<path d="M342.802 378.938C372.304 368.094 397.616 348.189 415.11 322.075C432.604 295.961 441.382 264.979 440.186 233.57L439.015 233.614C440.202 264.776 431.493 295.514 414.136 321.422C396.78 347.331 371.667 367.079 342.397 377.838L342.802 378.938Z" fill="#316AFB"/>
<path d="M253.397 95.8497C222.146 104.553 194.594 123.227 174.934 149.031C155.274 174.835 144.583 206.356 144.487 238.796L145.659 238.799C145.754 206.615 156.361 175.342 175.866 149.742C195.371 124.141 222.706 105.613 253.711 96.979L253.397 95.8497Z" fill="#316AFB"/>
<path d="M19.0635 41.2957C19.0635 42.6449 18.254 43.8861 15.8974 43.8861V46.0448C16.7789 46.0448 17.8223 46.0448 18.5238 45.3253V53.7261H21.5819V41.2957H19.0635Z" fill="white"/>
<path d="M24.8424 53.888C25.6879 53.888 26.3715 53.2944 26.3715 52.3589C26.3715 51.4415 25.6879 50.8299 24.8424 50.8299C23.979 50.8299 23.3134 51.4415 23.3134 52.3589C23.3134 53.2944 23.979 53.888 24.8424 53.888Z" fill="white"/>
<path d="M36.7385 54.0139C40.786 54.0139 43.1066 51.1717 43.1066 47.286C43.1066 43.4184 40.786 40.5762 36.7385 40.5762C32.655 40.5762 30.3704 43.4184 30.3704 47.286C30.3704 51.1717 32.655 54.0139 36.7385 54.0139ZM36.7385 51.3695C34.3819 51.3695 33.6084 49.5347 33.6084 47.286C33.6084 45.0554 34.3819 43.2205 36.7385 43.2205C39.077 43.2205 39.8685 45.0554 39.8685 47.286C39.8685 49.5347 39.077 51.3695 36.7385 51.3695Z" fill="white"/>
<path d="M50.1051 44.2279C48.4681 44.2279 47.5687 45.0015 47.083 45.8469H47.047V44.5157H44.1687V53.7261H47.047V48.4014C47.047 47.1241 47.6766 46.5665 48.7739 46.5665C49.7273 46.5665 50.213 47.0342 50.213 48.4193V53.7261H53.0913V47.5019C53.0913 45.3972 51.886 44.2279 50.1051 44.2279Z" fill="white"/>
<path d="M60.0046 44.2279C58.6735 44.2279 57.702 44.9475 57.3423 45.4332H57.3063V40.864H54.4281V53.7261H57.3063V52.8086H57.3423C57.702 53.2944 58.6735 54.0139 60.0046 54.0139C62.4511 54.0139 64.0162 52.1431 64.0162 49.1209C64.0162 46.0988 62.4511 44.2279 60.0046 44.2279ZM59.2491 51.8552C58.0798 51.8552 57.3603 50.9198 57.3603 49.1209C57.3603 47.322 58.0798 46.3866 59.2491 46.3866C60.4184 46.3866 61.1379 47.322 61.1379 49.1209C61.1379 50.9198 60.4184 51.8552 59.2491 51.8552Z" fill="white"/>
<path d="M69.5188 54.0139C66.4427 54.0139 64.5898 51.9812 64.5898 49.1209C64.5898 46.2607 66.4427 44.2279 69.5188 44.2279C72.5769 44.2279 74.4298 46.2607 74.4298 49.1209C74.4298 51.9812 72.5769 54.0139 69.5188 54.0139ZM69.5188 51.8552C70.778 51.8552 71.5516 50.9018 71.5516 49.1209C71.5516 47.34 70.778 46.3866 69.5188 46.3866C68.2416 46.3866 67.4681 47.34 67.4681 49.1209C67.4681 50.9018 68.2416 51.8552 69.5188 51.8552Z" fill="white"/>
<path d="M80.8537 47.0702C80.8537 47.8437 79.6844 48.0236 78.4971 48.2574C76.3384 48.6892 74.9893 49.5347 74.9893 51.3695C74.9893 52.9166 76.0686 54.0139 78.0114 54.0139C79.2347 54.0139 80.314 53.4383 80.9076 52.7547H80.9436C80.9436 53.4023 81.3034 54.0139 82.5986 54.0139C83.1742 54.0139 83.6959 53.942 84.2716 53.7261V53.0425C83.9118 53.0425 83.7319 52.8446 83.7319 52.3589V48.1315C83.7319 45.2353 82.2928 44.2279 79.7024 44.2279C76.6982 44.2279 75.439 45.721 75.3491 47.4839H78.0474C78.1373 46.6025 78.641 46.2067 79.6844 46.2067C80.4759 46.2067 80.8537 46.5305 80.8537 47.0702ZM79.0188 52.0351C78.3172 52.0351 77.8675 51.7113 77.8675 50.9558C77.8675 50.3801 78.2453 49.9124 79.3786 49.6606C80.0442 49.5167 80.4939 49.3908 80.8537 49.2468V50.3622C80.8537 51.2436 80.26 52.0351 79.0188 52.0351Z" fill="white"/>
<path d="M90.5269 44.3538C89.5196 44.3538 88.728 45.0015 88.2783 46.0268H88.2423V44.5157H85.3641V53.7261H88.2423V49.4447C88.2423 47.4839 89.8074 46.6744 91.2825 46.9443H91.3185V44.4258C90.9947 44.3538 90.7788 44.3538 90.5269 44.3538Z" fill="white"/>
<path d="M98.371 40.864V45.4332H98.335C97.9752 44.9475 97.0038 44.2279 95.6726 44.2279C93.2261 44.2279 91.6611 46.0988 91.6611 49.1209C91.6611 52.1431 93.2261 54.0139 95.6726 54.0139C97.0038 54.0139 97.9752 53.2944 98.335 52.8086H98.371V53.7261H101.249V40.864H98.371ZM96.4282 51.8552C95.2589 51.8552 94.5393 50.9198 94.5393 49.1209C94.5393 47.322 95.2589 46.3866 96.4282 46.3866C97.5974 46.3866 98.317 47.322 98.317 49.1209C98.317 50.9198 97.5974 51.8552 96.4282 51.8552Z" fill="white"/>
<path d="M378.591 81.6444C378.591 79.9336 379.365 79.2852 380.536 79.2852C381.508 79.2852 382.048 79.8615 382.048 80.816C382.048 82.4548 379.941 83.4273 377.708 85.2822C376.61 86.2006 375.529 87.4793 375.529 89.5503H385.11V87.0831H379.833V87.0471C381.436 85.4623 385.11 83.8775 385.11 80.5999C385.11 78.2227 383.309 76.818 380.626 76.818C377.258 76.818 375.709 78.727 375.709 81.6444H378.591Z" fill="white"/>
<path d="M387.704 89.7124C388.55 89.7124 389.235 89.1181 389.235 88.1816C389.235 87.2632 388.55 86.6509 387.704 86.6509C386.84 86.6509 386.173 87.2632 386.173 88.1816C386.173 89.1181 386.84 89.7124 387.704 89.7124Z" fill="white"/>
<path d="M397.002 82.1486V79.3213H403.341V76.6739H393.76V89.5503H397.002V84.796H402.171V82.1486H397.002Z" fill="white"/>
<path d="M408.956 82.887C408.956 83.6614 407.785 83.8415 406.596 84.0756C404.435 84.5078 403.085 85.3542 403.085 87.1911C403.085 88.7399 404.165 89.8385 406.11 89.8385C407.335 89.8385 408.415 89.2622 409.01 88.5778H409.046C409.046 89.2261 409.406 89.8385 410.702 89.8385C411.279 89.8385 411.801 89.7664 412.377 89.5503V88.866C412.017 88.866 411.837 88.6679 411.837 88.1816V83.9495C411.837 81.0501 410.396 80.0416 407.803 80.0416C404.796 80.0416 403.535 81.5363 403.445 83.3012H406.146C406.236 82.4188 406.74 82.0226 407.785 82.0226C408.577 82.0226 408.956 82.3467 408.956 82.887ZM407.119 87.8575C406.416 87.8575 405.966 87.5333 405.966 86.7769C405.966 86.2006 406.344 85.7324 407.479 85.4803C408.145 85.3362 408.595 85.2102 408.956 85.0661V86.1826C408.956 87.0651 408.361 87.8575 407.119 87.8575Z" fill="white"/>
<path d="M419.432 83.7695H422.259C422.025 81.6264 420.422 80.0416 417.739 80.0416C414.894 80.0416 413.057 82.0766 413.057 84.94C413.057 87.8215 414.894 89.8385 417.811 89.8385C420.458 89.8385 422.115 88.2537 422.259 86.0746H419.432C419.342 86.903 418.946 87.6774 417.793 87.6774C416.587 87.6774 415.938 86.6689 415.938 84.94C415.938 83.2112 416.605 82.2027 417.793 82.2027C418.946 82.2027 419.342 83.0311 419.432 83.7695Z" fill="white"/>
<path d="M428.455 82.4908V80.3298H426.852V77.7545H423.971V80.3298H422.692V82.4908H423.971V86.5248C423.971 88.5958 424.565 89.7124 426.672 89.7124C427.483 89.7124 427.933 89.6223 428.455 89.5143V87.3532C427.23 87.3532 426.852 87.3532 426.852 86.3087V82.4908H428.455Z" fill="white"/>
<path d="M437.919 78.853V76.6919C437.397 76.5839 436.946 76.5119 436.136 76.5119C434.029 76.5119 433.435 77.6284 433.435 79.6994V80.3298H432.066V82.4908H433.435V89.5503H436.316V82.4908H437.919V80.3298H436.316V79.9336C436.316 78.853 436.694 78.853 437.919 78.853Z" fill="white"/>
<path d="M440.289 79.2312C441.1 79.2312 441.73 78.799 441.73 77.9526C441.73 77.1242 441.1 76.6739 440.289 76.6739C439.479 76.6739 438.849 77.1242 438.849 77.9526C438.849 78.799 439.479 79.2312 440.289 79.2312ZM438.849 80.3298V89.5503H441.73V80.3298H438.849Z" fill="white"/>
<path d="M449.083 80.0416C447.444 80.0416 446.544 80.816 446.057 81.6624H446.021V80.3298H443.14V89.5503H446.021V84.2197C446.021 82.941 446.652 82.3828 447.75 82.3828C448.705 82.3828 449.191 82.851 449.191 84.2377V89.5503H452.072V83.3192C452.072 81.2122 450.866 80.0416 449.083 80.0416Z" fill="white"/>
<path d="M459.714 76.6739V81.2482H459.678C459.318 80.762 458.345 80.0416 457.012 80.0416C454.563 80.0416 452.996 81.9145 452.996 84.94C452.996 87.9655 454.563 89.8385 457.012 89.8385C458.345 89.8385 459.318 89.1181 459.678 88.6319H459.714V89.5503H462.595V76.6739H459.714ZM457.769 87.6774C456.598 87.6774 455.878 86.7409 455.878 84.94C455.878 83.1391 456.598 82.2027 457.769 82.2027C458.939 82.2027 459.66 83.1391 459.66 84.94C459.66 86.7409 458.939 87.6774 457.769 87.6774Z" fill="white"/>
<path d="M521.947 229.674C521.947 228.485 522.829 228.035 523.784 228.035C524.792 228.035 525.405 228.431 525.405 229.494C525.405 230.43 524.738 230.863 523.406 230.863H522.847V232.97H523.478C524.918 232.97 525.765 233.42 525.765 234.626C525.765 235.563 525.152 236.121 523.856 236.121C522.253 236.121 521.587 235.347 521.587 233.906H518.705C518.705 236.896 520.56 238.588 524.072 238.588C526.827 238.588 528.826 237.256 528.826 234.807C528.826 233.276 528.196 232.231 526.665 231.745V231.709C527.674 231.187 528.466 230.34 528.466 228.99C528.466 226.793 526.341 225.568 524.018 225.568C520.83 225.568 519.065 227.297 519.065 229.674H521.947Z" fill="white"/>
<path d="M531.323 238.462C532.17 238.462 532.854 237.868 532.854 236.932C532.854 236.013 532.17 235.401 531.323 235.401C530.459 235.401 529.793 236.013 529.793 236.932C529.793 237.868 530.459 238.462 531.323 238.462Z" fill="white"/>
<path d="M544.961 235.617L545.79 238.3H549.031L544.385 225.424H541.144L536.479 238.3H539.721L540.549 235.617H544.961ZM541.288 233.15L542.746 228.395H542.782L544.241 233.15H541.288Z" fill="white"/>
<path d="M555.602 225.424V229.998H555.566C555.206 229.512 554.234 228.792 552.901 228.792C550.452 228.792 548.885 230.665 548.885 233.69C548.885 236.716 550.452 238.588 552.901 238.588C554.234 238.588 555.206 237.868 555.566 237.382H555.602V238.3H558.484V225.424H555.602ZM553.657 236.427C552.487 236.427 551.767 235.491 551.767 233.69C551.767 231.889 552.487 230.953 553.657 230.953C554.828 230.953 555.548 231.889 555.548 233.69C555.548 235.491 554.828 236.427 553.657 236.427Z" fill="white"/>
<path d="M559.13 229.08L562.318 238.3H565.487L568.675 229.08H565.794L563.921 235.095H563.885L562.012 229.08H559.13Z" fill="white"/>
<path d="M570.771 227.981C571.582 227.981 572.212 227.549 572.212 226.703C572.212 225.874 571.582 225.424 570.771 225.424C569.961 225.424 569.331 225.874 569.331 226.703C569.331 227.549 569.961 227.981 570.771 227.981ZM569.331 229.08V238.3H572.212V229.08H569.331Z" fill="white"/>
<path d="M578.124 232.483C576.701 232.177 576.125 232.159 576.125 231.511C576.125 231.061 576.539 230.773 577.35 230.773C578.286 230.773 578.682 231.169 578.772 231.907H581.474C581.384 230.286 580.231 228.792 577.278 228.792C574.684 228.792 573.244 230.07 573.244 231.745C573.244 233.672 574.973 234.248 576.539 234.59C577.998 234.915 578.862 235.023 578.862 235.815C578.862 236.337 578.412 236.607 577.602 236.607C576.467 236.607 575.855 236.157 575.765 235.239H573.064C573.154 237.112 574.414 238.588 577.71 238.588C580.267 238.588 581.744 237.526 581.744 235.581C581.744 233.492 579.943 232.88 578.124 232.483Z" fill="white"/>
<path d="M587.233 236.427C586.206 236.427 585.252 235.743 585.252 234.446H591.879C591.879 231.097 590.276 228.792 587.125 228.792C584.189 228.792 582.37 230.881 582.37 233.69C582.37 236.571 584.225 238.588 587.287 238.588C589.79 238.588 591.231 237.364 591.735 235.509H588.872C588.692 235.959 588.223 236.427 587.233 236.427ZM587.125 230.773C588.223 230.773 588.998 231.421 588.998 232.7H585.252C585.252 231.421 586.026 230.773 587.125 230.773Z" fill="white"/>
<path d="M487.53 366.664V364.034H489.367V361.567H487.53V354.219H484.468L478.831 361.027V364.034H484.468V366.664H487.53ZM484.468 357.551V361.567H481.082L484.468 357.551Z" fill="white"/>
<path d="M491.781 366.826C492.627 366.826 493.311 366.231 493.311 365.295C493.311 364.376 492.627 363.764 491.781 363.764C490.916 363.764 490.25 364.376 490.25 365.295C490.25 366.231 490.916 366.826 491.781 366.826Z" fill="white"/>
<path d="M501.079 358.722V356.435H507.598V353.787H497.837V366.664H507.706V364.016H501.079V361.369H506.697V358.722H501.079Z" fill="white"/>
<path d="M508.749 357.443L511.558 361.963L508.389 366.664H511.63L513.287 363.818H513.323L514.98 366.664H518.222L515.052 361.963L517.862 357.443H514.8L513.323 360.108H513.287L511.811 357.443H508.749Z" fill="white"/>
<path d="M522.77 364.791C521.743 364.791 520.789 364.106 520.789 362.81H527.416C527.416 359.46 525.813 357.155 522.661 357.155C519.726 357.155 517.907 359.244 517.907 362.053C517.907 364.935 519.762 366.952 522.824 366.952C525.327 366.952 526.768 365.727 527.272 363.872H524.408C524.228 364.322 523.76 364.791 522.77 364.791ZM522.661 359.136C523.76 359.136 524.534 359.784 524.534 361.063H520.789C520.789 359.784 521.563 359.136 522.661 359.136Z" fill="white"/>
<path d="M534.36 360.883H537.187C536.953 358.74 535.35 357.155 532.667 357.155C529.821 357.155 527.984 359.19 527.984 362.053C527.984 364.935 529.821 366.952 532.739 366.952C535.386 366.952 537.043 365.367 537.187 363.188H534.36C534.27 364.016 533.873 364.791 532.721 364.791C531.514 364.791 530.866 363.782 530.866 362.053C530.866 360.324 531.532 359.316 532.721 359.316C533.873 359.316 534.27 360.144 534.36 360.883Z" fill="white"/>
<path d="M544.103 357.443V362.774C544.103 364.052 543.473 364.611 542.374 364.611C541.42 364.611 540.934 364.142 540.934 362.756V357.443H538.052V363.674C538.052 365.781 539.259 366.952 541.042 366.952C542.68 366.952 543.581 366.177 544.067 365.331H544.103V366.664H546.984V357.443H544.103Z" fill="white"/>
<path d="M553.653 359.604V357.443H552.051V354.868H549.169V357.443H547.891V359.604H549.169V363.638C549.169 365.709 549.763 366.826 551.871 366.826C552.681 366.826 553.131 366.736 553.653 366.628V364.467C552.429 364.467 552.051 364.467 552.051 363.422V359.604H553.653Z" fill="white"/>
<path d="M559.069 364.791C558.042 364.791 557.088 364.106 557.088 362.81H563.715C563.715 359.46 562.112 357.155 558.961 357.155C556.025 357.155 554.206 359.244 554.206 362.053C554.206 364.935 556.061 366.952 559.123 366.952C561.626 366.952 563.067 365.727 563.571 363.872H560.708C560.527 364.322 560.059 364.791 559.069 364.791ZM558.961 359.136C560.059 359.136 560.834 359.784 560.834 361.063H557.088C557.088 359.784 557.862 359.136 558.961 359.136Z" fill="white"/>
<path d="M76.6493 392.854C75.5147 392.854 74.6683 393.196 73.984 393.737V393.701L74.4522 391.323H80.2331V388.856H72.3632L70.9225 395.862H73.8039C74.3081 395.231 75.0285 394.961 75.6948 394.961C77.0095 394.961 77.7118 395.736 77.7118 397.05C77.7118 398.419 76.9014 399.121 75.7488 399.121C74.4522 399.121 73.7138 398.347 73.6238 397.446H70.5623C70.6523 399.896 72.4532 401.588 75.9289 401.588C78.6843 401.588 80.7733 400.076 80.7733 397.086C80.7733 394.421 79.1165 392.854 76.6493 392.854Z" fill="white"/>
<path d="M83.2863 401.462C84.1327 401.462 84.817 400.868 84.817 399.932C84.817 399.013 84.1327 398.401 83.2863 398.401C82.4219 398.401 81.7555 399.013 81.7555 399.932C81.7555 400.868 82.4219 401.462 83.2863 401.462Z" fill="white"/>
<path d="M92.5842 393.358V391.071H99.1034V388.424H89.3426V401.3H99.2115V398.653H92.5842V396.006H98.203V393.358H92.5842Z" fill="white"/>
<path d="M106.414 391.792C104.775 391.792 103.875 392.566 103.388 393.412H103.352V392.08H100.471V401.3H103.352V395.97C103.352 394.691 103.983 394.133 105.081 394.133C106.036 394.133 106.522 394.601 106.522 395.988V401.3H109.403V395.069C109.403 392.962 108.197 391.792 106.414 391.792Z" fill="white"/>
<path d="M116.757 392.08V392.998H116.721C116.36 392.512 115.55 391.792 114.199 391.792C111.84 391.792 110.327 393.665 110.327 396.33C110.327 398.995 111.84 400.868 114.199 400.868C115.55 400.868 116.36 400.148 116.721 399.661H116.757V400.202C116.757 401.733 116.324 402.417 115.028 402.417C114.019 402.417 113.569 402.003 113.389 401.498H110.507C110.832 402.975 112.182 404.488 115.1 404.488C117.891 404.488 119.638 403.443 119.638 400.4V392.08H116.757ZM114.956 398.707C113.785 398.707 113.209 397.825 113.209 396.33C113.209 394.835 113.785 393.953 114.956 393.953C116.126 393.953 116.702 394.835 116.702 396.33C116.702 397.825 116.126 398.707 114.956 398.707Z" fill="white"/>
<path d="M126.486 394.637C126.486 395.411 125.316 395.592 124.127 395.826C121.966 396.258 120.615 397.104 120.615 398.941C120.615 400.49 121.696 401.588 123.641 401.588C124.865 401.588 125.946 401.012 126.54 400.328H126.576C126.576 400.976 126.936 401.588 128.233 401.588C128.809 401.588 129.332 401.516 129.908 401.3V400.616C129.548 400.616 129.368 400.418 129.368 399.932V395.7C129.368 392.8 127.927 391.792 125.334 391.792C122.326 391.792 121.065 393.286 120.975 395.051H123.677C123.767 394.169 124.271 393.773 125.316 393.773C126.108 393.773 126.486 394.097 126.486 394.637ZM124.649 399.607C123.947 399.607 123.497 399.283 123.497 398.527C123.497 397.951 123.875 397.482 125.009 397.23C125.676 397.086 126.126 396.96 126.486 396.816V397.933C126.486 398.815 125.892 399.607 124.649 399.607Z" fill="white"/>
<path d="M137.017 392.08V392.998H136.981C136.62 392.512 135.81 391.792 134.459 391.792C132.1 391.792 130.587 393.665 130.587 396.33C130.587 398.995 132.1 400.868 134.459 400.868C135.81 400.868 136.62 400.148 136.981 399.661H137.017V400.202C137.017 401.733 136.584 402.417 135.288 402.417C134.279 402.417 133.829 402.003 133.649 401.498H130.767C131.092 402.975 132.442 404.488 135.36 404.488C138.151 404.488 139.898 403.443 139.898 400.4V392.08H137.017ZM135.216 398.707C134.045 398.707 133.469 397.825 133.469 396.33C133.469 394.835 134.045 393.953 135.216 393.953C136.386 393.953 136.963 394.835 136.963 396.33C136.963 397.825 136.386 398.707 135.216 398.707Z" fill="white"/>
<path d="M145.756 399.427C144.729 399.427 143.775 398.743 143.775 397.446H150.402C150.402 394.097 148.799 391.792 145.648 391.792C142.712 391.792 140.893 393.881 140.893 396.69C140.893 399.571 142.748 401.588 145.81 401.588C148.313 401.588 149.754 400.364 150.258 398.509H147.394C147.214 398.959 146.746 399.427 145.756 399.427ZM145.648 393.773C146.746 393.773 147.521 394.421 147.521 395.7H143.775C143.775 394.421 144.549 393.773 145.648 393.773Z" fill="white"/>
<path d="M3.06151 211.207V211.171C3.09753 209.388 3.72784 208.109 5.27661 208.109C6.41117 208.109 6.80737 208.829 6.89741 209.262H9.95892C9.56273 207.263 7.74383 205.822 5.33064 205.822C2.14306 205.822 0 208.001 0 212.503C0 215.745 1.33266 218.842 5.43869 218.842C8.42817 218.842 10.3191 217.041 10.3191 214.286C10.3191 211.909 8.60826 210.072 6.03298 210.072C4.61028 210.072 3.72784 210.576 3.06151 211.207ZM5.2586 216.555C3.90793 216.555 3.06151 215.655 3.06151 214.448C3.06151 213.26 3.90793 212.359 5.2586 212.359C6.59126 212.359 7.43768 213.26 7.43768 214.448C7.43768 215.655 6.59126 216.555 5.2586 216.555Z" fill="white"/>
<path d="M12.7013 218.716C13.5478 218.716 14.2321 218.122 14.2321 217.186C14.2321 216.267 13.5478 215.655 12.7013 215.655C11.8369 215.655 11.1706 216.267 11.1706 217.186C11.1706 218.122 11.8369 218.716 12.7013 218.716Z" fill="white"/>
<path d="M18.7577 218.554H21.9993V214.07H24.0163C26.7716 214.07 25.6011 218.014 26.2314 218.554H29.599V218.374C28.8607 218.158 30.0313 213.17 26.8077 212.611V212.575C28.4105 212.215 29.419 211.135 29.419 209.424C29.419 206.992 27.6901 205.678 24.8267 205.678H18.7577V218.554ZM21.9993 208.325H24.1964C25.493 208.325 26.1773 208.793 26.1773 209.874C26.1773 210.954 25.493 211.423 24.1964 211.423H21.9993V208.325Z" fill="white"/>
<path d="M35.02 216.681C33.9935 216.681 33.039 215.997 33.039 214.7H39.6663C39.6663 211.351 38.0635 209.046 34.9119 209.046C31.9765 209.046 30.1576 211.135 30.1576 213.944C30.1576 216.825 32.0125 218.842 35.074 218.842C37.5773 218.842 39.018 217.618 39.5222 215.763H36.6588C36.4787 216.213 36.0105 216.681 35.02 216.681ZM34.9119 211.026C36.0105 211.026 36.7849 211.675 36.7849 212.953H33.039C33.039 211.675 33.8134 211.026 34.9119 211.026Z" fill="white"/>
<path d="M39.6289 209.334L42.8164 218.554H45.986L49.1736 209.334H46.2922L44.4192 215.349H44.3832L42.5103 209.334H39.6289Z" fill="white"/>
<path d="M53.9258 216.681C52.8993 216.681 51.9449 215.997 51.9449 214.7H58.5721C58.5721 211.351 56.9693 209.046 53.8178 209.046C50.8823 209.046 49.0634 211.135 49.0634 213.944C49.0634 216.825 50.9183 218.842 53.9799 218.842C56.4831 218.842 57.9238 217.618 58.4281 215.763H55.5646C55.3846 216.213 54.9163 216.681 53.9258 216.681ZM53.8178 211.026C54.9163 211.026 55.6907 211.675 55.6907 212.953H51.9449C51.9449 211.675 52.7192 211.026 53.8178 211.026Z" fill="white"/>
<path d="M65.4978 209.046C63.859 209.046 62.9586 209.82 62.4723 210.666H62.4363V209.334H59.5549V218.554H62.4363V213.224C62.4363 211.945 63.0666 211.387 64.1652 211.387C65.1196 211.387 65.6059 211.855 65.6059 213.242V218.554H68.4873V212.323C68.4873 210.216 67.2807 209.046 65.4978 209.046Z" fill="white"/>
<path d="M75.8045 209.334V214.664C75.8045 215.943 75.1742 216.501 74.0757 216.501C73.1212 216.501 72.635 216.033 72.635 214.646V209.334H69.7535V215.565C69.7535 217.672 70.9601 218.842 72.743 218.842C74.3818 218.842 75.2823 218.068 75.7685 217.222H75.8045V218.554H78.686V209.334H75.8045Z" fill="white"/>
<path d="M84.5445 216.681C83.518 216.681 82.5635 215.997 82.5635 214.7H89.1908C89.1908 211.351 87.588 209.046 84.4364 209.046C81.501 209.046 79.6821 211.135 79.6821 213.944C79.6821 216.825 81.537 218.842 84.5985 218.842C87.1017 218.842 88.5425 217.618 89.0467 215.763H86.1833C86.0032 216.213 85.535 216.681 84.5445 216.681ZM84.4364 211.026C85.535 211.026 86.3094 211.675 86.3094 212.953H82.5635C82.5635 211.675 83.3379 211.026 84.4364 211.026Z" fill="white"/>
<path d="M11.2393 241.554H14.4809V236.89H17.4884C20.1717 236.89 21.8466 235.485 21.8466 232.784C21.8466 230.083 20.1717 228.678 17.4884 228.678H11.2393V241.554ZM14.4809 231.325H16.8041C17.9206 231.325 18.605 231.703 18.605 232.784C18.605 233.864 17.9206 234.243 16.8041 234.243H14.4809V231.325Z" fill="white"/>
<path d="M27.9758 232.172C26.9673 232.172 26.1749 232.82 25.7247 233.846H25.6886V232.334H22.8072V241.554H25.6886V237.268C25.6886 235.305 27.2554 234.495 28.7322 234.765H28.7682V232.244C28.444 232.172 28.2279 232.172 27.9758 232.172Z" fill="white"/>
<path d="M34.0456 241.842C30.9661 241.842 29.1112 239.807 29.1112 236.944C29.1112 234.081 30.9661 232.046 34.0456 232.046C37.1071 232.046 38.9621 234.081 38.9621 236.944C38.9621 239.807 37.1071 241.842 34.0456 241.842ZM34.0456 239.681C35.3062 239.681 36.0806 238.727 36.0806 236.944C36.0806 235.161 35.3062 234.207 34.0456 234.207C32.767 234.207 31.9926 235.161 31.9926 236.944C31.9926 238.727 32.767 239.681 34.0456 239.681Z" fill="white"/>
<path d="M45.1271 230.857V228.696C44.6049 228.588 44.1547 228.516 43.3443 228.516C41.2372 228.516 40.6429 229.632 40.6429 231.703V232.334H39.2743V234.495H40.6429V241.554H43.5244V234.495H45.1271V232.334H43.5244V231.937C43.5244 230.857 43.9025 230.857 45.1271 230.857Z" fill="white"/>
<path d="M47.4977 231.235C48.3081 231.235 48.9384 230.803 48.9384 229.956C48.9384 229.128 48.3081 228.678 47.4977 228.678C46.6873 228.678 46.057 229.128 46.057 229.956C46.057 230.803 46.6873 231.235 47.4977 231.235ZM46.057 232.334V241.554H48.9384V232.334H46.057Z" fill="white"/>
<path d="M50.2783 228.678V241.554H53.1597V228.678H50.2783Z" fill="white"/>
<path d="M55.9394 231.235C56.7498 231.235 57.3801 230.803 57.3801 229.956C57.3801 229.128 56.7498 228.678 55.9394 228.678C55.129 228.678 54.4987 229.128 54.4987 229.956C54.4987 230.803 55.129 231.235 55.9394 231.235ZM54.4987 232.334V241.554H57.3801V232.334H54.4987Z" fill="white"/>
<path d="M64.7328 232.046C63.094 232.046 62.1935 232.82 61.7073 233.666H61.6713V232.334H58.7899V241.554H61.6713V236.224C61.6713 234.945 62.3016 234.387 63.4001 234.387C64.3546 234.387 64.8409 234.855 64.8409 236.242V241.554H67.7223V235.323C67.7223 233.216 66.5157 232.046 64.7328 232.046Z" fill="white"/>
<path d="M75.0755 232.334V233.252H75.0395C74.6793 232.766 73.8689 232.046 72.5183 232.046C70.1591 232.046 68.6464 233.918 68.6464 236.584C68.6464 239.249 70.1591 241.122 72.5183 241.122C73.8689 241.122 74.6793 240.402 75.0395 239.915H75.0755V240.456C75.0755 241.986 74.6433 242.671 73.3467 242.671C72.3382 242.671 71.888 242.257 71.7079 241.752H68.8264C69.1506 243.229 70.5013 244.742 73.4187 244.742C76.2101 244.742 77.957 243.697 77.957 240.654V232.334H75.0755ZM73.2746 238.961C72.1041 238.961 71.5278 238.078 71.5278 236.584C71.5278 235.089 72.1041 234.207 73.2746 234.207C74.4452 234.207 75.0215 235.089 75.0215 236.584C75.0215 238.078 74.4452 238.961 73.2746 238.961Z" fill="white"/>
<path d="M302.545 182.845C292.665 182.845 284.99 190.407 281.685 200.862C278.267 197.492 273.676 195.8 268.738 195.8C244.177 195.8 240.271 221.121 238.621 245.588C238.304 250.313 239.591 252.509 244.364 252.509C249.136 252.509 255.644 250.279 256.307 245.588C257.424 237.762 257.583 236.672 258.722 227.177C259.901 217.374 262.531 209.986 266.476 209.986C269.18 209.986 270.059 212.082 270.059 215.997C270.059 221.228 268.426 228.762 267.168 239.503C266.613 244.239 268.211 246.655 272.978 246.655C277.751 246.655 284.582 244.245 285.188 239.503C286.061 232.666 286.849 226.857 287.648 221.222C289.95 204.986 292.875 201.166 296.82 201.166C299.286 201.166 300.318 203.211 300.182 207.149C299.955 213.739 295.953 237.161 295.086 245.588C294.592 250.358 296.185 252.509 300.958 252.509C305.731 252.509 312.386 250.307 313.106 245.588C314.631 235.593 316.053 223.986 317.408 213.042C319.557 195.761 318.105 182.845 302.545 182.845Z" fill="white"/>
<line x1="129.539" y1="182.374" x2="51.0363" y2="182.374" stroke="#316AFB" stroke-width="0.826344"/>
<line x1="337.211" y1="68.3775" x2="258.708" y2="68.3775" stroke="#316AFB" stroke-width="0.826344"/>
<line x1="505.148" y1="198.116" x2="426.646" y2="198.116" stroke="#316AFB" stroke-width="0.826344"/>
<path d="M459.242 327.023L421.022 327.023" stroke="#316AFB" stroke-width="0.826344"/>
<line x1="200.68" y1="355.944" x2="122.177" y2="355.944" stroke="#316AFB" stroke-width="0.826344"/>
<path d="M35.4028 4.04779C35.4028 4.57926 35.2981 5.10553 35.0947 5.59655C34.8914 6.08757 34.5933 6.53372 34.2174 6.90953C33.8416 7.28534 33.3955 7.58344 32.9045 7.78683C32.4134 7.99022 31.8872 8.0949 31.3557 8.0949C30.8242 8.0949 30.298 7.99022 29.8069 7.78683C29.3159 7.58344 28.8698 7.28534 28.494 6.90953C28.1182 6.53372 27.82 6.08757 27.6167 5.59655C27.4133 5.10553 27.3086 4.57926 27.3086 4.04779C27.3086 2.97443 27.735 1.94503 28.494 1.18605C29.2529 0.427066 30.2823 0.000674674 31.3557 0.000674674C32.4291 0.000674674 33.4585 0.427066 34.2174 1.18605C34.9764 1.94503 35.4028 2.97443 35.4028 4.04779ZM27.6458 9.44394C27.0197 9.44394 26.4192 9.69266 25.9765 10.1354C25.5338 10.5781 25.285 11.1786 25.285 11.8047V18.2127C25.285 19.0099 25.4421 19.7993 25.7471 20.5358C26.0522 21.2723 26.4994 21.9416 27.0631 22.5053C27.6268 23.069 28.296 23.5162 29.0326 23.8212C29.7691 24.1263 30.5585 24.2833 31.3557 24.2833C32.1529 24.2833 32.9423 24.1263 33.6788 23.8212C34.4154 23.5162 35.0846 23.069 35.6483 22.5053C36.212 21.9416 36.6592 21.2723 36.9643 20.5358C37.2693 19.7993 37.4264 19.0099 37.4264 18.2127V11.8047C37.4264 11.1786 37.1776 10.5781 36.7349 10.1354C36.2922 9.69266 35.6917 9.44394 35.0656 9.44394H27.6458ZM35.8885 24.0864C36.7875 23.3939 37.5154 22.5042 38.016 21.4857C38.5165 20.4673 38.7763 19.3475 38.7754 18.2127V11.8047C38.7754 10.9076 38.457 10.0861 37.9269 9.44394H41.1362C42.4394 9.44394 43.497 10.5016 43.497 11.8047V18.2127C43.4972 19.141 43.2844 20.057 42.8751 20.8903C42.4658 21.7235 41.8709 22.4518 41.136 23.0191C40.4012 23.5864 39.546 23.9776 38.6363 24.1626C37.7266 24.3476 36.7865 24.3216 35.8885 24.0864ZM36.7519 4.04779C36.7519 5.39682 36.2568 6.62849 35.4392 7.57417C36.0551 7.92069 36.7509 8.09994 37.4575 8.09408C38.1641 8.08823 38.8568 7.89746 39.4668 7.54077C40.0768 7.18408 40.5828 6.6739 40.9344 6.06097C41.286 5.44804 41.471 4.75374 41.471 4.04711C41.471 3.34049 41.286 2.64618 40.9344 2.03325C40.5828 1.42032 40.0768 0.910138 39.4668 0.553449C38.8568 0.19676 38.1641 0.00599802 37.4575 0.000139151C36.7509 -0.00571971 36.0551 0.173529 35.4392 0.520054C36.2568 1.46708 36.7519 2.7001 36.7519 4.04779ZM41.9591 24.0864C42.8582 23.3939 43.5861 22.5042 44.0866 21.4857C44.5872 20.4673 44.847 19.3475 44.8461 18.2127V11.8047C44.8461 10.9076 44.5277 10.0861 43.9975 9.44394H47.2069C48.5101 9.44394 49.5677 10.5016 49.5677 11.8047V18.2127C49.5679 19.141 49.3551 20.057 48.9458 20.8903C48.5365 21.7235 47.9415 22.4518 47.2067 23.0191C46.4718 23.5864 45.6167 23.9776 44.707 24.1626C43.7972 24.3476 42.8572 24.3216 41.9591 24.0864ZM42.8225 4.04779C42.8225 5.39682 42.3274 6.62849 41.5099 7.57417C42.1257 7.92069 42.8215 8.09994 43.5281 8.09408C44.2347 8.08823 44.9275 7.89746 45.5375 7.54077C46.1475 7.18408 46.6535 6.6739 47.0051 6.06097C47.3567 5.44804 47.5417 4.75374 47.5417 4.04711C47.5417 3.34049 47.3567 2.64618 47.0051 2.03325C46.6535 1.42032 46.1475 0.910138 45.5375 0.553449C44.9275 0.19676 44.2347 0.00599802 43.5281 0.000139151C42.8215 -0.00571971 42.1257 0.173529 41.5099 0.520054C42.3274 1.46708 42.8225 2.7001 42.8225 4.04779Z" fill="white"/>
<path d="M389.028 61.1687C394.033 61.1687 396.536 61.1687 398.09 59.6132C399.645 58.0591 399.645 55.556 399.645 50.5513C399.645 45.5465 399.645 43.0434 398.09 41.4893C396.536 39.9338 394.033 39.9338 389.028 39.9338H383.719C378.714 39.9338 376.211 39.9338 374.657 41.4893C373.102 43.0434 373.102 45.5465 373.102 50.5513C373.102 55.556 373.102 58.0591 374.657 59.6132C375.524 60.4812 376.685 60.8648 378.411 61.0333" stroke="white" stroke-width="2.65436" stroke-linecap="round" stroke-linejoin="round"/>
<path d="M383.719 47.2132C384.382 45.8993 385.046 45.2437 386.373 45.2437C388.027 45.2437 389.027 46.5562 389.027 47.8688C389.027 49.1814 388.364 49.2398 386.373 50.5524V51.8795M386.373 55.1975V55.8611M389.027 61.1698C387.387 61.1698 385.579 61.8334 383.93 62.6894C381.278 64.0657 379.952 64.7545 379.299 64.3152C378.646 63.8772 378.77 62.5169 379.018 59.7975L379.074 59.179" stroke="white" stroke-width="2.65436" stroke-linecap="round"/>
<path d="M523.448 183.452V205.936H522.199V208.434H527.195V205.936H525.946V199.69H542.184C542.516 199.69 542.833 199.559 543.068 199.324C543.302 199.09 543.434 198.772 543.434 198.441V185.95C543.434 185.619 543.302 185.301 543.068 185.067C542.833 184.833 542.516 184.701 542.184 184.701H525.946V183.452H523.448ZM528.444 187.199V189.697H530.942V187.199H533.441V189.697H535.939V187.199H538.437V189.697H540.935V192.196H538.437V194.694H540.935V197.192H538.437V194.694H535.939V197.192H533.441V194.694H530.942V197.192H528.444V194.694H525.946V192.196H528.444V189.697H525.946V187.199H528.444Z" fill="white"/>
<path d="M528.442 192.193H530.94V194.692H528.442V192.193ZM533.438 192.193H535.937V194.692H533.438V192.193ZM530.94 189.695H533.438V192.193H530.94V189.695ZM535.937 189.695H538.435V192.193H535.937V189.695Z" fill="white"/>
<path d="M92.8134 359.491V357.069H90.9397V359.879C90.9397 360.128 91.0385 360.366 91.2142 360.542L93.7502 363.078V364.563H73.1399V363.078L75.6759 360.542C75.8516 360.366 75.9503 360.128 75.9504 359.879V356.132C75.9478 354.815 76.2926 353.522 76.9501 352.381C77.6075 351.241 78.5543 350.294 79.6948 349.636C80.8353 348.979 82.1291 348.634 83.4456 348.636C84.762 348.639 86.0544 348.989 87.1924 349.651V347.557C86.3006 347.162 85.3521 346.911 84.3819 346.811V344.89H82.5082V346.81C80.1985 347.045 78.058 348.129 76.5007 349.85C74.9433 351.572 74.0796 353.81 74.0767 356.132V359.491L71.5407 362.027C71.365 362.203 71.2663 362.441 71.2662 362.69V365.5C71.2662 365.749 71.3649 365.987 71.5406 366.163C71.7163 366.338 71.9546 366.437 72.2031 366.437H78.7609V367.374C78.7609 368.616 79.2544 369.808 80.1328 370.686C81.0113 371.564 82.2027 372.058 83.445 372.058C84.6874 372.058 85.8788 371.564 86.7572 370.686C87.6357 369.808 88.1292 368.616 88.1292 367.374V366.437H94.687C94.9355 366.437 95.1738 366.338 95.3495 366.163C95.5252 365.987 95.6239 365.749 95.6239 365.5V362.69C95.6238 362.441 95.5251 362.203 95.3494 362.027L92.8134 359.491ZM86.2555 367.374C86.2555 368.119 85.9594 368.834 85.4324 369.361C84.9053 369.888 84.1904 370.184 83.445 370.184C82.6997 370.184 81.9848 369.888 81.4577 369.361C80.9307 368.834 80.6345 368.119 80.6345 367.374V366.437H86.2555V367.374Z" fill="white"/>
<path d="M92.8134 355.195C94.883 355.195 96.5607 353.517 96.5607 351.448C96.5607 349.378 94.883 347.7 92.8134 347.7C90.7438 347.7 89.066 349.378 89.066 351.448C89.066 353.517 90.7438 355.195 92.8134 355.195Z" fill="white"/>
<path fill-rule="evenodd" clip-rule="evenodd" d="M22.8449 194.817C24.9569 194.817 26.9823 193.978 28.4757 192.484C29.9691 190.991 30.808 188.966 30.808 186.854C30.808 184.742 29.9691 182.716 28.4757 181.223C26.9823 179.73 24.9569 178.891 22.8449 178.891C20.733 178.891 18.7076 179.73 17.2142 181.223C15.7208 182.716 14.8819 184.742 14.8819 186.854C14.8819 188.966 15.7208 190.991 17.2142 192.484C18.7076 193.978 20.733 194.817 22.8449 194.817ZM32.7988 186.854C32.7988 189.494 31.7501 192.025 29.8834 193.892C28.0167 195.759 25.4849 196.808 22.8449 196.808C20.205 196.808 17.6732 195.759 15.8065 193.892C13.9398 192.025 12.8911 189.494 12.8911 186.854C12.8911 184.214 13.9398 181.682 15.8065 179.815C17.6732 177.949 20.205 176.9 22.8449 176.9C25.4849 176.9 28.0167 177.949 29.8834 179.815C31.7501 181.682 32.7988 184.214 32.7988 186.854Z" fill="white"/>
<path d="M19.7364 188.733C19.8299 189.92 20.7676 190.843 22.4498 190.955V191.831H23.1963V190.949C24.9382 190.827 25.9555 189.896 25.9555 188.546C25.9555 187.316 25.1791 186.683 23.7856 186.356L23.1963 186.217V183.828C23.9448 183.914 24.4186 184.322 24.5321 184.887H25.842C25.7485 183.742 24.767 182.848 23.1963 182.751V181.877H22.4498V182.773C20.9627 182.918 19.9514 183.812 19.9514 185.078C19.9514 186.197 20.7039 186.91 21.9561 187.2L22.4498 187.322V189.854C21.6853 189.738 21.1777 189.316 21.0642 188.733H19.7344H19.7364ZM22.4438 186.038C21.7092 185.868 21.3111 185.52 21.3111 184.998C21.3111 184.413 21.7411 183.975 22.4498 183.848V186.038H22.4438ZM23.3038 187.523C24.1977 187.73 24.6078 188.064 24.6078 188.656C24.6078 189.33 24.0961 189.792 23.1963 189.878V187.499L23.3038 187.523Z" fill="white"/>
<path d="M2.9373 164.955C2.40932 164.955 1.90296 165.165 1.52962 165.538C1.15627 165.912 0.946533 166.418 0.946533 166.946L0.946533 182.872C0.946533 183.4 1.15627 183.907 1.52962 184.28C1.90296 184.653 2.40932 184.863 2.9373 184.863H11.0656C11.1811 184.178 11.3543 183.513 11.5792 182.872H6.91883C6.91883 181.816 6.49935 180.804 5.75267 180.057C5.00599 179.31 3.99327 178.891 2.9373 178.891V170.928C3.99327 170.928 5.00599 170.508 5.75267 169.761C6.49935 169.015 6.91883 168.002 6.91883 166.946H26.8265C26.8265 168.002 27.246 169.015 27.9927 169.761C28.7393 170.508 29.7521 170.928 30.808 170.928V177.951C31.5645 178.628 32.2354 179.4 32.7988 180.248V166.946C32.7988 166.418 32.5891 165.912 32.2157 165.538C31.8424 165.165 31.336 164.955 30.808 164.955H2.9373Z" fill="white"/>
<path d="M20.8502 175.072L20.8542 174.907C20.8538 174.221 20.6763 173.547 20.339 172.95C20.0017 172.354 19.5159 171.854 18.9288 171.5C18.3417 171.146 17.673 170.949 16.9877 170.929C16.3023 170.91 15.6235 171.067 15.0169 171.387C14.4103 171.706 13.8965 172.177 13.5252 172.753C13.154 173.33 12.9379 173.992 12.8979 174.677C12.8579 175.361 12.9953 176.045 13.2969 176.66C13.5984 177.276 14.0539 177.804 14.6191 178.192C16.3386 176.554 18.5086 175.467 20.8502 175.072Z" fill="white"/>
<path d="M484.753 317.705C484.753 316.144 486.109 314.984 487.698 314.259C489.711 313.423 491.874 313.013 494.053 313.055C496.232 313.013 498.396 313.423 500.408 314.259C501.997 314.984 503.353 316.144 503.353 317.705V325.624C502.817 325.665 502.293 325.801 501.803 326.024V320.34C501.369 320.659 500.901 320.932 500.408 321.153C498.396 321.988 496.232 322.397 494.053 322.355C491.874 322.396 489.711 321.986 487.698 321.15C487.206 320.93 486.738 320.658 486.303 320.34V333.205C486.303 333.784 486.855 334.561 488.346 335.24C490.155 335.982 492.098 336.345 494.053 336.305H494.086C494.104 336.388 494.124 336.472 494.146 336.554L492.968 337.738C492.937 337.769 492.906 337.8 492.878 337.833C491.097 337.734 489.346 337.335 487.698 336.65C486.109 335.925 484.753 334.766 484.753 333.205V317.705ZM486.303 317.705C486.303 318.284 486.855 319.061 488.346 319.74C490.155 320.482 492.098 320.845 494.053 320.805C496.008 320.845 497.951 320.482 499.76 319.74C501.251 319.061 501.803 318.283 501.803 317.705C501.803 317.125 501.251 316.348 499.76 315.67C497.951 314.927 496.008 314.565 494.053 314.605C492.098 314.565 490.155 314.927 488.346 315.67C486.855 316.348 486.303 317.125 486.303 317.705ZM508.31 326.778C508.382 326.706 508.439 326.621 508.478 326.527C508.517 326.433 508.538 326.332 508.538 326.23C508.538 326.128 508.518 326.028 508.479 325.933C508.44 325.839 508.383 325.754 508.311 325.682C508.239 325.61 508.153 325.553 508.059 325.513C507.965 325.474 507.865 325.454 507.763 325.454C507.661 325.454 507.56 325.474 507.466 325.513C507.372 325.552 507.286 325.609 507.214 325.681L505.376 327.519C505.356 327.546 505.338 327.573 505.322 327.601C504.73 327.248 504.038 327.102 503.354 327.187C502.67 327.271 502.034 327.58 501.546 328.066L500.616 328.996C500.331 329.281 500.172 329.668 500.172 330.071C500.172 330.473 500.331 330.86 500.616 331.145L502.851 333.375C503.136 333.66 503.523 333.82 503.926 333.82C504.329 333.82 504.716 333.66 505.001 333.375L505.931 332.445C506.417 331.957 506.727 331.32 506.811 330.636C506.895 329.952 506.749 329.26 506.396 328.668C506.425 328.652 506.452 328.634 506.478 328.614L508.31 326.778ZM499.52 332.236C499.379 332.095 499.212 331.983 499.027 331.907C498.843 331.83 498.645 331.791 498.446 331.791C498.246 331.791 498.049 331.83 497.865 331.907C497.68 331.983 497.513 332.095 497.372 332.236L496.442 333.166C495.955 333.654 495.646 334.291 495.561 334.975C495.477 335.659 495.623 336.352 495.977 336.943C495.948 336.959 495.921 336.977 495.895 336.998L494.062 338.834C493.921 338.98 493.843 339.176 493.845 339.379C493.847 339.583 493.928 339.777 494.072 339.921C494.216 340.064 494.41 340.146 494.613 340.148C494.816 340.149 495.012 340.071 495.158 339.93L496.995 338.092C497.015 338.066 497.034 338.038 497.051 338.01C497.642 338.363 498.335 338.509 499.018 338.424C499.702 338.34 500.338 338.031 500.827 337.545L501.757 336.615C501.898 336.474 502.01 336.306 502.087 336.122C502.163 335.937 502.202 335.739 502.202 335.54C502.202 335.34 502.163 335.142 502.087 334.958C502.01 334.773 501.898 334.606 501.757 334.465L499.52 332.236Z" fill="white"/>
</svg>
