<?xml version="1.0" encoding="UTF-8"?>
<svg xmlns="http://www.w3.org/2000/svg" xmlns:xlink="http://www.w3.org/1999/xlink" width="165px" height="146px" viewBox="0 0 164 146" version="1.1">
<g id="surface1">
<path style=" stroke:none;fill-rule:nonzero;fill:rgb(100%,100%,100%);fill-opacity:1;" d="M 163.941406 72.859375 C 163.941406 77.992188 159.671875 82.011719 154.832031 82.011719 L 145.722656 82.011719 L 145.921875 127.691406 C 145.921875 128.460938 145.863281 129.234375 145.777344 130.003906 L 145.777344 134.59375 C 145.777344 140.894531 140.679688 146 134.390625 146 L 129.832031 146 C 129.519531 146 129.207031 146 128.894531 145.972656 C 128.496094 146 128.097656 146 127.699219 146 L 111.609375 146 C 105.320312 146 100.222656 140.894531 100.222656 134.59375 L 100.222656 109.5 C 100.222656 104.453125 96.152344 100.375 91.109375 100.375 L 72.890625 100.375 C 67.847656 100.375 63.777344 104.453125 63.777344 109.5 L 63.777344 134.59375 C 63.777344 140.894531 58.679688 146 52.390625 146 L 36.472656 146 C 36.046875 146 35.617188 145.972656 35.191406 145.941406 C 34.851562 145.972656 34.507812 146 34.167969 146 L 29.609375 146 C 23.320312 146 18.222656 140.894531 18.222656 134.59375 L 18.222656 102.65625 C 18.222656 102.398438 18.222656 102.113281 18.25 101.859375 L 18.25 82.011719 L 9.109375 82.011719 C 3.984375 82.011719 0 78.019531 0 72.859375 C 0 70.292969 0.855469 68.011719 2.847656 66.015625 L 75.851562 2.28125 C 77.84375 0.285156 80.121094 0 82.113281 0 C 84.105469 0 86.382812 0.570312 88.09375 1.996094 L 160.8125 66.015625 C 163.089844 68.007812 164.226562 70.289062 163.941406 72.859375 Z M 163.941406 72.859375 "/>
</g>
</svg>
