<svg width="36" height="36" viewBox="0 0 36 36" fill="none" xmlns="http://www.w3.org/2000/svg">
<rect width="36" height="36" rx="8.21918" fill="#EBEBEB"/>
<g clip-path="url(#clip0_1376_8057)">
<path d="M18.0002 14.1667V8.41669H12.2502C11.7418 8.41669 11.2543 8.61862 10.8949 8.97807C10.5354 9.33751 10.3335 9.82502 10.3335 10.3334V25.6667C10.3335 26.175 10.5354 26.6625 10.8949 27.022C11.2543 27.3814 11.7418 27.5834 12.2502 27.5834H23.7502C24.2585 27.5834 24.746 27.3814 25.1054 27.022C25.4649 26.6625 25.6668 26.175 25.6668 25.6667V16.0834H19.9168C19.4085 16.0834 18.921 15.8814 18.5615 15.522C18.2021 15.1625 18.0002 14.675 18.0002 14.1667ZM18.0002 18C18.1908 18 18.3736 18.0757 18.5084 18.2105C18.6432 18.3453 18.7189 18.5281 18.7189 18.7188V23.9896C18.7189 24.1802 18.6432 24.363 18.5084 24.4978C18.3736 24.6326 18.1908 24.7084 18.0002 24.7084C17.8095 24.7084 17.6267 24.6326 17.4919 24.4978C17.3571 24.363 17.2814 24.1802 17.2814 23.9896V18.7188C17.2814 18.5281 17.3571 18.3453 17.4919 18.2105C17.6267 18.0757 17.8095 18 18.0002 18ZM14.8856 21.8334C15.0762 21.8334 15.259 21.9091 15.3938 22.0439C15.5286 22.1787 15.6043 22.3615 15.6043 22.5521V23.9896C15.6043 24.1802 15.5286 24.363 15.3938 24.4978C15.259 24.6326 15.0762 24.7084 14.8856 24.7084C14.695 24.7084 14.5121 24.6326 14.3773 24.4978C14.2426 24.363 14.1668 24.1802 14.1668 23.9896V22.5521C14.1668 22.3615 14.2426 22.1787 14.3773 22.0439C14.5121 21.9091 14.695 21.8334 14.8856 21.8334ZM21.1147 19.9167C21.3054 19.9167 21.4882 19.9924 21.623 20.1272C21.7578 20.262 21.8335 20.4448 21.8335 20.6354V23.9896C21.8335 24.1802 21.7578 24.363 21.623 24.4978C21.4882 24.6326 21.3054 24.7084 21.1147 24.7084C20.9241 24.7084 20.7413 24.6326 20.6065 24.4978C20.4717 24.363 20.396 24.1802 20.396 23.9896V20.6354C20.396 20.4448 20.4717 20.262 20.6065 20.1272C20.7413 19.9924 20.9241 19.9167 21.1147 19.9167ZM19.4377 14.1667V8.89585L25.1877 14.6459H19.9168C19.7897 14.6459 19.6679 14.5954 19.578 14.5055C19.4881 14.4156 19.4377 14.2938 19.4377 14.1667Z" fill="#345CEB"/>
</g>
<defs>
<clipPath id="clip0_1376_8057">
<rect width="16" height="20" fill="white" transform="translate(10 8)"/>
</clipPath>
</defs>
</svg>
