<svg width="25" height="25" viewBox="0 0 25 25" fill="none" xmlns="http://www.w3.org/2000/svg">
<path d="M10.1412 4.04779C10.1412 4.57926 10.0365 5.10553 9.83315 5.59655C9.62976 6.08757 9.33165 6.53372 8.95584 6.90953C8.58004 7.28534 8.13389 7.58344 7.64287 7.78683C7.15185 7.99022 6.62558 8.0949 6.0941 8.0949C5.56263 8.0949 5.03636 7.99022 4.54534 7.78683C4.05432 7.58344 3.60817 7.28534 3.23236 6.90953C2.85656 6.53372 2.55845 6.08757 2.35506 5.59655C2.15168 5.10553 2.04699 4.57926 2.04699 4.04779C2.04699 2.97443 2.47338 1.94503 3.23236 1.18605C3.99135 0.427066 5.02074 0.000674674 6.0941 0.000674674C7.16747 0.000674674 8.19686 0.427066 8.95584 1.18605C9.71483 1.94503 10.1412 2.97443 10.1412 4.04779V4.04779ZM2.38425 9.44393C1.75813 9.44393 1.15764 9.69266 0.714904 10.1354C0.272166 10.5781 0.0234375 11.1786 0.0234375 11.8047V18.2127C0.0234375 19.0099 0.18046 19.7993 0.48554 20.5358C0.790619 21.2723 1.23778 21.9416 1.80149 22.5053C2.36521 23.069 3.03443 23.5162 3.77096 23.8212C4.50749 24.1263 5.29689 24.2833 6.0941 24.2833C6.89132 24.2833 7.68072 24.1263 8.41725 23.8212C9.15378 23.5162 9.823 23.069 10.3867 22.5053C10.9504 21.9416 11.3976 21.2723 11.7027 20.5358C12.0077 19.7993 12.1648 19.0099 12.1648 18.2127V11.8047C12.1648 11.1786 11.916 10.5781 11.4733 10.1354C11.0306 9.69266 10.4301 9.44393 9.80396 9.44393H2.38425ZM10.6269 24.0864C11.5259 23.3939 12.2538 22.5042 12.7544 21.4857C13.2549 20.4673 13.5148 19.3475 13.5138 18.2127V11.8047C13.5138 10.9076 13.1954 10.0861 12.6653 9.44393H15.8746C17.1778 9.44393 18.2354 10.5016 18.2354 11.8047V18.2127C18.2356 19.141 18.0229 20.057 17.6135 20.8903C17.2042 21.7235 16.6093 22.4518 15.8744 23.0191C15.1396 23.5864 14.2844 23.9776 13.3747 24.1626C12.465 24.3476 11.5249 24.3216 10.6269 24.0864V24.0864ZM11.4903 4.04779C11.4903 5.39682 10.9952 6.62849 10.1776 7.57417C10.7935 7.92069 11.4893 8.09994 12.1959 8.09408C12.9025 8.08823 13.5952 7.89746 14.2052 7.54077C14.8152 7.18408 15.3212 6.6739 15.6728 6.06097C16.0244 5.44804 16.2094 4.75374 16.2094 4.04711C16.2094 3.34049 16.0244 2.64618 15.6728 2.03325C15.3212 1.42032 14.8152 0.910138 14.2052 0.553449C13.5952 0.19676 12.9025 0.00599802 12.1959 0.000139151C11.4893 -0.00571971 10.7935 0.173529 10.1776 0.520054C10.9952 1.46708 11.4903 2.7001 11.4903 4.04779V4.04779ZM16.6975 24.0864C17.5966 23.3939 18.3245 22.5042 18.825 21.4857C19.3256 20.4673 19.5854 19.3475 19.5845 18.2127V11.8047C19.5845 10.9076 19.2661 10.0861 18.7359 9.44393H21.9453C23.2485 9.44393 24.3061 10.5016 24.3061 11.8047V18.2127C24.3063 19.141 24.0935 20.057 23.6842 20.8903C23.2749 21.7235 22.68 22.4518 21.9451 23.0191C21.2103 23.5864 20.3551 23.9776 19.4454 24.1626C18.5356 24.3476 17.5956 24.3216 16.6975 24.0864V24.0864ZM17.5609 4.04779C17.5609 5.39682 17.0658 6.62849 16.2483 7.57417C16.8641 7.92069 17.5599 8.09994 18.2665 8.09408C18.9731 8.08823 19.6659 7.89746 20.2759 7.54077C20.8859 7.18408 21.3919 6.6739 21.7435 6.06097C22.0951 5.44804 22.2801 4.75374 22.2801 4.04711C22.2801 3.34049 22.0951 2.64618 21.7435 2.03325C21.3919 1.42032 20.8859 0.910138 20.2759 0.553449C19.6659 0.19676 18.9731 0.00599802 18.2665 0.000139151C17.5599 -0.00571971 16.8641 0.173529 16.2483 0.520054C17.0658 1.46708 17.5609 2.7001 17.5609 4.04779V4.04779Z" fill="white"/>
</svg>
