<svg width="36" height="36" viewBox="0 0 36 36" fill="none" xmlns="http://www.w3.org/2000/svg">
<rect width="36" height="36" rx="8.21918" fill="#EBEBEB"/>
<path d="M8.91674 11.9687C8.91674 11.2698 9.1944 10.5994 9.68864 10.1052C10.1829 9.61097 10.8532 9.33331 11.5522 9.33331H25.448C26.147 9.33331 26.8173 9.61097 27.3115 10.1052C27.8058 10.5994 28.0834 11.2698 28.0834 11.9687V22.0312C28.0834 22.3773 28.0152 22.72 27.8828 23.0398C27.7504 23.3595 27.5562 23.65 27.3115 23.8948C27.0668 24.1395 26.7763 24.3336 26.4565 24.466C26.1368 24.5985 25.7941 24.6666 25.448 24.6666H18.9553L16.9907 22.7021C17.3434 21.9958 17.5417 21.1975 17.5417 20.3541H21.6147C21.8053 20.3541 21.9881 20.2784 22.1229 20.1436C22.2577 20.0088 22.3334 19.826 22.3334 19.6354C22.3334 19.4448 22.2577 19.262 22.1229 19.1272C21.9881 18.9924 21.8053 18.9166 21.6147 18.9166H17.3434C17.1993 18.4072 16.979 17.9226 16.6898 17.4791H23.5313C23.722 17.4791 23.9048 17.4034 24.0396 17.2686C24.1744 17.1338 24.2501 16.951 24.2501 16.7604C24.2501 16.5698 24.1744 16.387 24.0396 16.2522C23.9048 16.1174 23.722 16.0416 23.5313 16.0416H15.3021C14.4444 15.4379 13.3989 15.0833 12.2709 15.0833C10.9963 15.0833 9.82716 15.5356 8.91674 16.2879V11.9687ZM13.4688 13.1666C13.2782 13.1666 13.0954 13.2424 12.9606 13.3772C12.8258 13.512 12.7501 13.6948 12.7501 13.8854C12.7501 14.076 12.8258 14.2588 12.9606 14.3936C13.0954 14.5284 13.2782 14.6041 13.4688 14.6041H19.698C19.8886 14.6041 20.0714 14.5284 20.2062 14.3936C20.341 14.2588 20.4167 14.076 20.4167 13.8854C20.4167 13.6948 20.341 13.512 20.2062 13.3772C20.0714 13.2424 19.8886 13.1666 19.698 13.1666H13.4688ZM12.2709 24.6666C13.1665 24.6679 14.04 24.3892 14.7693 23.8693L17.2734 26.3725C17.3392 26.4431 17.4186 26.4997 17.5067 26.539C17.5949 26.5783 17.6901 26.5994 17.7866 26.6011C17.8831 26.6028 17.9789 26.5851 18.0684 26.5489C18.1579 26.5128 18.2392 26.459 18.3075 26.3907C18.3757 26.3225 18.4295 26.2412 18.4657 26.1517C18.5018 26.0622 18.5196 25.9663 18.5179 25.8698C18.5162 25.7733 18.4951 25.6781 18.4558 25.59C18.4165 25.5018 18.3599 25.4224 18.2892 25.3566L15.7861 22.8525C16.3461 22.0645 16.6252 21.1112 16.5785 20.1456C16.5317 19.18 16.1619 18.2581 15.5283 17.5279C14.8947 16.7977 14.0342 16.3016 13.0848 16.1191C12.1355 15.9367 11.1523 16.0785 10.2932 16.5219C9.43415 16.9653 8.74896 17.6844 8.34764 18.5639C7.94632 19.4434 7.85216 20.4323 8.08027 21.3717C8.30838 22.3112 8.84554 23.1467 9.6055 23.7442C10.3655 24.3418 11.3042 24.6666 12.2709 24.6666ZM12.2709 23.2291C11.5084 23.2291 10.7771 22.9262 10.238 22.3871C9.69881 21.8479 9.39591 21.1166 9.39591 20.3541C9.39591 19.5916 9.69881 18.8604 10.238 18.3212C10.7771 17.782 11.5084 17.4791 12.2709 17.4791C13.0334 17.4791 13.7647 17.782 14.3038 18.3212C14.843 18.8604 15.1459 19.5916 15.1459 20.3541C15.1459 21.1166 14.843 21.8479 14.3038 22.3871C13.7647 22.9262 13.0334 23.2291 12.2709 23.2291Z" fill="#345CEB"/>
</svg>
