<svg width="32" height="32" viewBox="0 0 32 32" fill="none" xmlns="http://www.w3.org/2000/svg">
<path fill-rule="evenodd" clip-rule="evenodd" d="M21.8982 29.8615C24.0101 29.8615 26.0355 29.0225 27.5289 27.5292C29.0223 26.0358 29.8612 24.0104 29.8612 21.8984C29.8612 19.7865 29.0223 17.761 27.5289 16.2677C26.0355 14.7743 24.0101 13.9353 21.8982 13.9353C19.7862 13.9353 17.7608 14.7743 16.2674 16.2677C14.7741 17.761 13.9351 19.7865 13.9351 21.8984C13.9351 24.0104 14.7741 26.0358 16.2674 27.5292C17.7608 29.0225 19.7862 29.8615 21.8982 29.8615V29.8615ZM31.852 21.8984C31.852 24.5383 30.8033 27.0701 28.9366 28.9368C27.0699 30.8035 24.5381 31.8522 21.8982 31.8522C19.2582 31.8522 16.7265 30.8035 14.8597 28.9368C12.993 27.0701 11.9443 24.5383 11.9443 21.8984C11.9443 19.2585 12.993 16.7267 14.8597 14.86C16.7265 12.9933 19.2582 11.9446 21.8982 11.9446C24.5381 11.9446 27.0699 12.9933 28.9366 14.86C30.8033 16.7267 31.852 19.2585 31.852 21.8984V21.8984Z" fill="white"/>
<path d="M18.7901 23.7777C18.8836 24.9642 19.8213 25.8879 21.5035 25.9994V26.8753H22.25V25.9934C23.9919 25.872 25.0092 24.9403 25.0092 23.5906C25.0092 22.3603 24.2328 21.7272 22.8393 21.4007L22.25 21.2614V18.8725C22.9986 18.9581 23.4724 19.3662 23.5858 19.9315H24.8958C24.8022 18.7869 23.8207 17.893 22.25 17.7955V16.9215H21.5035V17.8174C20.0164 17.9627 19.0051 18.8565 19.0051 20.1227C19.0051 21.2415 19.7576 21.9542 21.0098 22.2448L21.5035 22.3663V24.8985C20.739 24.783 20.2314 24.361 20.1179 23.7777H18.7881H18.7901ZM21.4975 21.0822C20.7629 20.913 20.3648 20.5646 20.3648 20.043C20.3648 19.4577 20.7948 19.0198 21.5035 18.8924V21.0822H21.4975V21.0822ZM22.3575 22.5673C23.2514 22.7744 23.6615 23.1088 23.6615 23.7001C23.6615 24.3749 23.1499 24.8368 22.25 24.9224V22.5434L22.3575 22.5673V22.5673Z" fill="white"/>
<path d="M1.99077 0C1.46278 0 0.956423 0.209741 0.583082 0.583082C0.209741 0.956423 0 1.46278 0 1.99077L0 17.9169C0 18.4449 0.209741 18.9512 0.583082 19.3246C0.956423 19.6979 1.46278 19.9077 1.99077 19.9077H10.1191C10.2345 19.2228 10.4077 18.5579 10.6327 17.9169H5.9723C5.9723 16.8609 5.55282 15.8482 4.80614 15.1015C4.05945 14.3548 3.04673 13.9354 1.99077 13.9354V5.9723C3.04673 5.9723 4.05945 5.55282 4.80614 4.80614C5.55282 4.05945 5.9723 3.04674 5.9723 1.99077H25.88C25.88 3.04674 26.2994 4.05945 27.0461 4.80614C27.7928 5.55282 28.8055 5.9723 29.8615 5.9723V12.9957C30.618 13.6726 31.2889 14.445 31.8523 15.2931V1.99077C31.8523 1.46278 31.6425 0.956423 31.2692 0.583082C30.8958 0.209741 30.3895 0 29.8615 0L1.99077 0Z" fill="white"/>
<path d="M19.9034 10.1167L19.9074 9.95146C19.907 9.26582 19.7295 8.59191 19.3922 7.99499C19.0549 7.39807 18.5691 6.89837 17.982 6.54429C17.3949 6.19022 16.7263 5.99376 16.0409 5.97395C15.3556 5.95414 14.6767 6.11165 14.0701 6.43122C13.4635 6.7508 12.9497 7.2216 12.5785 7.79804C12.2072 8.37448 11.9911 9.03702 11.9511 9.72149C11.9111 10.406 12.0485 11.0892 12.3501 11.7049C12.6516 12.3207 13.1071 12.8482 13.6723 13.2362C15.3919 11.5984 17.5618 10.512 19.9034 10.1167V10.1167Z" fill="white"/>
</svg>
