<svg width="36" height="36" viewBox="0 0 36 36" fill="none" xmlns="http://www.w3.org/2000/svg">
<rect width="36" height="36" rx="8.21918" fill="#EBEBEB"/>
<path d="M15.4694 8.86097L8.2057 22.0671C8.06652 22.3201 7.99569 22.605 8.0002 22.8938C8.00471 23.1825 8.08441 23.465 8.23142 23.7136C8.37843 23.9621 8.58769 24.168 8.83856 24.311C9.08942 24.454 9.37322 24.5291 9.66198 24.529H18.4484C18.196 23.7722 18.0575 22.9821 18.0375 22.1845V22.1757L18.032 21.8634V19.0837C18.032 18.2609 18.6843 17.5156 19.5824 17.5156C20.5691 17.5156 21.4982 17.1269 22.4119 16.1922L18.3808 8.86097C18.2375 8.60025 18.0268 8.3828 17.7707 8.23135C17.5147 8.0799 17.2226 8 16.9251 8C16.6276 8 16.3355 8.0799 16.0795 8.23135C15.8234 8.3828 15.6127 8.60025 15.4694 8.86097ZM16.9245 13.1778C17.1448 13.1778 17.3561 13.2653 17.5118 13.421C17.6676 13.5768 17.7551 13.788 17.7551 14.0083V18.4381C17.7551 18.6584 17.6676 18.8696 17.5118 19.0254C17.3561 19.1811 17.1448 19.2686 16.9245 19.2686C16.7043 19.2686 16.493 19.1811 16.3372 19.0254C16.1815 18.8696 16.094 18.6584 16.094 18.4381V14.0083C16.094 13.788 16.1815 13.5768 16.3372 13.421C16.493 13.2653 16.7043 13.1778 16.9245 13.1778ZM17.7551 20.9298C17.7551 21.1501 17.6676 21.3613 17.5118 21.5171C17.3561 21.6729 17.1448 21.7604 16.9245 21.7604C16.7043 21.7604 16.493 21.6729 16.3372 21.5171C16.1815 21.3613 16.094 21.1501 16.094 20.9298C16.094 20.7095 16.1815 20.4983 16.3372 20.3425C16.493 20.1867 16.7043 20.0992 16.9245 20.0992C17.1448 20.0992 17.3561 20.1867 17.5118 20.3425C17.6676 20.4983 17.7551 20.7095 17.7551 20.9298Z" fill="#345CEB"/>
<path d="M25.7838 18.2687C25.3892 18.101 25.0171 17.8845 24.6764 17.6242C24.3937 17.4086 24.1285 17.1708 23.8835 16.9132C23.8432 16.8705 23.7946 16.8365 23.7407 16.8132C23.6869 16.7899 23.6288 16.778 23.5701 16.778C23.5114 16.778 23.4533 16.7899 23.3994 16.8132C23.3455 16.8365 23.2969 16.8705 23.2567 16.9132C22.1548 18.0594 20.9366 18.6231 19.5822 18.6231C19.4624 18.626 19.3485 18.6761 19.2655 18.7627C19.1826 18.8492 19.1371 18.965 19.1392 19.0849V21.8534L19.1437 22.148C19.1736 23.0307 19.3364 23.8247 19.6309 24.529C19.9972 25.408 20.5922 26.1728 21.3541 26.7439C21.9344 27.1869 22.6277 27.549 23.4294 27.8281C23.5206 27.859 23.6195 27.859 23.7107 27.8281C26.5458 26.8424 27.9998 24.8247 27.9998 21.8546V19.0849L27.9899 18.9918C27.9714 18.8896 27.918 18.7969 27.8389 18.7297C27.7597 18.6624 27.6596 18.6247 27.5557 18.6231C26.9472 18.6263 26.3443 18.5057 25.7838 18.2687Z" fill="#345CEB"/>
</svg>
