<svg width="571" height="436" viewBox="0 0 571 436" fill="none" xmlns="http://www.w3.org/2000/svg">
<path d="M41.0607 37.5607C41.6464 36.9749 41.6464 36.0251 41.0607 35.4393L31.5147 25.8934C30.9289 25.3076 29.9792 25.3076 29.3934 25.8934C28.8076 26.4792 28.8076 27.4289 29.3934 28.0147L37.8787 36.5L29.3934 44.9853C28.8076 45.5711 28.8076 46.5208 29.3934 47.1066C29.9792 47.6924 30.9289 47.6924 31.5147 47.1066L41.0607 37.5607ZM20 38H40V35H20V38ZM3.5 18.5V0H0.5V18.5H3.5ZM20 35C10.8873 35 3.5 27.6127 3.5 18.5H0.5C0.5 29.2696 9.23045 38 20 38V35Z" fill="white"/>
<path d="M338.166 38.5922C375.886 37.7735 419.9 49.5735 453.51 72.8939C484.507 94.4027 512.192 122.704 524.627 158.325L523.299 158.788C510.962 123.448 483.461 95.3893 452.707 74.0499C421.954 52.7105 375.619 39.1866 338.196 39.9988L70.9199 39.9991L70.9199 38.592L338.166 38.5922Z" fill="#316AFB"/>
<path d="M453.494 419.084C488.907 406.068 519.289 382.175 540.288 350.83C561.286 319.485 571.823 282.297 570.387 244.596L568.981 244.649C570.405 282.054 559.952 318.949 539.119 350.047C518.286 381.146 488.142 404.85 453.009 417.764L453.494 419.084Z" fill="#316AFB"/>
<path d="M187.543 272.908C178.03 236.398 180.319 197.814 194.083 162.685C207.846 127.557 232.377 97.687 264.16 77.3573L264.918 78.5425C233.386 98.7122 209.048 128.347 195.393 163.199C181.738 198.051 179.466 236.331 188.905 272.553L187.543 272.908Z" fill="#316AFB"/>
<path d="M536.175 259.971C518.44 357.034 425.378 421.342 328.316 403.607C231.253 385.872 166.945 292.81 184.68 195.748C202.415 98.6849 295.477 34.377 392.539 52.1119C489.602 69.8468 553.91 162.909 536.175 259.971ZM186.064 196.001C168.469 292.299 232.27 384.628 328.569 402.223C424.867 419.818 517.196 356.017 534.791 259.718C552.386 163.42 488.585 71.0912 392.287 53.496C295.988 35.9007 203.659 99.7022 186.064 196.001Z" fill="#316AFB"/>
<path d="M548.11 268.383C530.375 365.446 437.313 429.754 340.25 412.019C243.188 394.284 178.88 301.222 196.615 204.159C214.349 107.097 307.411 42.7888 404.474 60.5237C501.537 78.2586 565.845 171.32 548.11 268.383ZM197.999 204.412C180.403 300.711 244.205 393.04 340.503 410.635C436.802 428.23 529.13 364.429 546.726 268.13C564.321 171.832 500.519 79.503 404.221 61.9078C307.923 44.3125 215.594 108.114 197.999 204.412Z" fill="#316AFB"/>
<path d="M444.925 411.915C480.337 398.899 510.72 375.006 531.718 343.661C552.717 312.316 563.253 275.128 561.817 237.427L560.412 237.48C561.836 274.885 551.383 311.78 530.55 342.878C509.716 373.977 479.573 397.681 444.439 410.595L444.925 411.915Z" fill="#316AFB"/>
<path d="M337.608 72.1187C300.097 82.5651 267.026 104.981 243.428 135.954C219.83 166.927 206.997 204.761 206.882 243.7L208.289 243.704C208.403 205.072 221.135 167.535 244.547 136.806C267.959 106.077 300.77 83.8382 337.986 73.4741L337.608 72.1187Z" fill="#316AFB"/>
<path d="M396.602 176.541C384.743 176.541 375.53 185.618 371.563 198.168C367.46 194.122 361.949 192.092 356.023 192.092C326.541 192.092 321.853 222.485 319.873 251.853C319.492 257.524 321.036 260.161 326.765 260.161C332.494 260.161 340.305 257.483 341.102 251.853C342.442 242.459 342.632 241.151 344 229.754C345.415 217.987 348.572 209.119 353.308 209.119C356.554 209.119 357.608 211.634 357.608 216.335C357.608 222.613 355.649 231.656 354.138 244.549C353.471 250.234 355.39 253.134 361.112 253.134C366.841 253.134 375.04 250.241 375.768 244.549C376.816 236.343 377.762 229.37 378.721 222.606C381.484 203.117 384.994 198.532 389.73 198.532C392.69 198.532 393.928 200.987 393.765 205.714C393.493 213.624 388.689 241.737 387.648 251.853C387.056 257.578 388.968 260.161 394.697 260.161C400.426 260.161 408.414 257.517 409.278 251.853C411.108 239.856 412.816 225.924 414.442 212.788C417.021 192.045 415.279 176.541 396.602 176.541Z" fill="white"/>
<circle cx="65.8037" cy="39.29" r="13.8037" fill="#316AFB"/>
<circle cx="458.311" cy="75.2944" r="13.8037" fill="#316AFB"/>
<circle cx="537.531" cy="230.141" r="13.8037" fill="#316AFB"/>
<path d="M65.0185 34.576C65.0185 35.7225 64.3306 36.7773 62.328 36.7773V38.6117C63.077 38.6117 63.9637 38.6117 64.5599 38.0003V45.1393H67.1587V34.576H65.0185ZM69.9295 45.2769C70.648 45.2769 71.2289 44.7724 71.2289 43.9775C71.2289 43.1979 70.648 42.6781 69.9295 42.6781C69.1957 42.6781 68.6301 43.1979 68.6301 43.9775C68.6301 44.7724 69.1957 45.2769 69.9295 45.2769Z" fill="white"/>
<path d="M455.942 74.4621C455.942 73.0098 456.599 72.4595 457.593 72.4595C458.418 72.4595 458.877 72.9486 458.877 73.7589C458.877 75.15 457.088 75.9755 455.193 77.55C454.26 78.3297 453.343 79.4151 453.343 81.1731H461.476V79.0787H456.996V79.0482C458.357 77.7029 461.476 76.3576 461.476 73.5754C461.476 71.5575 459.947 70.3651 457.669 70.3651C454.81 70.3651 453.496 71.9856 453.496 74.4621H455.942ZM463.678 81.3106C464.396 81.3106 464.977 80.8062 464.977 80.0113C464.977 79.2316 464.396 78.7119 463.678 78.7119C462.944 78.7119 462.378 79.2316 462.378 80.0113C462.378 80.8062 462.944 81.3106 463.678 81.3106Z" fill="white"/>
<path d="M535.556 228.905C535.556 227.896 536.305 227.514 537.116 227.514C537.972 227.514 538.491 227.85 538.491 228.752C538.491 229.547 537.926 229.914 536.794 229.914H536.321V231.702H536.856C538.079 231.702 538.797 232.085 538.797 233.109C538.797 233.904 538.277 234.378 537.177 234.378C535.816 234.378 535.25 233.72 535.25 232.497H532.805C532.805 235.035 534.379 236.472 537.36 236.472C539.699 236.472 541.396 235.341 541.396 233.262C541.396 231.962 540.861 231.076 539.561 230.663V230.632C540.418 230.189 541.09 229.47 541.09 228.324C541.09 226.459 539.286 225.419 537.314 225.419C534.608 225.419 533.11 226.887 533.11 228.905H535.556ZM543.516 236.365C544.234 236.365 544.815 235.86 544.815 235.065C544.815 234.286 544.234 233.766 543.516 233.766C542.782 233.766 542.216 234.286 542.216 235.065C542.216 235.86 542.782 236.365 543.516 236.365Z" fill="white"/>
<circle cx="457.107" cy="374.18" r="13.8037" fill="#316AFB"/>
<circle cx="253.053" cy="365.777" r="13.8037" fill="#316AFB"/>
<circle cx="182.235" cy="198.932" r="13.8037" fill="#316AFB"/>
<path d="M459.797 380.362V378.13H461.357V376.036H459.797V369.799H457.199L452.414 375.577V378.13H457.199V380.362H459.797ZM457.199 372.627V376.036H454.325L457.199 372.627ZM463.406 380.5C464.124 380.5 464.705 379.995 464.705 379.2C464.705 378.421 464.124 377.901 463.406 377.901C462.672 377.901 462.106 378.421 462.106 379.2C462.106 379.995 462.672 380.5 463.406 380.5Z" fill="white"/>
<path d="M252.925 364.457C251.962 364.457 251.243 364.748 250.662 365.206V365.176L251.06 363.158H255.967V361.063H249.287L248.064 367.01H250.509C250.938 366.475 251.549 366.246 252.115 366.246C253.231 366.246 253.827 366.903 253.827 368.019C253.827 369.181 253.139 369.777 252.16 369.777C251.06 369.777 250.433 369.12 250.357 368.355H247.758C247.834 370.434 249.363 371.871 252.313 371.871C254.652 371.871 256.426 370.587 256.426 368.05C256.426 365.787 255.019 364.457 252.925 364.457ZM258.559 371.764C259.277 371.764 259.858 371.26 259.858 370.465C259.858 369.685 259.277 369.166 258.559 369.166C257.825 369.166 257.259 369.685 257.259 370.465C257.259 371.26 257.825 371.764 258.559 371.764Z" fill="white"/>
<path d="M179.482 198.324V198.294C179.513 196.78 180.048 195.695 181.363 195.695C182.326 195.695 182.662 196.306 182.739 196.673H185.337C185.001 194.976 183.457 193.753 181.409 193.753C178.703 193.753 176.884 195.603 176.884 199.425C176.884 202.177 178.015 204.806 181.5 204.806C184.038 204.806 185.643 203.277 185.643 200.938C185.643 198.92 184.191 197.361 182.005 197.361C180.797 197.361 180.048 197.789 179.482 198.324ZM181.347 202.864C180.201 202.864 179.482 202.1 179.482 201.076C179.482 200.067 180.201 199.303 181.347 199.303C182.479 199.303 183.197 200.067 183.197 201.076C183.197 202.1 182.479 202.864 181.347 202.864ZM187.665 204.699C188.384 204.699 188.965 204.194 188.965 203.399C188.965 202.62 188.384 202.1 187.665 202.1C186.931 202.1 186.366 202.62 186.366 203.399C186.366 204.194 186.931 204.699 187.665 204.699Z" fill="white"/>
<path d="M200.541 33.5677L210.443 39.285L200.541 45.0023L200.541 33.5677Z" fill="#316AFB" stroke="#316AFB" stroke-width="1.20032"/>
<path d="M291.764 33.5677L301.667 39.285L291.764 45.0023L291.764 33.5677Z" fill="#316AFB" stroke="#316AFB" stroke-width="1.20032"/>
<path d="M523.826 143.598L522.66 154.973L513.392 148.276L523.826 143.598Z" fill="#316AFB" stroke="#316AFB" stroke-width="1.20032"/>
<path d="M526.589 306.24L516.669 311.928L516.703 300.493L526.589 306.24Z" fill="#316AFB" stroke="#316AFB" stroke-width="1.20032"/>
<path d="M363.608 411.275L353.553 405.83L363.296 399.845L363.608 411.275Z" fill="#316AFB" stroke="#316AFB" stroke-width="1.20032"/>
<path d="M189.994 296.391L191.742 285.091L200.655 292.255L189.994 296.391Z" fill="#316AFB" stroke="#316AFB" stroke-width="1.20032"/>
<path d="M232.08 96.3483L243.409 94.7994L239.086 105.385L232.08 96.3483Z" fill="#316AFB" stroke="#316AFB" stroke-width="1.20032"/>
<path d="M189.994 296.391L191.742 285.091L200.655 292.255L189.994 296.391Z" fill="#316AFB" stroke="#316AFB" stroke-width="1.20032"/>
</svg>
